0
SECTION
2
HEADER
9
$INSUNITS
70
4
9
$ACADVER
1
AC1014
9
$HANDSEED
5
FFFF
0
ENDSEC
0
SECTION
2
TABLES
0
TABLE
2
VPORT
5
8
100
AcDbSymbolTable
0
ENDTAB
0
TABLE
2
LTYPE
5
5
100
AcDbSymbolTable
0
LTYPE
5
14
100
AcDbSymbolTableRecord
100
AcDbLinetypeTableRecord
2
BYBLOCK
70
0
0
LTYPE
5
15
100
AcDbSymbolTableRecord
100
AcDbLinetypeTableRecord
2
BYLAYER
70
0
0
ENDTAB
0
TABLE
2
LAYER
5
2
100
AcDbSymbolTable
70
2
0
LAYER
5
50
100
AcDbSymbolTableRecord
100
AcDbLayerTableRecord
2
0
70
0
6
CONTINUOUS
0
ENDTAB
0
TABLE
2
STYLE
5
3
100
AcDbSymbolTable
70
1
0
STYLE
5
11
100
AcDbSymbolTableRecord
100
AcDbTextStyleTableRecord
2
STANDARD
70
0
0
ENDTAB
0
TABLE
2
VIEW
5
6
100
AcDbSymbolTable
70
0
0
ENDTAB
0
TABLE
2
UCS
5
7
100
AcDbSymbolTable
70
0
0
ENDTAB
0
TABLE
2
APPID
5
9
100
AcDbSymbolTable
70
2
0
APPID
5
12
100
AcDbSymbolTableRecord
100
AcDbRegAppTableRecord
2
ACAD
70
0
0
ENDTAB
0
TABLE
2
DIMSTYLE
5
A
100
AcDbSymbolTable
70
1
0
ENDTAB
0
TABLE
2
BLOCK_RECORD
5
1
100
AcDbSymbolTable
70
1
0
BLOCK_RECORD
5
1F
100
AcDbSymbolTableRecord
100
AcDbBlockTableRecord
2
*MODEL_SPACE
0
BLOCK_RECORD
5
1B
100
AcDbSymbolTableRecord
100
AcDbBlockTableRecord
2
*PAPER_SPACE
0
ENDTAB
0
ENDSEC
0
SECTION
2
BLOCKS
0
BLOCK
5
20
100
AcDbEntity
100
AcDbBlockBegin
2
*MODEL_SPACE
0
ENDBLK
5
21
100
AcDbEntity
100
AcDbBlockEnd
0
BLOCK
5
1C
100
AcDbEntity
100
AcDbBlockBegin
2
*PAPER_SPACE
0
ENDBLK
5
1D
100
AcDbEntity
100
AcDbBlockEnd
0
ENDSEC
0
SECTION
2
ENTITIES
0
LWPOLYLINE
5
100
100
AcDbEntity
8
0
100
AcDbPolyline
90
4
70
1
43
0.0
10
24.000000000000004
20
19.050000000000001
10
24.000000000000004
20
33.045000000000002
10
37.995000000000005
20
33.045000000000002
10
37.995000000000005
20
19.050000000000001
0
LWPOLYLINE
5
101
100
AcDbEntity
8
0
100
AcDbPolyline
90
4
70
1
43
0.0
10
43.049999999999997
20
19.050000000000001
10
43.049999999999997
20
33.045000000000002
10
57.045000000000002
20
33.045000000000002
10
57.045000000000002
20
19.050000000000001
0
LWPOLYLINE
5
102
100
AcDbEntity
8
0
100
AcDbPolyline
90
4
70
1
43
0.0
10
62.100000000000001
20
19.050000000000001
10
62.100000000000001
20
33.045000000000002
10
76.094999999999999
20
33.045000000000002
10
76.094999999999999
20
19.050000000000001
0
LWPOLYLINE
5
103
100
AcDbEntity
8
0
100
AcDbPolyline
90
4
70
1
43
0.0
10
81.150000000000006
20
19.050000000000001
10
81.150000000000006
20
33.045000000000002
10
95.14500000000001
20
33.045000000000002
10
95.14500000000001
20
19.050000000000001
0
LWPOLYLINE
5
104
100
AcDbEntity
8
0
100
AcDbPolyline
90
4
70
1
43
0.0
10
100.19999999999999
20
19.050000000000001
10
100.19999999999999
20
33.045000000000002
10
114.19499999999999
20
33.045000000000002
10
114.19499999999999
20
19.050000000000001
0
LWPOLYLINE
5
105
100
AcDbEntity
8
0
100
AcDbPolyline
90
4
70
1
43
0.0
10
119.25
20
19.050000000000001
10
119.25
20
33.045000000000002
10
133.245
20
33.045000000000002
10
133.245
20
19.050000000000001
0
LWPOLYLINE
5
106
100
AcDbEntity
8
0
100
AcDbPolyline
90
4
70
1
43
0.0
10
138.30000000000001
20
19.050000000000001
10
138.30000000000001
20
33.045000000000002
10
152.29500000000002
20
33.045000000000002
10
152.29500000000002
20
19.050000000000001
0
LWPOLYLINE
5
107
100
AcDbEntity
8
0
100
AcDbPolyline
90
4
70
1
43
0.0
10
157.34999999999999
20
19.050000000000001
10
157.34999999999999
20
33.045000000000002
10
171.34500000000003
20
33.045000000000002
10
171.34500000000003
20
19.050000000000001
0
LWPOLYLINE
5
108
100
AcDbEntity
8
0
100
AcDbPolyline
90
4
70
1
43
0.0
10
176.40000000000001
20
19.050000000000001
10
176.40000000000001
20
33.045000000000002
10
190.39500000000001
20
33.045000000000002
10
190.39500000000001
20
19.050000000000001
0
LWPOLYLINE
5
109
100
AcDbEntity
8
0
100
AcDbPolyline
90
4
70
1
43
0.0
10
195.45000000000002
20
19.050000000000001
10
195.45000000000002
20
33.045000000000002
10
209.44500000000002
20
33.045000000000002
10
209.44500000000002
20
19.050000000000001
0
LWPOLYLINE
5
110
100
AcDbEntity
8
0
100
AcDbPolyline
90
4
70
1
43
0.0
10
14.15
20
38.09999999999998
10
14.15
20
52.094999999999985
10
28.144999999999996
20
52.094999999999985
10
28.144999999999996
20
38.09999999999998
0
LWPOLYLINE
5
111
100
AcDbEntity
8
0
100
AcDbPolyline
90
4
70
1
43
0.0
10
33.199999999999996
20
38.09999999999998
10
33.199999999999996
20
52.094999999999985
10
47.195
20
52.094999999999985
10
47.195
20
38.09999999999998
0
LWPOLYLINE
5
112
100
AcDbEntity
8
0
100
AcDbPolyline
90
4
70
1
43
0.0
10
52.25
20
38.09999999999998
10
52.25
20
52.094999999999985
10
66.24499999999999
20
52.094999999999985
10
66.24499999999999
20
38.09999999999998
0
LWPOLYLINE
5
113
100
AcDbEntity
8
0
100
AcDbPolyline
90
4
70
1
43
0.0
10
71.299999999999997
20
38.09999999999998
10
71.299999999999997
20
52.094999999999985
10
85.295000000000002
20
52.094999999999985
10
85.295000000000002
20
38.09999999999998
0
LWPOLYLINE
5
114
100
AcDbEntity
8
0
100
AcDbPolyline
90
4
70
1
43
0.0
10
90.349999999999994
20
38.09999999999998
10
90.349999999999994
20
52.094999999999985
10
104.345
20
52.094999999999985
10
104.345
20
38.09999999999998
0
LWPOLYLINE
5
115
100
AcDbEntity
8
0
100
AcDbPolyline
90
4
70
1
43
0.0
10
109.39999999999999
20
38.09999999999998
10
109.39999999999999
20
52.094999999999985
10
123.395
20
52.094999999999985
10
123.395
20
38.09999999999998
0
LWPOLYLINE
5
116
100
AcDbEntity
8
0
100
AcDbPolyline
90
4
70
1
43
0.0
10
128.45000000000002
20
38.09999999999998
10
128.45000000000002
20
52.094999999999985
10
142.44499999999999
20
52.094999999999985
10
142.44499999999999
20
38.09999999999998
0
LWPOLYLINE
5
117
100
AcDbEntity
8
0
100
AcDbPolyline
90
4
70
1
43
0.0
10
147.5
20
38.09999999999998
10
147.5
20
52.094999999999985
10
161.49500000000003
20
52.094999999999985
10
161.49500000000003
20
38.09999999999998
0
LWPOLYLINE
5
118
100
AcDbEntity
8
0
100
AcDbPolyline
90
4
70
1
43
0.0
10
166.55000000000001
20
38.09999999999998
10
166.55000000000001
20
52.094999999999985
10
180.54500000000002
20
52.094999999999985
10
180.54500000000002
20
38.09999999999998
0
LWPOLYLINE
5
119
100
AcDbEntity
8
0
100
AcDbPolyline
90
4
70
1
43
0.0
10
185.60000000000002
20
38.09999999999998
10
185.60000000000002
20
52.094999999999985
10
199.59500000000003
20
52.094999999999985
10
199.59500000000003
20
38.09999999999998
0
LWPOLYLINE
5
120
100
AcDbEntity
8
0
100
AcDbPolyline
90
4
70
1
43
0.0
10
204.65000000000003
20
38.09999999999998
10
204.65000000000003
20
52.094999999999985
10
218.64500000000004
20
52.094999999999985
10
218.64500000000004
20
38.09999999999998
0
LWPOLYLINE
5
121
100
AcDbEntity
8
0
100
AcDbPolyline
90
4
70
1
43
0.0
10
10.199999999999999
20
57.149999999999999
10
10.199999999999999
20
71.144999999999996
10
24.195
20
71.144999999999996
10
24.195
20
57.149999999999999
0
LWPOLYLINE
5
122
100
AcDbEntity
8
0
100
AcDbPolyline
90
4
70
1
43
0.0
10
29.25
20
57.149999999999999
10
29.25
20
71.144999999999996
10
43.245000000000005
20
71.144999999999996
10
43.245000000000005
20
57.149999999999999
0
LWPOLYLINE
5
123
100
AcDbEntity
8
0
100
AcDbPolyline
90
4
70
1
43
0.0
10
48.299999999999997
20
57.149999999999999
10
48.299999999999997
20
71.144999999999996
10
62.295000000000002
20
71.144999999999996
10
62.295000000000002
20
57.149999999999999
0
LWPOLYLINE
5
124
100
AcDbEntity
8
0
100
AcDbPolyline
90
4
70
1
43
0.0
10
67.350000000000009
20
57.149999999999999
10
67.350000000000009
20
71.144999999999996
10
81.345000000000013
20
71.144999999999996
10
81.345000000000013
20
57.149999999999999
0
LWPOLYLINE
5
125
100
AcDbEntity
8
0
100
AcDbPolyline
90
4
70
1
43
0.0
10
86.400000000000006
20
57.149999999999999
10
86.400000000000006
20
71.144999999999996
10
100.39500000000001
20
71.144999999999996
10
100.39500000000001
20
57.149999999999999
0
LWPOLYLINE
5
126
100
AcDbEntity
8
0
100
AcDbPolyline
90
4
70
1
43
0.0
10
105.45
20
57.149999999999999
10
105.45
20
71.144999999999996
10
119.44499999999999
20
71.144999999999996
10
119.44499999999999
20
57.149999999999999
0
LWPOLYLINE
5
127
100
AcDbEntity
8
0
100
AcDbPolyline
90
4
70
1
43
0.0
10
124.50000000000001
20
57.149999999999999
10
124.50000000000001
20
71.144999999999996
10
138.495
20
71.144999999999996
10
138.495
20
57.149999999999999
0
LWPOLYLINE
5
128
100
AcDbEntity
8
0
100
AcDbPolyline
90
4
70
1
43
0.0
10
143.55000000000001
20
57.149999999999999
10
143.55000000000001
20
71.144999999999996
10
157.54500000000002
20
71.144999999999996
10
157.54500000000002
20
57.149999999999999
0
LWPOLYLINE
5
129
100
AcDbEntity
8
0
100
AcDbPolyline
90
4
70
1
43
0.0
10
162.59999999999997
20
57.149999999999999
10
162.59999999999997
20
71.144999999999996
10
176.59499999999997
20
71.144999999999996
10
176.59499999999997
20
57.149999999999999
0
LWPOLYLINE
5
130
100
AcDbEntity
8
0
100
AcDbPolyline
90
4
70
1
43
0.0
10
181.64999999999998
20
57.149999999999999
10
181.64999999999998
20
71.144999999999996
10
195.64499999999998
20
71.144999999999996
10
195.64499999999998
20
57.149999999999999
0
LWPOLYLINE
5
131
100
AcDbEntity
8
0
100
AcDbPolyline
90
4
70
1
43
0.0
10
200.69999999999999
20
57.149999999999999
10
200.69999999999999
20
71.144999999999996
10
214.69499999999999
20
71.144999999999996
10
214.69499999999999
20
57.149999999999999
0
LWPOLYLINE
5
132
100
AcDbEntity
8
0
100
AcDbPolyline
90
4
70
1
43
0.0
10
219.74999999999997
20
57.149999999999999
10
219.74999999999997
20
71.144999999999996
10
233.74499999999998
20
71.144999999999996
10
233.74499999999998
20
57.149999999999999
0
LINE
5
133
100
AcDbEntity
8
0
100
AcDbLine
10
21.147500000000001
20
45.097499999999982
30
0
11
-4.9525000000000032
21
45.097499999999982
31
0
0
LINE
5
134
100
AcDbEntity
8
0
100
AcDbLine
10
17.197500000000002
20
64.147499999999994
30
0
11
-7.3025000000000002
21
64.147499999999994
31
0
0
LINE
5
135
100
AcDbEntity
8
0
100
AcDbLine
10
-0.30500000000000194
20
71.144999999999996
30
0
11
-14.299999999999999
21
71.144999999999996
31
0
0
LINE
5
136
100
AcDbEntity
8
0
100
AcDbLine
10
-14.299999999999999
20
71.144999999999996
30
0
11
-14.299999999999999
21
57.149999999999999
31
0
0
LINE
5
137
100
AcDbEntity
8
0
100
AcDbLine
10
-14.299999999999999
20
57.149999999999999
30
0
11
-0.30500000000000194
21
57.149999999999999
31
0
0
LINE
5
138
100
AcDbEntity
8
0
100
AcDbLine
10
-0.30500000000000194
20
57.149999999999999
30
0
11
-0.30500000000000194
21
71.144999999999996
31
0
0
LINE
5
139
100
AcDbEntity
8
0
100
AcDbLine
10
-0.30500000000000194
20
71.144999999999996
30
0
11
-14.299999999999999
21
57.149999999999999
31
0
0
LINE
5
140
100
AcDbEntity
8
0
100
AcDbLine
10
-14.299999999999999
20
71.144999999999996
30
0
11
-0.30500000000000194
21
57.149999999999999
31
0
0
LINE
5
141
100
AcDbEntity
8
0
100
AcDbLine
10
2.0449999999999964
20
52.094999999999985
30
0
11
-11.950000000000001
21
52.094999999999985
31
0
0
LINE
5
142
100
AcDbEntity
8
0
100
AcDbLine
10
-11.950000000000001
20
52.094999999999985
30
0
11
-11.950000000000001
21
38.099999999999987
31
0
0
LINE
5
143
100
AcDbEntity
8
0
100
AcDbLine
10
-11.950000000000001
20
38.099999999999987
30
0
11
2.0449999999999964
21
38.099999999999987
31
0
0
LINE
5
144
100
AcDbEntity
8
0
100
AcDbLine
10
2.0449999999999964
20
38.099999999999987
30
0
11
2.0449999999999964
21
52.094999999999985
31
0
0
LINE
5
145
100
AcDbEntity
8
0
100
AcDbLine
10
2.0449999999999964
20
52.094999999999985
30
0
11
-11.950000000000001
21
38.099999999999987
31
0
0
LINE
5
146
100
AcDbEntity
8
0
100
AcDbLine
10
-11.950000000000001
20
52.094999999999985
30
0
11
2.0449999999999964
21
38.099999999999987
31
0
0
LINE
5
147
100
AcDbEntity
8
0
100
AcDbLine
10
30.997500000000002
20
26.047499999999999
30
0
11
-0.20249999999999879
21
26.047499999999999
31
0
0
LINE
5
148
100
AcDbEntity
8
0
100
AcDbLine
10
6.7949999999999999
20
33.045000000000002
30
0
11
-7.1999999999999975
21
33.045000000000002
31
0
0
LINE
5
149
100
AcDbEntity
8
0
100
AcDbLine
10
-7.1999999999999975
20
33.045000000000002
30
0
11
-7.1999999999999975
21
19.050000000000004
31
0
0
LINE
5
150
100
AcDbEntity
8
0
100
AcDbLine
10
-7.1999999999999975
20
19.050000000000004
30
0
11
6.7949999999999999
21
19.050000000000004
31
0
0
LINE
5
151
100
AcDbEntity
8
0
100
AcDbLine
10
6.7949999999999999
20
19.050000000000004
30
0
11
6.7949999999999999
21
33.045000000000002
31
0
0
LINE
5
152
100
AcDbEntity
8
0
100
AcDbLine
10
6.7949999999999999
20
33.045000000000002
30
0
11
-7.1999999999999975
21
19.050000000000004
31
0
0
LINE
5
153
100
AcDbEntity
8
0
100
AcDbLine
10
-7.1999999999999975
20
33.045000000000002
30
0
11
6.7949999999999999
21
19.050000000000004
31
0
0
LINE
5
154
100
AcDbEntity
8
0
100
AcDbLine
10
-0.20249999999999879
20
26.047499999999999
30
0
11
-12.202500000000001
21
26.047499999999999
31
0
0
LINE
5
155
100
AcDbEntity
8
0
100
AcDbLine
10
-0.20249999999999879
20
26.047499999999999
30
0
11
11.797500000000003
21
26.047499999999999
31
0
0
LINE
5
156
100
AcDbEntity
8
0
100
AcDbLine
10
-12.202500000000001
20
26.047499999999999
30
0
11
-15.452500000000002
21
26.047499999999999
31
0
0
LINE
5
157
100
AcDbEntity
8
0
100
AcDbLine
10
-15.452500000000002
20
26.047499999999999
30
0
11
-15.452500000000002
21
32.047499999999999
31
0
0
LINE
5
158
100
AcDbEntity
8
0
100
AcDbLine
10
-15.452500000000002
20
32.047499999999999
30
0
11
-8.9525000000000041
21
32.047500000000007
31
0
0
LINE
5
159
100
AcDbEntity
8
0
100
AcDbLine
10
-15.452500000000002
20
26.047499999999999
30
0
11
-15.452500000000002
21
23.547499999999999
31
0
0
LINE
5
160
100
AcDbEntity
8
0
100
AcDbLine
10
-15.452500000000002
20
26.047499999999999
30
0
11
-15.452500000000002
21
26.547499999999999
31
0
0
LINE
5
161
100
AcDbEntity
8
0
100
AcDbLine
10
-15.452500000000002
20
26.547499999999999
30
0
11
-16.452500000000004
21
26.547499999999999
31
0
0
LINE
5
162
100
AcDbEntity
8
0
100
AcDbLine
10
-15.452500000000002
20
23.547499999999999
30
0
11
-16.452500000000004
21
23.547499999999999
31
0
0
LINE
5
163
100
AcDbEntity
8
0
100
AcDbLine
10
-16.452500000000004
20
26.547499999999999
30
0
11
-16.452500000000004
21
23.547499999999999
31
0
0
LINE
5
164
100
AcDbEntity
8
0
100
AcDbLine
10
-8.9525000000000041
20
32.047500000000007
30
0
11
-8.9525000000000041
21
20.047500000000007
31
0
0
LINE
5
165
100
AcDbEntity
8
0
100
AcDbLine
10
-12.202500000000002
20
32.047500000000007
30
0
11
-13.952500000000004
21
32.047500000000007
31
0
0
LINE
5
166
100
AcDbEntity
8
0
100
AcDbLine
10
-13.952500000000004
20
32.047500000000007
30
0
11
-13.952500000000004
21
35.547500000000007
31
0
0
LINE
5
167
100
AcDbEntity
8
0
100
AcDbLine
10
-13.952500000000004
20
35.547500000000007
30
0
11
-10.452500000000002
21
35.547500000000014
31
0
0
LINE
5
168
100
AcDbEntity
8
0
100
AcDbLine
10
-10.452500000000002
20
35.547500000000014
30
0
11
-10.452500000000002
21
32.047500000000007
31
0
0
LINE
5
169
100
AcDbEntity
8
0
100
AcDbLine
10
-8.9525000000000041
20
20.047500000000007
30
0
11
-15.452500000000002
21
20.047500000000007
31
0
0
LINE
5
170
100
AcDbEntity
8
0
100
AcDbLine
10
-15.452500000000002
20
20.047500000000007
30
0
11
-15.452500000000002
21
23.547499999999999
31
0
0
LINE
5
171
100
AcDbEntity
8
0
100
AcDbLine
10
-15.452500000000002
20
23.547499999999999
30
0
11
-8.9525000000000041
21
23.547499999999999
31
0
0
LINE
5
172
100
AcDbEntity
8
0
100
AcDbLine
10
-8.9525000000000041
20
23.547499999999999
30
0
11
-7.9525000000000023
21
23.547499999999999
31
0
0
LINE
5
173
100
AcDbEntity
8
0
100
AcDbLine
10
-15.452500000000002
20
26.547499999999999
30
0
11
-8.9525000000000041
21
26.547499999999999
31
0
0
LINE
5
174
100
AcDbEntity
8
0
100
AcDbLine
10
-7.9525000000000023
20
23.547499999999999
30
0
11
-7.9525000000000023
21
26.547499999999999
31
0
0
LINE
5
175
100
AcDbEntity
8
0
100
AcDbLine
10
-7.9525000000000023
20
26.547499999999999
30
0
11
-8.9525000000000041
21
26.547499999999999
31
0
0
LINE
5
176
100
AcDbEntity
8
0
100
AcDbLine
10
-15.452500000000002
20
26.047499999999999
30
0
11
-15.452500000000002
21
32.047499999999999
31
0
0
LINE
5
177
100
AcDbEntity
8
0
100
AcDbLine
10
-15.452500000000002
20
32.047499999999999
30
0
11
-8.9525000000000041
21
32.047499999999999
31
0
0
LINE
5
178
100
AcDbEntity
8
0
100
AcDbLine
10
-8.9525000000000041
20
32.047499999999999
30
0
11
-8.9525000000000041
21
20.047499999999999
31
0
0
LINE
5
179
100
AcDbEntity
8
0
100
AcDbLine
10
-8.9525000000000041
20
20.047499999999999
30
0
11
-15.452500000000002
21
20.047499999999999
31
0
0
LINE
5
180
100
AcDbEntity
8
0
100
AcDbLine
10
-15.452500000000002
20
20.047499999999999
30
0
11
-15.452500000000002
21
23.547499999999999
31
0
0
LINE
5
181
100
AcDbEntity
8
0
100
AcDbLine
10
-15.452500000000002
20
23.547499999999999
30
0
11
-8.9525000000000041
21
23.547499999999999
31
0
0
LINE
5
182
100
AcDbEntity
8
0
100
AcDbLine
10
-7.9525000000000023
20
23.547499999999999
30
0
11
-7.9525000000000023
21
26.547499999999999
31
0
0
LINE
5
183
100
AcDbEntity
8
0
100
AcDbLine
10
-7.9525000000000023
20
26.547499999999999
30
0
11
-8.9525000000000041
21
26.547499999999999
31
0
0
LINE
5
184
100
AcDbEntity
8
0
100
AcDbLine
10
-15.452500000000002
20
26.547499999999999
30
0
11
-8.9525000000000041
21
26.547499999999999
31
0
0
LINE
5
185
100
AcDbEntity
8
0
100
AcDbLine
10
-8.9525000000000041
20
23.547499999999999
30
0
11
-7.9525000000000023
21
23.547499999999999
31
0
0
LINE
5
186
100
AcDbEntity
8
0
100
AcDbLine
10
-16.452500000000004
20
26.547499999999999
30
0
11
-16.452500000000004
21
23.547499999999999
31
0
0
LINE
5
187
100
AcDbEntity
8
0
100
AcDbLine
10
-15.452500000000002
20
26.547499999999999
30
0
11
-16.452500000000004
21
26.547499999999999
31
0
0
LINE
5
188
100
AcDbEntity
8
0
100
AcDbLine
10
-15.452500000000002
20
23.547499999999999
30
0
11
-16.452500000000004
21
23.547499999999999
31
0
0
LINE
5
189
100
AcDbEntity
8
0
100
AcDbLine
10
-12.202500000000002
20
32.047499999999999
30
0
11
-13.952500000000004
21
32.047499999999999
31
0
0
LINE
5
190
100
AcDbEntity
8
0
100
AcDbLine
10
-13.952500000000004
20
35.547499999999999
30
0
11
-10.452500000000002
21
35.547499999999999
31
0
0
LINE
5
191
100
AcDbEntity
8
0
100
AcDbLine
10
-10.452500000000002
20
35.547499999999999
30
0
11
-10.452500000000002
21
32.047499999999999
31
0
0
LINE
5
192
100
AcDbEntity
8
0
100
AcDbLine
10
-13.952500000000004
20
32.047499999999999
30
0
11
-13.952500000000004
21
35.547499999999999
31
0
0
LINE
5
193
100
AcDbEntity
8
0
100
AcDbLine
10
8.5475000000000012
20
26.047499999999999
30
0
11
8.5475000000000012
21
32.047499999999999
31
0
0
LINE
5
194
100
AcDbEntity
8
0
100
AcDbLine
10
8.5475000000000012
20
32.047499999999999
30
0
11
15.047499999999999
21
32.047499999999999
31
0
0
LINE
5
195
100
AcDbEntity
8
0
100
AcDbLine
10
15.047499999999999
20
32.047499999999999
30
0
11
15.047499999999999
21
20.047499999999999
31
0
0
LINE
5
196
100
AcDbEntity
8
0
100
AcDbLine
10
15.047499999999999
20
20.047499999999999
30
0
11
8.5475000000000012
21
20.047499999999999
31
0
0
LINE
5
197
100
AcDbEntity
8
0
100
AcDbLine
10
8.5475000000000012
20
20.047499999999999
30
0
11
8.5475000000000012
21
23.547499999999999
31
0
0
LINE
5
198
100
AcDbEntity
8
0
100
AcDbLine
10
8.5475000000000012
20
23.547499999999999
30
0
11
15.047499999999999
21
23.547499999999999
31
0
0
LINE
5
199
100
AcDbEntity
8
0
100
AcDbLine
10
16.047499999999999
20
23.547499999999999
30
0
11
16.047499999999999
21
26.547499999999999
31
0
0
LINE
5
200
100
AcDbEntity
8
0
100
AcDbLine
10
16.047499999999999
20
26.547499999999999
30
0
11
15.047499999999999
21
26.547499999999999
31
0
0
LINE
5
201
100
AcDbEntity
8
0
100
AcDbLine
10
8.5475000000000012
20
26.547499999999999
30
0
11
15.047499999999999
21
26.547499999999999
31
0
0
LINE
5
202
100
AcDbEntity
8
0
100
AcDbLine
10
15.047499999999999
20
23.547499999999999
30
0
11
16.047499999999999
21
23.547499999999999
31
0
0
LINE
5
203
100
AcDbEntity
8
0
100
AcDbLine
10
7.5475000000000003
20
26.547499999999999
30
0
11
7.5475000000000003
21
23.547499999999999
31
0
0
LINE
5
204
100
AcDbEntity
8
0
100
AcDbLine
10
8.5475000000000012
20
26.547499999999999
30
0
11
7.5475000000000003
21
26.547499999999999
31
0
0
LINE
5
205
100
AcDbEntity
8
0
100
AcDbLine
10
8.5475000000000012
20
23.547499999999999
30
0
11
7.5475000000000003
21
23.547499999999999
31
0
0
LINE
5
206
100
AcDbEntity
8
0
100
AcDbLine
10
11.797500000000001
20
32.047499999999999
30
0
11
10.047499999999999
21
32.047499999999999
31
0
0
LINE
5
207
100
AcDbEntity
8
0
100
AcDbLine
10
10.047499999999999
20
35.547499999999999
30
0
11
13.547500000000001
21
35.547499999999999
31
0
0
LINE
5
208
100
AcDbEntity
8
0
100
AcDbLine
10
13.547500000000001
20
35.547499999999999
30
0
11
13.547500000000001
21
32.047499999999999
31
0
0
LINE
5
209
100
AcDbEntity
8
0
100
AcDbLine
10
10.047499999999999
20
32.047499999999999
30
0
11
10.047499999999999
21
35.547499999999999
31
0
0
LINE
5
210
100
AcDbEntity
8
0
100
AcDbLine
10
-7.1999999999999975
20
26.047499999999999
30
0
11
-7.1999999999999975
21
31.047499999999999
31
0
0
LINE
5
211
100
AcDbEntity
8
0
100
AcDbLine
10
-8.9525000000000041
20
31.047499999999999
30
0
11
-7.1999999999999975
21
31.047499999999999
31
0
0
LINE
5
212
100
AcDbEntity
8
0
100
AcDbLine
10
-7.1999999999999975
20
31.047499999999999
30
0
11
8.5475000000000012
21
31.047499999999999
31
0
0
LINE
5
213
100
AcDbEntity
8
0
100
AcDbLine
10
-7.1999999999999975
20
26.047499999999999
30
0
11
-7.1999999999999975
21
21.047499999999999
31
0
0
LINE
5
214
100
AcDbEntity
8
0
100
AcDbLine
10
-8.9525000000000041
20
21.047499999999999
30
0
11
-7.1999999999999975
21
21.047499999999999
31
0
0
LINE
5
215
100
AcDbEntity
8
0
100
AcDbLine
10
-7.1999999999999975
20
21.047499999999999
30
0
11
8.5475000000000012
21
21.047499999999999
31
0
0
LINE
5
216
100
AcDbEntity
8
0
100
AcDbLine
10
6.9974999999999996
20
83.197500000000005
30
0
11
16.50000024586916
21
83.197500000000005
31
0
0
LWPOLYLINE
5
217
100
AcDbEntity
8
0
100
AcDbPolyline
90
4
70
1
43
0.0
10
-62.250000000000007
20
13.994999999999997
10
-48.25500000000001
20
13.994999999999997
10
-48.25500000000001
20
0
10
-62.250000000000007
20
0
0
LWPOLYLINE
5
218
100
AcDbEntity
8
0
100
AcDbPolyline
90
4
70
1
43
0.0
10
-62.250000000000007
20
33.045000000000002
10
-48.25500000000001
20
33.045000000000002
10
-48.25500000000001
20
19.050000000000004
10
-62.250000000000007
20
19.050000000000004
0
LWPOLYLINE
5
219
100
AcDbEntity
8
0
100
AcDbPolyline
90
4
70
1
43
0.0
10
-81.300000000000011
20
33.045000000000002
10
-67.305000000000007
20
33.045000000000002
10
-67.305000000000007
20
19.050000000000004
10
-81.300000000000011
20
19.050000000000004
0
LWPOLYLINE
5
220
100
AcDbEntity
8
0
100
AcDbPolyline
90
4
70
1
43
0.0
10
-100.34999999999999
20
33.045000000000002
10
-86.355000000000004
20
33.045000000000002
10
-86.355000000000004
20
19.050000000000004
10
-100.34999999999999
20
19.050000000000004
0
LWPOLYLINE
5
221
100
AcDbEntity
8
0
100
AcDbPolyline
90
4
70
1
43
0.0
10
-62.250000000000007
20
52.094999999999999
10
-48.25500000000001
20
52.094999999999999
10
-48.25500000000001
20
38.100000000000009
10
-62.250000000000007
20
38.100000000000009
0
LWPOLYLINE
5
222
100
AcDbEntity
8
0
100
AcDbPolyline
90
4
70
1
43
0.0
10
-81.300000000000011
20
52.094999999999999
10
-67.305000000000007
20
52.094999999999999
10
-67.305000000000007
20
38.100000000000009
10
-81.300000000000011
20
38.100000000000009
0
LWPOLYLINE
5
223
100
AcDbEntity
8
0
100
AcDbPolyline
90
4
70
1
43
0.0
10
-100.34999999999999
20
52.094999999999999
10
-86.355000000000004
20
52.094999999999999
10
-86.355000000000004
20
38.100000000000009
10
-100.34999999999999
20
38.100000000000009
0
LWPOLYLINE
5
224
100
AcDbEntity
8
0
100
AcDbPolyline
90
4
70
1
43
0.0
10
-62.250000000000007
20
71.14500000000001
10
-48.25500000000001
20
71.14500000000001
10
-48.25500000000001
20
57.15000000000002
10
-62.250000000000007
20
57.15000000000002
0
LWPOLYLINE
5
225
100
AcDbEntity
8
0
100
AcDbPolyline
90
4
70
1
43
0.0
10
-81.300000000000011
20
71.14500000000001
10
-67.305000000000007
20
71.14500000000001
10
-67.305000000000007
20
57.15000000000002
10
-81.300000000000011
20
57.15000000000002
0
LWPOLYLINE
5
226
100
AcDbEntity
8
0
100
AcDbPolyline
90
4
70
1
43
0.0
10
-100.34999999999999
20
71.14500000000001
10
-86.355000000000004
20
71.14500000000001
10
-86.355000000000004
20
57.15000000000002
10
-100.34999999999999
20
57.15000000000002
0
LWPOLYLINE
5
227
100
AcDbEntity
8
0
100
AcDbPolyline
90
4
70
1
43
0.0
10
-43.200000000000003
20
90.195000000000007
10
-29.205000000000005
20
90.195000000000007
10
-29.205000000000005
20
76.200000000000017
10
-43.200000000000003
20
76.200000000000017
0
LWPOLYLINE
5
228
100
AcDbEntity
8
0
100
AcDbPolyline
90
4
70
1
43
0.0
10
-62.250000000000007
20
90.195000000000007
10
-48.25500000000001
20
90.195000000000007
10
-48.25500000000001
20
76.200000000000017
10
-62.250000000000007
20
76.200000000000017
0
LWPOLYLINE
5
229
100
AcDbEntity
8
0
100
AcDbPolyline
90
4
70
1
43
0.0
10
-81.300000000000011
20
90.195000000000007
10
-67.305000000000007
20
90.195000000000007
10
-67.305000000000007
20
76.200000000000017
10
-81.300000000000011
20
76.200000000000017
0
LWPOLYLINE
5
230
100
AcDbEntity
8
0
100
AcDbPolyline
90
4
70
1
43
0.0
10
-100.34999999999999
20
90.195000000000007
10
-86.355000000000004
20
90.195000000000007
10
-86.355000000000004
20
76.200000000000017
10
-100.34999999999999
20
76.200000000000017
0
LWPOLYLINE
5
231
100
AcDbEntity
8
0
100
AcDbPolyline
90
4
70
1
43
0.0
10
-43.200000000000003
20
109.24500000000002
10
-29.205000000000005
20
109.24500000000002
10
-29.205000000000005
20
95.250000000000028
10
-43.200000000000003
20
95.250000000000028
0
LWPOLYLINE
5
232
100
AcDbEntity
8
0
100
AcDbPolyline
90
4
70
1
43
0.0
10
-62.250000000000007
20
109.24500000000002
10
-48.25500000000001
20
109.24500000000002
10
-48.25500000000001
20
95.250000000000028
10
-62.250000000000007
20
95.250000000000028
0
LWPOLYLINE
5
233
100
AcDbEntity
8
0
100
AcDbPolyline
90
4
70
1
43
0.0
10
-81.300000000000011
20
109.24500000000002
10
-67.305000000000007
20
109.24500000000002
10
-67.305000000000007
20
95.250000000000028
10
-81.300000000000011
20
95.250000000000028
0
LWPOLYLINE
5
234
100
AcDbEntity
8
0
100
AcDbPolyline
90
4
70
1
43
0.0
10
-100.34999999999999
20
109.24500000000002
10
-86.355000000000004
20
109.24500000000002
10
-86.355000000000004
20
95.250000000000028
10
-100.34999999999999
20
95.250000000000028
0
LINE
5
235
100
AcDbEntity
8
0
100
AcDbLine
10
216.54750000000001
20
83.197500000000005
30
0
11
244.54750000000001
21
83.197500000000005
31
0
0
LINE
5
236
100
AcDbEntity
8
0
100
AcDbLine
10
251.54499999999999
20
90.195000000000007
30
0
11
237.55000000000001
21
90.195000000000007
31
0
0
LINE
5
237
100
AcDbEntity
8
0
100
AcDbLine
10
237.55000000000001
20
90.195000000000007
30
0
11
237.55000000000001
21
76.200000000000017
31
0
0
LINE
5
238
100
AcDbEntity
8
0
100
AcDbLine
10
237.55000000000001
20
76.200000000000017
30
0
11
251.54499999999999
21
76.200000000000017
31
0
0
LINE
5
239
100
AcDbEntity
8
0
100
AcDbLine
10
251.54499999999999
20
76.200000000000017
30
0
11
251.54499999999999
21
90.195000000000007
31
0
0
LINE
5
240
100
AcDbEntity
8
0
100
AcDbLine
10
251.54499999999999
20
90.195000000000007
30
0
11
237.55000000000001
21
76.200000000000017
31
0
0
LINE
5
241
100
AcDbEntity
8
0
100
AcDbLine
10
237.55000000000001
20
90.195000000000007
30
0
11
251.54499999999999
21
76.200000000000017
31
0
0
LINE
5
242
100
AcDbEntity
8
0
100
AcDbLine
10
235.79750000000004
20
77.197499999999977
30
0
11
229.29750000000007
21
77.197499999999977
31
0
0
LINE
5
243
100
AcDbEntity
8
0
100
AcDbLine
10
236.79750000000007
20
80.697499999999977
30
0
11
236.79750000000007
21
83.697499999999977
31
0
0
LINE
5
244
100
AcDbEntity
8
0
100
AcDbLine
10
228.29750000000004
20
83.697499999999977
30
0
11
228.29750000000004
21
80.697499999999977
31
0
0
LINE
5
245
100
AcDbEntity
8
0
100
AcDbLine
10
229.29750000000007
20
83.697499999999977
30
0
11
235.79750000000004
21
83.697499999999977
31
0
0
LINE
5
246
100
AcDbEntity
8
0
100
AcDbLine
10
234.29750000000007
20
92.697499999999991
30
0
11
234.29750000000007
21
89.197499999999991
31
0
0
LINE
5
247
100
AcDbEntity
8
0
100
AcDbLine
10
229.29750000000007
20
80.697499999999977
30
0
11
228.29750000000004
21
80.697499999999977
31
0
0
LINE
5
248
100
AcDbEntity
8
0
100
AcDbLine
10
236.79750000000007
20
83.697499999999977
30
0
11
235.79750000000004
21
83.697499999999977
31
0
0
LINE
5
249
100
AcDbEntity
8
0
100
AcDbLine
10
229.29750000000007
20
89.197499999999991
30
0
11
235.79750000000004
21
89.197499999999991
31
0
0
LINE
5
250
100
AcDbEntity
8
0
100
AcDbLine
10
235.79750000000004
20
89.197499999999991
30
0
11
235.79750000000004
21
77.197499999999977
31
0
0
LINE
5
251
100
AcDbEntity
8
0
100
AcDbLine
10
229.29750000000007
20
83.697499999999977
30
0
11
228.29750000000004
21
83.697499999999977
31
0
0
LINE
5
252
100
AcDbEntity
8
0
100
AcDbLine
10
229.29750000000007
20
80.697499999999977
30
0
11
235.79750000000004
21
80.697499999999977
31
0
0
LINE
5
253
100
AcDbEntity
8
0
100
AcDbLine
10
230.79750000000004
20
92.697499999999991
30
0
11
234.29750000000007
21
92.697499999999991
31
0
0
LINE
5
254
100
AcDbEntity
8
0
100
AcDbLine
10
229.29750000000007
20
83.197499999999977
30
0
11
229.29750000000007
21
89.197499999999991
31
0
0
LINE
5
255
100
AcDbEntity
8
0
100
AcDbLine
10
229.29750000000007
20
77.197499999999977
30
0
11
229.29750000000007
21
80.697499999999977
31
0
0
LINE
5
256
100
AcDbEntity
8
0
100
AcDbLine
10
232.54750000000004
20
89.197499999999991
30
0
11
230.79750000000004
21
89.197499999999991
31
0
0
LINE
5
257
100
AcDbEntity
8
0
100
AcDbLine
10
235.79750000000004
20
80.697499999999977
30
0
11
236.79750000000007
21
80.697499999999977
31
0
0
LINE
5
258
100
AcDbEntity
8
0
100
AcDbLine
10
230.79750000000004
20
89.197499999999991
30
0
11
230.79750000000004
21
92.697499999999991
31
0
0
LINE
5
259
100
AcDbEntity
8
0
100
AcDbLine
10
237.55000000000001
20
83.197500000000005
30
0
11
225.55000000000004
21
83.197500000000005
31
0
0
LINE
5
260
100
AcDbEntity
8
0
100
AcDbLine
10
244.54750000000001
20
83.197500000000005
30
0
11
256.54750000000001
21
83.197500000000005
31
0
0
LINE
5
261
100
AcDbEntity
8
0
100
AcDbLine
10
244.54750000000001
20
83.197500000000005
30
0
11
232.54750000000001
21
83.197500000000005
31
0
0
LINE
5
262
100
AcDbEntity
8
0
100
AcDbLine
10
229.29750000000007
20
83.197499999999977
30
0
11
232.54750000000004
21
83.197499999999977
31
0
0
LINE
5
263
100
AcDbEntity
8
0
100
AcDbLine
10
261.55000000000007
20
83.197500000000005
30
0
11
249.55000000000007
21
83.197500000000005
31
0
0
LINE
5
264
100
AcDbEntity
8
0
100
AcDbLine
10
259.79750000000007
20
77.197499999999977
30
0
11
253.29750000000007
21
77.197499999999977
31
0
0
LINE
5
265
100
AcDbEntity
8
0
100
AcDbLine
10
254.79750000000007
20
92.697499999999991
30
0
11
258.29750000000007
21
92.697499999999991
31
0
0
LINE
5
266
100
AcDbEntity
8
0
100
AcDbLine
10
253.29750000000007
20
83.197499999999977
30
0
11
256.54750000000007
21
83.197499999999977
31
0
0
LINE
5
267
100
AcDbEntity
8
0
100
AcDbLine
10
253.29750000000007
20
89.197499999999991
30
0
11
259.79750000000007
21
89.197499999999991
31
0
0
LINE
5
268
100
AcDbEntity
8
0
100
AcDbLine
10
260.79750000000007
20
83.697499999999977
30
0
11
259.79750000000007
21
83.697499999999977
31
0
0
LINE
5
269
100
AcDbEntity
8
0
100
AcDbLine
10
256.54750000000007
20
89.197499999999991
30
0
11
254.79750000000007
21
89.197499999999991
31
0
0
LINE
5
270
100
AcDbEntity
8
0
100
AcDbLine
10
259.79750000000007
20
89.197499999999991
30
0
11
259.79750000000007
21
77.197499999999977
31
0
0
LINE
5
271
100
AcDbEntity
8
0
100
AcDbLine
10
258.29750000000007
20
92.697499999999991
30
0
11
258.29750000000007
21
89.197499999999991
31
0
0
LINE
5
272
100
AcDbEntity
8
0
100
AcDbLine
10
253.29750000000007
20
83.697499999999977
30
0
11
259.79750000000007
21
83.697499999999977
31
0
0
LINE
5
273
100
AcDbEntity
8
0
100
AcDbLine
10
253.29750000000007
20
80.697499999999977
30
0
11
259.79750000000007
21
80.697499999999977
31
0
0
LINE
5
274
100
AcDbEntity
8
0
100
AcDbLine
10
253.29750000000007
20
83.197499999999977
30
0
11
253.29750000000007
21
89.197499999999991
31
0
0
LINE
5
275
100
AcDbEntity
8
0
100
AcDbLine
10
253.29750000000007
20
80.697499999999977
30
0
11
252.29750000000007
21
80.697499999999977
31
0
0
LINE
5
276
100
AcDbEntity
8
0
100
AcDbLine
10
252.29750000000007
20
83.697499999999977
30
0
11
252.29750000000007
21
80.697499999999977
31
0
0
LINE
5
277
100
AcDbEntity
8
0
100
AcDbLine
10
259.79750000000007
20
80.697499999999977
30
0
11
260.79750000000007
21
80.697499999999977
31
0
0
LINE
5
278
100
AcDbEntity
8
0
100
AcDbLine
10
254.79750000000007
20
89.197499999999991
30
0
11
254.79750000000007
21
92.697499999999991
31
0
0
LINE
5
279
100
AcDbEntity
8
0
100
AcDbLine
10
253.29750000000007
20
77.197499999999977
30
0
11
253.29750000000007
21
80.697499999999977
31
0
0
LINE
5
280
100
AcDbEntity
8
0
100
AcDbLine
10
253.29750000000007
20
83.697499999999977
30
0
11
252.29750000000007
21
83.697499999999977
31
0
0
LINE
5
281
100
AcDbEntity
8
0
100
AcDbLine
10
229.29750000000007
20
78.947499999999977
30
0
11
253.29750000000007
21
78.947499999999977
31
0
0
LINE
5
282
100
AcDbEntity
8
0
100
AcDbLine
10
235.79750000000004
20
89.197499999999991
30
0
11
235.79750000000004
21
88.197499999999991
31
0
0
LINE
5
283
100
AcDbEntity
8
0
100
AcDbLine
10
235.79750000000004
20
88.197499999999991
30
0
11
253.29750000000007
21
88.197499999999991
31
0
0
LINE
5
284
100
AcDbEntity
8
0
100
AcDbLine
10
226.74749999999995
20
64.147499999999994
30
0
11
250.74749999999995
21
64.147499999999994
31
0
0
LINE
5
285
100
AcDbEntity
8
0
100
AcDbLine
10
257.745
20
71.144999999999996
30
0
11
243.74999999999997
21
71.144999999999996
31
0
0
LINE
5
286
100
AcDbEntity
8
0
100
AcDbLine
10
243.74999999999997
20
71.144999999999996
30
0
11
243.74999999999997
21
57.149999999999999
31
0
0
LINE
5
287
100
AcDbEntity
8
0
100
AcDbLine
10
243.74999999999997
20
57.149999999999999
30
0
11
257.745
21
57.149999999999999
31
0
0
LINE
5
288
100
AcDbEntity
8
0
100
AcDbLine
10
257.745
20
57.149999999999999
30
0
11
257.745
21
71.144999999999996
31
0
0
LINE
5
289
100
AcDbEntity
8
0
100
AcDbLine
10
257.745
20
71.144999999999996
30
0
11
243.74999999999997
21
57.149999999999999
31
0
0
LINE
5
290
100
AcDbEntity
8
0
100
AcDbLine
10
243.74999999999997
20
71.144999999999996
30
0
11
257.745
21
57.149999999999999
31
0
0
LINE
5
291
100
AcDbEntity
8
0
100
AcDbLine
10
202.44750000000005
20
26.047499999999985
30
0
11
238.19750000000002
21
26.047499999999992
31
0
0
LINE
5
292
100
AcDbEntity
8
0
100
AcDbLine
10
245.19499999999996
20
33.045000000000002
30
0
11
231.20000000000002
21
33.044999999999966
31
0
0
LINE
5
293
100
AcDbEntity
8
0
100
AcDbLine
10
231.20000000000002
20
33.044999999999966
30
0
11
231.20000000000002
21
19.050000000000004
31
0
0
LINE
5
294
100
AcDbEntity
8
0
100
AcDbLine
10
231.20000000000002
20
19.050000000000004
30
0
11
245.19499999999996
21
19.050000000000004
31
0
0
LINE
5
295
100
AcDbEntity
8
0
100
AcDbLine
10
245.19499999999996
20
19.050000000000004
30
0
11
245.19499999999996
21
33.045000000000002
31
0
0
LINE
5
296
100
AcDbEntity
8
0
100
AcDbLine
10
245.19499999999996
20
33.045000000000002
30
0
11
231.20000000000002
21
19.050000000000004
31
0
0
LINE
5
297
100
AcDbEntity
8
0
100
AcDbLine
10
231.20000000000002
20
33.044999999999966
30
0
11
245.19499999999996
21
19.050000000000004
31
0
0
LINE
5
298
100
AcDbEntity
8
0
100
AcDbLine
10
238.19750000000002
20
26.047499999999992
30
0
11
250.19750000000002
21
26.047499999999992
31
0
0
LINE
5
299
100
AcDbEntity
8
0
100
AcDbLine
10
238.19750000000002
20
26.047499999999992
30
0
11
226.19750000000005
21
26.047499999999992
31
0
0
LINE
5
300
100
AcDbEntity
8
0
100
AcDbLine
10
222.94749999999999
20
32.047499999999999
30
0
11
229.44749999999999
21
32.047499999999999
31
0
0
LINE
5
301
100
AcDbEntity
8
0
100
AcDbLine
10
229.44749999999999
20
23.547499999999985
30
0
11
230.44749999999999
21
23.547499999999985
31
0
0
LINE
5
302
100
AcDbEntity
8
0
100
AcDbLine
10
230.44749999999999
20
23.547499999999985
30
0
11
230.44749999999999
21
26.547499999999982
31
0
0
LINE
5
303
100
AcDbEntity
8
0
100
AcDbLine
10
224.44749999999999
20
35.547499999999992
30
0
11
227.94749999999999
21
35.547499999999992
31
0
0
LINE
5
304
100
AcDbEntity
8
0
100
AcDbLine
10
222.94749999999999
20
23.547499999999985
30
0
11
229.44749999999999
21
23.547499999999985
31
0
0
LINE
5
305
100
AcDbEntity
8
0
100
AcDbLine
10
224.44749999999999
20
32.047499999999999
30
0
11
224.44749999999999
21
35.547499999999992
31
0
0
LINE
5
306
100
AcDbEntity
8
0
100
AcDbLine
10
227.94749999999999
20
35.547499999999992
30
0
11
227.94749999999999
21
32.047499999999999
31
0
0
LINE
5
307
100
AcDbEntity
8
0
100
AcDbLine
10
222.94749999999999
20
26.047499999999985
30
0
11
222.94749999999999
21
32.047499999999999
31
0
0
LINE
5
308
100
AcDbEntity
8
0
100
AcDbLine
10
230.44749999999999
20
26.547499999999982
30
0
11
229.44749999999999
21
26.547499999999982
31
0
0
LINE
5
309
100
AcDbEntity
8
0
100
AcDbLine
10
226.19749999999999
20
32.047499999999999
30
0
11
224.44749999999999
21
32.047499999999999
31
0
0
LINE
5
310
100
AcDbEntity
8
0
100
AcDbLine
10
227.94749999999999
20
35.547499999999992
30
0
11
227.94749999999999
21
32.047499999999999
31
0
0
LINE
5
311
100
AcDbEntity
8
0
100
AcDbLine
10
222.94749999999999
20
26.547499999999992
30
0
11
221.94749999999999
21
26.547499999999992
31
0
0
LINE
5
312
100
AcDbEntity
8
0
100
AcDbLine
10
222.94749999999999
20
26.547499999999992
30
0
11
229.44749999999999
21
26.547499999999992
31
0
0
LINE
5
313
100
AcDbEntity
8
0
100
AcDbLine
10
222.94749999999999
20
26.047499999999985
30
0
11
222.94749999999999
21
32.047499999999999
31
0
0
LINE
5
314
100
AcDbEntity
8
0
100
AcDbLine
10
222.94749999999999
20
20.047499999999985
30
0
11
222.94749999999999
21
23.547499999999985
31
0
0
LINE
5
315
100
AcDbEntity
8
0
100
AcDbLine
10
229.44749999999999
20
20.047499999999985
30
0
11
222.94749999999999
21
20.047499999999985
31
0
0
LINE
5
316
100
AcDbEntity
8
0
100
AcDbLine
10
221.94749999999999
20
26.547499999999992
30
0
11
221.94749999999999
21
23.547499999999985
31
0
0
LINE
5
317
100
AcDbEntity
8
0
100
AcDbLine
10
224.44749999999999
20
32.047499999999999
30
0
11
224.44749999999999
21
35.547499999999992
31
0
0
LINE
5
318
100
AcDbEntity
8
0
100
AcDbLine
10
229.44749999999999
20
32.047499999999999
30
0
11
229.44749999999999
21
20.047499999999985
31
0
0
LINE
5
319
100
AcDbEntity
8
0
100
AcDbLine
10
222.94749999999999
20
26.547499999999982
30
0
11
229.44749999999999
21
26.547499999999982
31
0
0
LINE
5
320
100
AcDbEntity
8
0
100
AcDbLine
10
221.94749999999999
20
26.547499999999982
30
0
11
221.94749999999999
21
23.547499999999985
31
0
0
LINE
5
321
100
AcDbEntity
8
0
100
AcDbLine
10
222.94749999999999
20
23.547499999999985
30
0
11
221.94749999999999
21
23.547499999999985
31
0
0
LINE
5
322
100
AcDbEntity
8
0
100
AcDbLine
10
222.94749999999999
20
32.047499999999999
30
0
11
229.44749999999999
21
32.047499999999999
31
0
0
LINE
5
323
100
AcDbEntity
8
0
100
AcDbLine
10
222.94749999999999
20
26.547499999999982
30
0
11
221.94749999999999
21
26.547499999999982
31
0
0
LINE
5
324
100
AcDbEntity
8
0
100
AcDbLine
10
222.94749999999999
20
23.547499999999985
30
0
11
229.44749999999999
21
23.547499999999985
31
0
0
LINE
5
325
100
AcDbEntity
8
0
100
AcDbLine
10
222.94749999999999
20
20.047499999999985
30
0
11
222.94749999999999
21
23.547499999999985
31
0
0
LINE
5
326
100
AcDbEntity
8
0
100
AcDbLine
10
226.19749999999999
20
32.047499999999999
30
0
11
224.44749999999999
21
32.047499999999999
31
0
0
LINE
5
327
100
AcDbEntity
8
0
100
AcDbLine
10
229.44749999999999
20
23.547499999999985
30
0
11
230.44749999999999
21
23.547499999999985
31
0
0
LINE
5
328
100
AcDbEntity
8
0
100
AcDbLine
10
222.94749999999999
20
23.547499999999985
30
0
11
221.94749999999999
21
23.547499999999985
31
0
0
LINE
5
329
100
AcDbEntity
8
0
100
AcDbLine
10
230.44749999999999
20
23.547499999999985
30
0
11
230.44749999999999
21
26.547499999999992
31
0
0
LINE
5
330
100
AcDbEntity
8
0
100
AcDbLine
10
222.94749999999999
20
26.047499999999985
30
0
11
221.2475
21
26.047499999999985
31
0
0
LINE
5
331
100
AcDbEntity
8
0
100
AcDbLine
10
229.44749999999999
20
32.047499999999999
30
0
11
229.44749999999999
21
20.047499999999985
31
0
0
LINE
5
332
100
AcDbEntity
8
0
100
AcDbLine
10
230.44749999999999
20
26.547499999999992
30
0
11
229.44749999999999
21
26.547499999999992
31
0
0
LINE
5
333
100
AcDbEntity
8
0
100
AcDbLine
10
229.44749999999999
20
20.047499999999985
30
0
11
222.94749999999999
21
20.047499999999985
31
0
0
LINE
5
334
100
AcDbEntity
8
0
100
AcDbLine
10
224.44749999999999
20
35.547499999999992
30
0
11
227.94749999999999
21
35.547499999999992
31
0
0
LINE
5
335
100
AcDbEntity
8
0
100
AcDbLine
10
253.44750000000002
20
32.047499999999985
30
0
11
253.44750000000002
21
20.047499999999978
31
0
0
LINE
5
336
100
AcDbEntity
8
0
100
AcDbLine
10
253.44750000000002
20
32.047499999999957
30
0
11
253.44750000000002
21
20.047499999999946
31
0
0
LINE
5
337
100
AcDbEntity
8
0
100
AcDbLine
10
248.44750000000002
20
35.547499999999985
30
0
11
251.94750000000002
21
35.547499999999985
31
0
0
LINE
5
338
100
AcDbEntity
8
0
100
AcDbLine
10
245.94750000000002
20
26.547499999999982
30
0
11
245.94750000000002
21
23.547499999999943
31
0
0
LINE
5
339
100
AcDbEntity
8
0
100
AcDbLine
10
248.44750000000002
20
32.047499999999957
30
0
11
248.44750000000002
21
35.547499999999957
31
0
0
LINE
5
340
100
AcDbEntity
8
0
100
AcDbLine
10
248.44750000000002
20
32.047499999999985
30
0
11
248.44750000000002
21
35.547499999999985
31
0
0
LINE
5
341
100
AcDbEntity
8
0
100
AcDbLine
10
246.94750000000002
20
26.047499999999943
30
0
11
245.2475
21
26.047499999999975
31
0
0
LINE
5
342
100
AcDbEntity
8
0
100
AcDbLine
10
253.44750000000002
20
23.547499999999975
30
0
11
254.44750000000002
21
23.547499999999975
31
0
0
LINE
5
343
100
AcDbEntity
8
0
100
AcDbLine
10
253.44750000000002
20
23.547499999999975
30
0
11
254.44750000000002
21
23.547499999999975
31
0
0
LINE
5
344
100
AcDbEntity
8
0
100
AcDbLine
10
250.19750000000002
20
32.047499999999985
30
0
11
248.44750000000002
21
32.047499999999985
31
0
0
LINE
5
345
100
AcDbEntity
8
0
100
AcDbLine
10
251.94750000000002
20
35.547499999999985
30
0
11
251.94750000000002
21
32.047499999999985
31
0
0
LINE
5
346
100
AcDbEntity
8
0
100
AcDbLine
10
254.44750000000002
20
26.547499999999982
30
0
11
253.44750000000002
21
26.547500000000014
31
0
0
LINE
5
347
100
AcDbEntity
8
0
100
AcDbLine
10
246.94750000000002
20
20.047499999999946
30
0
11
246.94750000000002
21
23.547499999999943
31
0
0
LINE
5
348
100
AcDbEntity
8
0
100
AcDbLine
10
246.94750000000002
20
26.547499999999971
30
0
11
245.94750000000002
21
26.547499999999971
31
0
0
LINE
5
349
100
AcDbEntity
8
0
100
AcDbLine
10
246.94750000000002
20
23.547499999999943
30
0
11
245.94750000000002
21
23.547499999999943
31
0
0
LINE
5
350
100
AcDbEntity
8
0
100
AcDbLine
10
250.19750000000002
20
32.047499999999957
30
0
11
248.44750000000002
21
32.047499999999957
31
0
0
LINE
5
351
100
AcDbEntity
8
0
100
AcDbLine
10
251.94750000000002
20
35.547499999999957
30
0
11
251.94750000000002
21
32.047499999999957
31
0
0
LINE
5
352
100
AcDbEntity
8
0
100
AcDbLine
10
246.94750000000002
20
26.047499999999975
30
0
11
246.94750000000002
21
32.047499999999985
31
0
0
LINE
5
353
100
AcDbEntity
8
0
100
AcDbLine
10
254.44750000000002
20
23.547499999999975
30
0
11
254.44750000000002
21
26.547499999999978
31
0
0
LINE
5
354
100
AcDbEntity
8
0
100
AcDbLine
10
246.94750000000002
20
23.547499999999943
30
0
11
253.44750000000002
21
23.547499999999975
31
0
0
LINE
5
355
100
AcDbEntity
8
0
100
AcDbLine
10
246.94750000000002
20
32.047499999999957
30
0
11
253.44750000000002
21
32.047499999999957
31
0
0
LINE
5
356
100
AcDbEntity
8
0
100
AcDbLine
10
246.94750000000002
20
23.547499999999975
30
0
11
245.94750000000002
21
23.547499999999975
31
0
0
LINE
5
357
100
AcDbEntity
8
0
100
AcDbLine
10
254.44750000000002
20
23.547499999999975
30
0
11
254.44750000000002
21
26.547499999999982
31
0
0
LINE
5
358
100
AcDbEntity
8
0
100
AcDbLine
10
246.94750000000002
20
32.047499999999985
30
0
11
253.44750000000002
21
32.047499999999985
31
0
0
LINE
5
359
100
AcDbEntity
8
0
100
AcDbLine
10
246.94750000000002
20
23.547499999999975
30
0
11
253.44750000000002
21
23.547499999999975
31
0
0
LINE
5
360
100
AcDbEntity
8
0
100
AcDbLine
10
246.94750000000002
20
26.047499999999943
30
0
11
246.94750000000002
21
32.047499999999957
31
0
0
LINE
5
361
100
AcDbEntity
8
0
100
AcDbLine
10
253.44750000000002
20
20.047499999999978
30
0
11
246.94750000000002
21
20.047499999999978
31
0
0
LINE
5
362
100
AcDbEntity
8
0
100
AcDbLine
10
245.94750000000002
20
26.547499999999971
30
0
11
245.94750000000002
21
23.547499999999975
31
0
0
LINE
5
363
100
AcDbEntity
8
0
100
AcDbLine
10
246.94750000000002
20
26.547499999999982
30
0
11
253.44750000000002
21
26.547500000000014
31
0
0
LINE
5
364
100
AcDbEntity
8
0
100
AcDbLine
10
254.44750000000002
20
26.547499999999978
30
0
11
253.44750000000002
21
26.547499999999971
31
0
0
LINE
5
365
100
AcDbEntity
8
0
100
AcDbLine
10
253.44750000000002
20
20.047499999999946
30
0
11
246.94750000000002
21
20.047499999999946
31
0
0
LINE
5
366
100
AcDbEntity
8
0
100
AcDbLine
10
246.94750000000002
20
26.547499999999971
30
0
11
253.44750000000002
21
26.547499999999971
31
0
0
LINE
5
367
100
AcDbEntity
8
0
100
AcDbLine
10
248.44750000000002
20
35.547499999999957
30
0
11
251.94750000000002
21
35.547499999999957
31
0
0
LINE
5
368
100
AcDbEntity
8
0
100
AcDbLine
10
246.94750000000002
20
26.547499999999982
30
0
11
245.94750000000002
21
26.547499999999982
31
0
0
LINE
5
369
100
AcDbEntity
8
0
100
AcDbLine
10
246.94750000000002
20
20.047499999999978
30
0
11
246.94750000000002
21
23.547499999999975
31
0
0
LINE
5
370
100
AcDbEntity
8
0
100
AcDbLine
10
202.44749999999999
20
26.047499999999999
30
0
11
238.19749999999999
21
26.047499999999999
31
0
0
LINE
5
371
100
AcDbEntity
8
0
100
AcDbLine
10
211.64750000000001
20
45.097499999999982
30
0
11
242.39750000000001
21
45.097499999999982
31
0
0
LINE
5
372
100
AcDbEntity
8
0
100
AcDbLine
10
249.39499999999998
20
52.094999999999985
30
0
11
235.40000000000003
21
52.094999999999985
31
0
0
LINE
5
373
100
AcDbEntity
8
0
100
AcDbLine
10
235.40000000000003
20
52.094999999999985
30
0
11
235.40000000000003
21
38.099999999999987
31
0
0
LINE
5
374
100
AcDbEntity
8
0
100
AcDbLine
10
235.40000000000003
20
38.099999999999987
30
0
11
249.39499999999998
21
38.099999999999987
31
0
0
LINE
5
375
100
AcDbEntity
8
0
100
AcDbLine
10
249.39499999999998
20
38.099999999999987
30
0
11
249.39499999999998
21
52.094999999999985
31
0
0
LINE
5
376
100
AcDbEntity
8
0
100
AcDbLine
10
249.39499999999998
20
52.094999999999985
30
0
11
235.40000000000003
21
38.099999999999987
31
0
0
LINE
5
377
100
AcDbEntity
8
0
100
AcDbLine
10
235.40000000000003
20
52.094999999999985
30
0
11
249.39499999999998
21
38.099999999999987
31
0
0
LINE
5
378
100
AcDbEntity
8
0
100
AcDbLine
10
242.39750000000001
20
45.097499999999982
30
0
11
230.39750000000001
21
45.097499999999982
31
0
0
LINE
5
379
100
AcDbEntity
8
0
100
AcDbLine
10
242.39750000000001
20
45.097499999999982
30
0
11
254.39750000000001
21
45.097499999999982
31
0
0
LINE
5
380
100
AcDbEntity
8
0
100
AcDbLine
10
233.64750000000001
20
42.597499999999975
30
0
11
234.64750000000004
21
42.597499999999975
31
0
0
LINE
5
381
100
AcDbEntity
8
0
100
AcDbLine
10
226.14750000000001
20
45.597499999999982
30
0
11
226.14750000000001
21
42.597499999999975
31
0
0
LINE
5
382
100
AcDbEntity
8
0
100
AcDbLine
10
227.14750000000004
20
51.097499999999989
30
0
11
233.64750000000001
21
51.097499999999989
31
0
0
LINE
5
383
100
AcDbEntity
8
0
100
AcDbLine
10
227.14750000000004
20
45.597499999999975
30
0
11
226.14750000000001
21
45.597499999999975
31
0
0
LINE
5
384
100
AcDbEntity
8
0
100
AcDbLine
10
233.64750000000001
20
51.097499999999989
30
0
11
233.64750000000001
21
39.097499999999975
31
0
0
LINE
5
385
100
AcDbEntity
8
0
100
AcDbLine
10
233.64750000000001
20
51.097499999999989
30
0
11
233.64750000000001
21
39.097499999999982
31
0
0
LINE
5
386
100
AcDbEntity
8
0
100
AcDbLine
10
234.64750000000004
20
42.597499999999975
30
0
11
234.64750000000004
21
45.597499999999975
31
0
0
LINE
5
387
100
AcDbEntity
8
0
100
AcDbLine
10
226.14750000000001
20
45.597499999999975
30
0
11
226.14750000000001
21
42.597499999999975
31
0
0
LINE
5
388
100
AcDbEntity
8
0
100
AcDbLine
10
234.64750000000004
20
42.597499999999975
30
0
11
234.64750000000004
21
45.597499999999982
31
0
0
LINE
5
389
100
AcDbEntity
8
0
100
AcDbLine
10
232.14750000000004
20
54.597499999999989
30
0
11
232.14750000000004
21
51.097499999999989
31
0
0
LINE
5
390
100
AcDbEntity
8
0
100
AcDbLine
10
227.14750000000004
20
45.097499999999975
30
0
11
230.39750000000001
21
45.097499999999975
31
0
0
LINE
5
391
100
AcDbEntity
8
0
100
AcDbLine
10
230.39750000000001
20
51.097499999999989
30
0
11
228.64750000000001
21
51.097499999999989
31
0
0
LINE
5
392
100
AcDbEntity
8
0
100
AcDbLine
10
227.14750000000004
20
45.597499999999975
30
0
11
233.64750000000001
21
45.597499999999975
31
0
0
LINE
5
393
100
AcDbEntity
8
0
100
AcDbLine
10
227.14750000000004
20
42.597499999999975
30
0
11
233.64750000000001
21
42.597499999999975
31
0
0
LINE
5
394
100
AcDbEntity
8
0
100
AcDbLine
10
227.14750000000004
20
42.597499999999975
30
0
11
233.64750000000001
21
42.597499999999975
31
0
0
LINE
5
395
100
AcDbEntity
8
0
100
AcDbLine
10
227.14750000000004
20
39.097499999999982
30
0
11
227.14750000000004
21
42.597499999999975
31
0
0
LINE
5
396
100
AcDbEntity
8
0
100
AcDbLine
10
228.64750000000001
20
54.597499999999989
30
0
11
232.14750000000004
21
54.597499999999989
31
0
0
LINE
5
397
100
AcDbEntity
8
0
100
AcDbLine
10
233.64750000000001
20
39.097499999999982
30
0
11
227.14750000000004
21
39.097499999999982
31
0
0
LINE
5
398
100
AcDbEntity
8
0
100
AcDbLine
10
227.14750000000004
20
45.097499999999975
30
0
11
227.14750000000004
21
51.097499999999989
31
0
0
LINE
5
399
100
AcDbEntity
8
0
100
AcDbLine
10
234.64750000000004
20
45.597499999999982
30
0
11
233.64750000000001
21
45.597499999999982
31
0
0
LINE
5
400
100
AcDbEntity
8
0
100
AcDbLine
10
228.64750000000001
20
51.097499999999989
30
0
11
228.64750000000001
21
54.597499999999989
31
0
0
LINE
5
401
100
AcDbEntity
8
0
100
AcDbLine
10
234.64750000000004
20
45.597499999999975
30
0
11
233.64750000000001
21
45.597499999999975
31
0
0
LINE
5
402
100
AcDbEntity
8
0
100
AcDbLine
10
228.64750000000001
20
51.097499999999989
30
0
11
228.64750000000001
21
54.597499999999989
31
0
0
LINE
5
403
100
AcDbEntity
8
0
100
AcDbLine
10
227.14750000000004
20
45.097499999999975
30
0
11
227.14750000000004
21
51.097499999999989
31
0
0
LINE
5
404
100
AcDbEntity
8
0
100
AcDbLine
10
228.64750000000001
20
54.597499999999989
30
0
11
232.14750000000004
21
54.597499999999989
31
0
0
LINE
5
405
100
AcDbEntity
8
0
100
AcDbLine
10
230.39750000000001
20
51.097499999999989
30
0
11
228.64750000000001
21
51.097499999999989
31
0
0
LINE
5
406
100
AcDbEntity
8
0
100
AcDbLine
10
227.14750000000004
20
45.597499999999982
30
0
11
233.64750000000001
21
45.597499999999982
31
0
0
LINE
5
407
100
AcDbEntity
8
0
100
AcDbLine
10
227.14750000000004
20
45.597499999999982
30
0
11
226.14750000000001
21
45.597499999999982
31
0
0
LINE
5
408
100
AcDbEntity
8
0
100
AcDbLine
10
227.14750000000004
20
42.597499999999975
30
0
11
226.14750000000001
21
42.597499999999975
31
0
0
LINE
5
409
100
AcDbEntity
8
0
100
AcDbLine
10
227.14750000000004
20
39.097499999999975
30
0
11
227.14750000000004
21
42.597499999999975
31
0
0
LINE
5
410
100
AcDbEntity
8
0
100
AcDbLine
10
233.64750000000001
20
39.097499999999975
30
0
11
227.14750000000004
21
39.097499999999975
31
0
0
LINE
5
411
100
AcDbEntity
8
0
100
AcDbLine
10
232.14750000000004
20
54.597499999999989
30
0
11
232.14750000000004
21
51.097499999999989
31
0
0
LINE
5
412
100
AcDbEntity
8
0
100
AcDbLine
10
227.14750000000004
20
51.097499999999989
30
0
11
233.64750000000001
21
51.097499999999989
31
0
0
LINE
5
413
100
AcDbEntity
8
0
100
AcDbLine
10
227.14750000000004
20
42.597499999999975
30
0
11
226.14750000000001
21
42.597499999999975
31
0
0
LINE
5
414
100
AcDbEntity
8
0
100
AcDbLine
10
233.64750000000001
20
42.597499999999975
30
0
11
234.64750000000004
21
42.597499999999975
31
0
0
LINE
5
415
100
AcDbEntity
8
0
100
AcDbLine
10
257.64749999999998
20
42.597499999999968
30
0
11
258.64750000000004
21
42.597499999999968
31
0
0
LINE
5
416
100
AcDbEntity
8
0
100
AcDbLine
10
250.14749999999998
20
45.597499999999975
30
0
11
250.14749999999998
21
42.597499999999968
31
0
0
LINE
5
417
100
AcDbEntity
8
0
100
AcDbLine
10
251.14750000000001
20
51.097499999999982
30
0
11
257.64749999999998
21
51.097499999999982
31
0
0
LINE
5
418
100
AcDbEntity
8
0
100
AcDbLine
10
251.14750000000001
20
45.597499999999968
30
0
11
250.14749999999998
21
45.597499999999968
31
0
0
LINE
5
419
100
AcDbEntity
8
0
100
AcDbLine
10
257.64749999999998
20
51.097499999999982
30
0
11
257.64749999999998
21
39.097499999999968
31
0
0
LINE
5
420
100
AcDbEntity
8
0
100
AcDbLine
10
257.64749999999998
20
51.097499999999982
30
0
11
257.64749999999998
21
39.097499999999968
31
0
0
LINE
5
421
100
AcDbEntity
8
0
100
AcDbLine
10
258.64750000000004
20
42.597499999999968
30
0
11
258.64750000000004
21
45.597499999999968
31
0
0
LINE
5
422
100
AcDbEntity
8
0
100
AcDbLine
10
250.14749999999998
20
45.597499999999968
30
0
11
250.14749999999998
21
42.597499999999968
31
0
0
LINE
5
423
100
AcDbEntity
8
0
100
AcDbLine
10
258.64750000000004
20
42.597499999999968
30
0
11
258.64750000000004
21
45.597499999999975
31
0
0
LINE
5
424
100
AcDbEntity
8
0
100
AcDbLine
10
256.14750000000004
20
54.597499999999982
30
0
11
256.14750000000004
21
51.097499999999982
31
0
0
LINE
5
425
100
AcDbEntity
8
0
100
AcDbLine
10
251.14750000000001
20
45.097499999999968
30
0
11
254.39750000000001
21
45.097499999999968
31
0
0
LINE
5
426
100
AcDbEntity
8
0
100
AcDbLine
10
254.39750000000001
20
51.097499999999982
30
0
11
252.64749999999998
21
51.097499999999982
31
0
0
LINE
5
427
100
AcDbEntity
8
0
100
AcDbLine
10
251.14750000000001
20
45.597499999999968
30
0
11
257.64749999999998
21
45.597499999999968
31
0
0
LINE
5
428
100
AcDbEntity
8
0
100
AcDbLine
10
251.14750000000001
20
42.597499999999968
30
0
11
257.64749999999998
21
42.597499999999968
31
0
0
LINE
5
429
100
AcDbEntity
8
0
100
AcDbLine
10
251.14750000000001
20
42.597499999999968
30
0
11
257.64749999999998
21
42.597499999999968
31
0
0
LINE
5
430
100
AcDbEntity
8
0
100
AcDbLine
10
251.14750000000001
20
39.097499999999968
30
0
11
251.14750000000001
21
42.597499999999968
31
0
0
LINE
5
431
100
AcDbEntity
8
0
100
AcDbLine
10
252.64749999999998
20
54.597499999999982
30
0
11
256.14750000000004
21
54.597499999999982
31
0
0
LINE
5
432
100
AcDbEntity
8
0
100
AcDbLine
10
257.64749999999998
20
39.097499999999968
30
0
11
251.14750000000001
21
39.097499999999968
31
0
0
LINE
5
433
100
AcDbEntity
8
0
100
AcDbLine
10
251.14750000000001
20
45.097499999999968
30
0
11
251.14750000000001
21
51.097499999999982
31
0
0
LINE
5
434
100
AcDbEntity
8
0
100
AcDbLine
10
258.64750000000004
20
45.597499999999975
30
0
11
257.64749999999998
21
45.597499999999975
31
0
0
LINE
5
435
100
AcDbEntity
8
0
100
AcDbLine
10
252.64749999999998
20
51.097499999999982
30
0
11
252.64749999999998
21
54.597499999999982
31
0
0
LINE
5
436
100
AcDbEntity
8
0
100
AcDbLine
10
258.64750000000004
20
45.597499999999968
30
0
11
257.64749999999998
21
45.597499999999968
31
0
0
LINE
5
437
100
AcDbEntity
8
0
100
AcDbLine
10
252.64749999999998
20
51.097499999999982
30
0
11
252.64749999999998
21
54.597499999999982
31
0
0
LINE
5
438
100
AcDbEntity
8
0
100
AcDbLine
10
251.14750000000001
20
45.097499999999968
30
0
11
251.14750000000001
21
51.097499999999982
31
0
0
LINE
5
439
100
AcDbEntity
8
0
100
AcDbLine
10
252.64749999999998
20
54.597499999999982
30
0
11
256.14750000000004
21
54.597499999999982
31
0
0
LINE
5
440
100
AcDbEntity
8
0
100
AcDbLine
10
254.39750000000001
20
51.097499999999982
30
0
11
252.64749999999998
21
51.097499999999982
31
0
0
LINE
5
441
100
AcDbEntity
8
0
100
AcDbLine
10
251.14750000000001
20
45.597499999999975
30
0
11
257.64749999999998
21
45.597499999999975
31
0
0
LINE
5
442
100
AcDbEntity
8
0
100
AcDbLine
10
251.14750000000001
20
45.597499999999975
30
0
11
250.14749999999998
21
45.597499999999975
31
0
0
LINE
5
443
100
AcDbEntity
8
0
100
AcDbLine
10
251.14750000000001
20
42.597499999999968
30
0
11
250.14749999999998
21
42.597499999999968
31
0
0
LINE
5
444
100
AcDbEntity
8
0
100
AcDbLine
10
251.14750000000001
20
39.097499999999968
30
0
11
251.14750000000001
21
42.597499999999968
31
0
0
LINE
5
445
100
AcDbEntity
8
0
100
AcDbLine
10
257.64749999999998
20
39.097499999999968
30
0
11
251.14750000000001
21
39.097499999999968
31
0
0
LINE
5
446
100
AcDbEntity
8
0
100
AcDbLine
10
256.14750000000004
20
54.597499999999982
30
0
11
256.14750000000004
21
51.097499999999982
31
0
0
LINE
5
447
100
AcDbEntity
8
0
100
AcDbLine
10
251.14750000000001
20
51.097499999999982
30
0
11
257.64749999999998
21
51.097499999999982
31
0
0
LINE
5
448
100
AcDbEntity
8
0
100
AcDbLine
10
251.14750000000001
20
42.597499999999968
30
0
11
250.14749999999998
21
42.597499999999968
31
0
0
LINE
5
449
100
AcDbEntity
8
0
100
AcDbLine
10
257.64749999999998
20
42.597499999999968
30
0
11
258.64750000000004
21
42.597499999999968
31
0
0
LINE
5
450
100
AcDbEntity
8
0
100
AcDbLine
10
6.9974999999999996
20
83.197500000000005
30
0
11
-12.052499999999998
21
83.197500000000005
31
0
0
LINE
5
451
100
AcDbEntity
8
0
100
AcDbLine
10
-12.052499999999998
20
83.197500000000005
30
0
11
-12.052499999999998
21
102.2475
31
0
0
LINE
5
452
100
AcDbEntity
8
0
100
AcDbLine
10
-5.0550000000000006
20
90.195000000000007
30
0
11
-19.049999999999997
21
90.195000000000007
31
0
0
LINE
5
453
100
AcDbEntity
8
0
100
AcDbLine
10
-19.049999999999997
20
90.195000000000007
30
0
11
-19.049999999999997
21
76.200000000000017
31
0
0
LINE
5
454
100
AcDbEntity
8
0
100
AcDbLine
10
-19.049999999999997
20
76.200000000000017
30
0
11
-5.0550000000000006
21
76.200000000000017
31
0
0
LINE
5
455
100
AcDbEntity
8
0
100
AcDbLine
10
-5.0550000000000006
20
76.200000000000017
30
0
11
-5.0550000000000006
21
90.195000000000007
31
0
0
LINE
5
456
100
AcDbEntity
8
0
100
AcDbLine
10
-5.0550000000000006
20
90.195000000000007
30
0
11
-19.049999999999997
21
76.200000000000017
31
0
0
LINE
5
457
100
AcDbEntity
8
0
100
AcDbLine
10
-19.049999999999997
20
90.195000000000007
30
0
11
-5.0550000000000006
21
76.200000000000017
31
0
0
LWPOLYLINE
5
458
100
AcDbEntity
8
0
100
AcDbPolyline
90
4
70
1
43
0.0
10
4.4408920985006262e-15
20
76.200000000000017
10
4.4408920985006262e-15
20
90.195000000000007
10
13.995000000000001
20
90.195000000000007
10
13.995000000000001
20
76.200000000000017
0
LWPOLYLINE
5
459
100
AcDbEntity
8
0
100
AcDbPolyline
90
4
70
1
43
0.0
10
19.050000000000008
20
76.200000000000017
10
19.050000000000008
20
90.195000000000007
10
33.045000000000002
20
90.195000000000007
10
33.045000000000002
20
76.200000000000017
0
LWPOLYLINE
5
460
100
AcDbEntity
8
0
100
AcDbPolyline
90
4
70
1
43
0.0
10
38.100000000000009
20
76.200000000000017
10
38.100000000000009
20
90.195000000000007
10
52.094999999999999
20
90.195000000000007
10
52.094999999999999
20
76.200000000000017
0
LWPOLYLINE
5
461
100
AcDbEntity
8
0
100
AcDbPolyline
90
4
70
1
43
0.0
10
57.15000000000002
20
76.200000000000017
10
57.15000000000002
20
90.195000000000007
10
71.14500000000001
20
90.195000000000007
10
71.14500000000001
20
76.200000000000017
0
LWPOLYLINE
5
462
100
AcDbEntity
8
0
100
AcDbPolyline
90
4
70
1
43
0.0
10
76.200000000000031
20
76.200000000000017
10
76.200000000000031
20
90.195000000000007
10
90.195000000000022
20
90.195000000000007
10
90.195000000000022
20
76.200000000000017
0
LWPOLYLINE
5
463
100
AcDbEntity
8
0
100
AcDbPolyline
90
4
70
1
43
0.0
10
95.250000000000028
20
76.200000000000017
10
95.250000000000028
20
90.195000000000007
10
109.24500000000002
20
90.195000000000007
10
109.24500000000002
20
76.200000000000017
0
LWPOLYLINE
5
464
100
AcDbEntity
8
0
100
AcDbPolyline
90
4
70
1
43
0.0
10
114.30000000000001
20
76.200000000000017
10
114.30000000000001
20
90.195000000000007
10
128.29500000000002
20
90.195000000000007
10
128.29500000000002
20
76.200000000000017
0
LWPOLYLINE
5
465
100
AcDbEntity
8
0
100
AcDbPolyline
90
4
70
1
43
0.0
10
133.35000000000002
20
76.200000000000017
10
133.35000000000002
20
90.195000000000007
10
147.34500000000003
20
90.195000000000007
10
147.34500000000003
20
76.200000000000017
0
LWPOLYLINE
5
466
100
AcDbEntity
8
0
100
AcDbPolyline
90
4
70
1
43
0.0
10
152.40000000000003
20
76.200000000000017
10
152.40000000000003
20
90.195000000000007
10
166.39500000000001
20
90.195000000000007
10
166.39500000000001
20
76.200000000000017
0
LWPOLYLINE
5
467
100
AcDbEntity
8
0
100
AcDbPolyline
90
4
70
1
43
0.0
10
171.45000000000005
20
76.200000000000017
10
171.45000000000005
20
90.195000000000007
10
185.44500000000002
20
90.195000000000007
10
185.44500000000002
20
76.200000000000017
0
LWPOLYLINE
5
468
100
AcDbEntity
8
0
100
AcDbPolyline
90
4
70
1
43
0.0
10
190.5
20
76.200000000000017
10
190.5
20
90.195000000000007
10
204.495
20
90.195000000000007
10
204.495
20
76.200000000000017
0
LWPOLYLINE
5
469
100
AcDbEntity
8
0
100
AcDbPolyline
90
4
70
1
43
0.0
10
209.55000000000001
20
76.200000000000017
10
209.55000000000001
20
90.195000000000007
10
223.54500000000002
20
90.195000000000007
10
223.54500000000002
20
76.200000000000017
0
LWPOLYLINE
5
470
100
AcDbEntity
8
0
100
AcDbPolyline
90
4
70
1
43
0.0
10
-19.049999999999997
20
95.25
10
-19.049999999999997
20
109.245
10
-5.0550000000000006
20
109.245
10
-5.0550000000000006
20
95.25
0
LWPOLYLINE
5
471
100
AcDbEntity
8
0
100
AcDbPolyline
90
4
70
1
43
0.0
10
19.050000000000008
20
95.25
10
19.050000000000008
20
109.245
10
33.045000000000002
20
109.245
10
33.045000000000002
20
95.25
0
LWPOLYLINE
5
472
100
AcDbEntity
8
0
100
AcDbPolyline
90
4
70
1
43
0.0
10
38.100000000000009
20
95.25
10
38.100000000000009
20
109.245
10
52.094999999999999
20
109.245
10
52.094999999999999
20
95.25
0
LWPOLYLINE
5
473
100
AcDbEntity
8
0
100
AcDbPolyline
90
4
70
1
43
0.0
10
57.15000000000002
20
95.25
10
57.15000000000002
20
109.245
10
71.14500000000001
20
109.245
10
71.14500000000001
20
95.25
0
LINE
5
474
100
AcDbEntity
8
0
100
AcDbLine
10
190.5
20
109.245
30
0
11
190.5
21
95.25
31
0
0
LINE
5
475
100
AcDbEntity
8
0
100
AcDbLine
10
190.5
20
95.25
30
0
11
204.495
21
95.25
31
0
0
LINE
5
476
100
AcDbEntity
8
0
100
AcDbLine
10
204.495
20
95.25
30
0
11
204.495
21
109.245
31
0
0
LINE
5
477
100
AcDbEntity
8
0
100
AcDbLine
10
204.495
20
109.245
30
0
11
190.5
21
109.245
31
0
0
LWPOLYLINE
5
478
100
AcDbEntity
8
0
100
AcDbPolyline
90
4
70
1
43
0.0
10
209.55000000000001
20
95.25
10
209.55000000000001
20
109.245
10
223.54500000000002
20
109.245
10
223.54500000000002
20
95.25
0
LINE
5
479
100
AcDbEntity
8
0
100
AcDbLine
10
216.54750000000001
20
102.2475
30
0
11
235.59750000000003
21
102.2475
31
0
0
LINE
5
480
100
AcDbEntity
8
0
100
AcDbLine
10
242.59500000000003
20
109.245
30
0
11
228.59999999999999
21
109.245
31
0
0
LINE
5
481
100
AcDbEntity
8
0
100
AcDbLine
10
228.59999999999999
20
109.245
30
0
11
228.59999999999999
21
95.25
31
0
0
LINE
5
482
100
AcDbEntity
8
0
100
AcDbLine
10
228.59999999999999
20
95.25
30
0
11
242.59500000000003
21
95.25
31
0
0
LINE
5
483
100
AcDbEntity
8
0
100
AcDbLine
10
242.59500000000003
20
95.25
30
0
11
242.59500000000003
21
109.245
31
0
0
LINE
5
484
100
AcDbEntity
8
0
100
AcDbLine
10
242.59500000000003
20
109.245
30
0
11
228.59999999999999
21
95.25
31
0
0
LINE
5
485
100
AcDbEntity
8
0
100
AcDbLine
10
228.59999999999999
20
109.245
30
0
11
242.59500000000003
21
95.25
31
0
0
LINE
5
486
100
AcDbEntity
8
0
100
AcDbLine
10
115.79500000000002
20
13.994999999999999
30
0
11
101.80000000000001
21
13.994999999999999
31
0
0
LINE
5
487
100
AcDbEntity
8
0
100
AcDbLine
10
101.80000000000001
20
13.994999999999999
30
0
11
101.80000000000001
21
-2.2204460492503131e-15
31
0
0
LINE
5
488
100
AcDbEntity
8
0
100
AcDbLine
10
101.80000000000001
20
-2.2204460492503131e-15
30
0
11
115.79500000000002
21
-2.2204460492503131e-15
31
0
0
LINE
5
489
100
AcDbEntity
8
0
100
AcDbLine
10
115.79500000000002
20
-2.2204460492503131e-15
30
0
11
115.79500000000002
21
13.994999999999999
31
0
0
LINE
5
490
100
AcDbEntity
8
0
100
AcDbLine
10
115.79500000000002
20
13.994999999999999
30
0
11
101.80000000000001
21
-2.2204460492503131e-15
31
0
0
LINE
5
491
100
AcDbEntity
8
0
100
AcDbLine
10
101.80000000000001
20
13.994999999999999
30
0
11
115.79500000000002
21
-2.2204460492503131e-15
31
0
0
LINE
5
492
100
AcDbEntity
8
0
100
AcDbLine
10
108.79750000000001
20
6.9975000000000085
30
0
11
158.79750000000001
21
6.9975000000000085
31
0
0
LINE
5
493
100
AcDbEntity
8
0
100
AcDbLine
10
108.79750000000001
20
6.9975000000000085
30
0
11
58.797500000000007
21
6.9975000000000058
31
0
0
LINE
5
494
100
AcDbEntity
8
0
100
AcDbLine
10
62.047499999999999
20
12.997499999999992
30
0
11
62.047499999999999
21
0.99749999999998074
31
0
0
LINE
5
495
100
AcDbEntity
8
0
100
AcDbLine
10
63.047499999999992
20
4.497499999999981
30
0
11
63.047499999999992
21
7.4974999999999703
31
0
0
LINE
5
496
100
AcDbEntity
8
0
100
AcDbLine
10
62.047499999999999
20
12.997499999999986
30
0
11
62.047499999999999
21
0.99749999999997518
31
0
0
LINE
5
497
100
AcDbEntity
8
0
100
AcDbLine
10
54.547499999999999
20
7.4974999999999801
30
0
11
54.547499999999999
21
4.497499999999973
31
0
0
LINE
5
498
100
AcDbEntity
8
0
100
AcDbLine
10
62.047499999999999
20
4.497499999999981
30
0
11
63.047499999999992
21
4.497499999999981
31
0
0
LINE
5
499
100
AcDbEntity
8
0
100
AcDbLine
10
63.047499999999992
20
4.497499999999973
30
0
11
63.047499999999992
21
7.4974999999999801
31
0
0
LINE
5
500
100
AcDbEntity
8
0
100
AcDbLine
10
55.547499999999992
20
4.497499999999973
30
0
11
62.047499999999999
21
4.497499999999981
31
0
0
LINE
5
501
100
AcDbEntity
8
0
100
AcDbLine
10
54.547499999999999
20
7.4974999999999703
30
0
11
54.547499999999999
21
4.497499999999973
31
0
0
LINE
5
502
100
AcDbEntity
8
0
100
AcDbLine
10
55.547499999999992
20
0.99749999999997518
30
0
11
55.547499999999992
21
4.497499999999973
31
0
0
LINE
5
503
100
AcDbEntity
8
0
100
AcDbLine
10
55.547499999999992
20
4.497499999999973
30
0
11
54.547499999999999
21
4.497499999999973
31
0
0
LINE
5
504
100
AcDbEntity
8
0
100
AcDbLine
10
55.547499999999992
20
7.4974999999999703
30
0
11
62.047499999999999
21
7.4974999999999703
31
0
0
LINE
5
505
100
AcDbEntity
8
0
100
AcDbLine
10
62.047499999999999
20
0.99749999999997518
30
0
11
55.547499999999992
21
0.99749999999997518
31
0
0
LINE
5
506
100
AcDbEntity
8
0
100
AcDbLine
10
55.547499999999992
20
0.99749999999997674
30
0
11
55.547499999999992
21
4.497499999999973
31
0
0
LINE
5
507
100
AcDbEntity
8
0
100
AcDbLine
10
62.047499999999999
20
0.99749999999998074
30
0
11
55.547499999999992
21
0.99749999999997674
31
0
0
LINE
5
508
100
AcDbEntity
8
0
100
AcDbLine
10
62.047499999999999
20
4.497499999999973
30
0
11
63.047499999999992
21
4.497499999999973
31
0
0
LINE
5
509
100
AcDbEntity
8
0
100
AcDbLine
10
55.547499999999992
20
4.497499999999973
30
0
11
62.047499999999999
21
4.497499999999973
31
0
0
LINE
5
510
100
AcDbEntity
8
0
100
AcDbLine
10
55.547499999999992
20
7.4974999999999703
30
0
11
54.547499999999999
21
7.4974999999999703
31
0
0
LINE
5
511
100
AcDbEntity
8
0
100
AcDbLine
10
57.047499999999999
20
16.497499999999981
30
0
11
60.547499999999992
21
16.497499999999981
31
0
0
LINE
5
512
100
AcDbEntity
8
0
100
AcDbLine
10
55.547499999999992
20
6.9974999999999703
30
0
11
58.797499999999999
21
6.997499999999973
31
0
0
LINE
5
513
100
AcDbEntity
8
0
100
AcDbLine
10
55.547499999999992
20
6.9974999999999703
30
0
11
55.547499999999992
21
12.997499999999981
31
0
0
LINE
5
514
100
AcDbEntity
8
0
100
AcDbLine
10
55.547499999999992
20
12.997499999999981
30
0
11
62.047499999999999
21
12.997499999999992
31
0
0
LINE
5
515
100
AcDbEntity
8
0
100
AcDbLine
10
55.547499999999992
20
7.4974999999999801
30
0
11
62.047499999999999
21
7.4974999999999801
31
0
0
LINE
5
516
100
AcDbEntity
8
0
100
AcDbLine
10
60.547499999999992
20
16.497499999999985
30
0
11
60.547499999999992
21
12.997499999999981
31
0
0
LINE
5
517
100
AcDbEntity
8
0
100
AcDbLine
10
63.047499999999992
20
7.4974999999999703
30
0
11
62.047499999999999
21
7.4974999999999703
31
0
0
LINE
5
518
100
AcDbEntity
8
0
100
AcDbLine
10
55.547499999999992
20
6.9974999999999739
30
0
11
55.547499999999992
21
12.997499999999986
31
0
0
LINE
5
519
100
AcDbEntity
8
0
100
AcDbLine
10
55.547499999999992
20
12.997499999999986
30
0
11
62.047499999999999
21
12.997499999999986
31
0
0
LINE
5
520
100
AcDbEntity
8
0
100
AcDbLine
10
57.047499999999999
20
16.497499999999981
30
0
11
60.547499999999992
21
16.497499999999985
31
0
0
LINE
5
521
100
AcDbEntity
8
0
100
AcDbLine
10
63.047499999999992
20
7.4974999999999801
30
0
11
62.047499999999999
21
7.4974999999999801
31
0
0
LINE
5
522
100
AcDbEntity
8
0
100
AcDbLine
10
58.797499999999999
20
12.997499999999986
30
0
11
57.047499999999999
21
12.997499999999986
31
0
0
LINE
5
523
100
AcDbEntity
8
0
100
AcDbLine
10
57.047499999999999
20
12.997499999999986
30
0
11
57.047499999999999
21
16.497499999999981
31
0
0
LINE
5
524
100
AcDbEntity
8
0
100
AcDbLine
10
57.047499999999999
20
12.997499999999986
30
0
11
57.047499999999999
21
16.497499999999981
31
0
0
LINE
5
525
100
AcDbEntity
8
0
100
AcDbLine
10
58.797499999999999
20
12.997499999999986
30
0
11
57.047499999999999
21
12.997499999999986
31
0
0
LINE
5
526
100
AcDbEntity
8
0
100
AcDbLine
10
60.547499999999992
20
16.497499999999981
30
0
11
60.547499999999992
21
12.997499999999986
31
0
0
LINE
5
527
100
AcDbEntity
8
0
100
AcDbLine
10
55.547499999999992
20
4.497499999999973
30
0
11
54.547499999999999
21
4.497499999999973
31
0
0
LINE
5
528
100
AcDbEntity
8
0
100
AcDbLine
10
55.547499999999992
20
7.4974999999999801
30
0
11
54.547499999999999
21
7.4974999999999801
31
0
0
LINE
5
529
100
AcDbEntity
8
0
100
AcDbLine
10
155.54749999999996
20
6.9974999999999987
30
0
11
158.79749999999999
21
6.9974999999999898
31
0
0
LINE
5
530
100
AcDbEntity
8
0
100
AcDbLine
10
158.79749999999999
20
12.997500000000013
30
0
11
157.04749999999996
21
12.997500000000013
31
0
0
LINE
5
531
100
AcDbEntity
8
0
100
AcDbLine
10
155.54749999999996
20
7.4974999999999987
30
0
11
154.54749999999996
21
7.4974999999999987
31
0
0
LINE
5
532
100
AcDbEntity
8
0
100
AcDbLine
10
155.54749999999996
20
7.4975000000000058
30
0
11
162.04749999999996
21
7.4975000000000058
31
0
0
LINE
5
533
100
AcDbEntity
8
0
100
AcDbLine
10
160.54749999999999
20
16.497500000000009
30
0
11
160.54749999999999
21
12.997500000000013
31
0
0
LINE
5
534
100
AcDbEntity
8
0
100
AcDbLine
10
157.04749999999996
20
12.997500000000013
30
0
11
157.04749999999996
21
16.497500000000009
31
0
0
LINE
5
535
100
AcDbEntity
8
0
100
AcDbLine
10
157.04749999999996
20
16.497500000000009
30
0
11
160.54749999999999
21
16.497500000000009
31
0
0
LINE
5
536
100
AcDbEntity
8
0
100
AcDbLine
10
155.54749999999996
20
0.99750000000000227
30
0
11
155.54749999999996
21
4.4974999999999987
31
0
0
LINE
5
537
100
AcDbEntity
8
0
100
AcDbLine
10
155.54749999999996
20
6.9974999999999987
30
0
11
155.54749999999996
21
12.997500000000013
31
0
0
LINE
5
538
100
AcDbEntity
8
0
100
AcDbLine
10
163.04749999999999
20
7.4974999999999987
30
0
11
162.04749999999996
21
7.4974999999999987
31
0
0
LINE
5
539
100
AcDbEntity
8
0
100
AcDbLine
10
155.54749999999996
20
12.997500000000013
30
0
11
162.04749999999996
21
12.997500000000013
31
0
0
LINE
5
540
100
AcDbEntity
8
0
100
AcDbLine
10
163.04749999999999
20
7.4975000000000058
30
0
11
162.04749999999996
21
7.4975000000000058
31
0
0
LINE
5
541
100
AcDbEntity
8
0
100
AcDbLine
10
155.54749999999996
20
12.997500000000013
30
0
11
162.04749999999996
21
12.997500000000013
31
0
0
LINE
5
542
100
AcDbEntity
8
0
100
AcDbLine
10
158.79749999999999
20
12.997500000000013
30
0
11
157.04749999999996
21
12.997500000000013
31
0
0
LINE
5
543
100
AcDbEntity
8
0
100
AcDbLine
10
162.04749999999996
20
12.997500000000013
30
0
11
162.04749999999996
21
0.99750000000000227
31
0
0
LINE
5
544
100
AcDbEntity
8
0
100
AcDbLine
10
163.04749999999999
20
4.4974999999999978
30
0
11
163.04749999999999
21
7.4974999999999987
31
0
0
LINE
5
545
100
AcDbEntity
8
0
100
AcDbLine
10
154.54749999999996
20
7.4974999999999987
30
0
11
154.54749999999996
21
4.4974999999999987
31
0
0
LINE
5
546
100
AcDbEntity
8
0
100
AcDbLine
10
162.04749999999996
20
12.997500000000013
30
0
11
162.04749999999996
21
0.99750000000000227
31
0
0
LINE
5
547
100
AcDbEntity
8
0
100
AcDbLine
10
163.04749999999999
20
4.4974999999999987
30
0
11
163.04749999999999
21
7.4975000000000058
31
0
0
LINE
5
548
100
AcDbEntity
8
0
100
AcDbLine
10
155.54749999999996
20
7.4975000000000058
30
0
11
154.54749999999996
21
7.4975000000000058
31
0
0
LINE
5
549
100
AcDbEntity
8
0
100
AcDbLine
10
157.04749999999996
20
16.497500000000009
30
0
11
160.54749999999999
21
16.497500000000009
31
0
0
LINE
5
550
100
AcDbEntity
8
0
100
AcDbLine
10
155.54749999999996
20
7.4974999999999987
30
0
11
162.04749999999996
21
7.4974999999999987
31
0
0
LINE
5
551
100
AcDbEntity
8
0
100
AcDbLine
10
155.54749999999996
20
4.4974999999999987
30
0
11
154.54749999999996
21
4.4974999999999987
31
0
0
LINE
5
552
100
AcDbEntity
8
0
100
AcDbLine
10
162.04749999999996
20
4.4974999999999978
30
0
11
163.04749999999999
21
4.4974999999999978
31
0
0
LINE
5
553
100
AcDbEntity
8
0
100
AcDbLine
10
157.04749999999996
20
12.997500000000013
30
0
11
157.04749999999996
21
16.497500000000009
31
0
0
LINE
5
554
100
AcDbEntity
8
0
100
AcDbLine
10
155.54749999999996
20
4.4974999999999987
30
0
11
154.54749999999996
21
4.4974999999999987
31
0
0
LINE
5
555
100
AcDbEntity
8
0
100
AcDbLine
10
162.04749999999996
20
4.4974999999999987
30
0
11
163.04749999999999
21
4.4974999999999987
31
0
0
LINE
5
556
100
AcDbEntity
8
0
100
AcDbLine
10
162.04749999999996
20
0.99750000000000227
30
0
11
155.54749999999996
21
0.99750000000000227
31
0
0
LINE
5
557
100
AcDbEntity
8
0
100
AcDbLine
10
155.54749999999996
20
0.99750000000000227
30
0
11
155.54749999999996
21
4.4974999999999987
31
0
0
LINE
5
558
100
AcDbEntity
8
0
100
AcDbLine
10
160.54749999999999
20
16.497500000000009
30
0
11
160.54749999999999
21
12.997500000000013
31
0
0
LINE
5
559
100
AcDbEntity
8
0
100
AcDbLine
10
154.54749999999996
20
7.4975000000000058
30
0
11
154.54749999999996
21
4.4974999999999987
31
0
0
LINE
5
560
100
AcDbEntity
8
0
100
AcDbLine
10
155.54749999999996
20
6.9974999999999987
30
0
11
155.54749999999996
21
12.997500000000013
31
0
0
LINE
5
561
100
AcDbEntity
8
0
100
AcDbLine
10
162.04749999999996
20
0.99750000000000227
30
0
11
155.54749999999996
21
0.99750000000000227
31
0
0
LINE
5
562
100
AcDbEntity
8
0
100
AcDbLine
10
155.54749999999996
20
4.4974999999999987
30
0
11
162.04749999999996
21
4.4974999999999987
31
0
0
LINE
5
563
100
AcDbEntity
8
0
100
AcDbLine
10
155.54749999999996
20
4.4974999999999987
30
0
11
162.04749999999996
21
4.4974999999999978
31
0
0
LWPOLYLINE
5
564
100
AcDbEntity
8
0
100
AcDbPolyline
90
8
70
1
43
0.0
10
155.54749999999999
20
6.997499999999981
10
62.047499999999999
20
6.997499999999981
10
62.047499999999985
20
9.497499999999981
10
155.54749999999996
20
9.497499999999981
10
155.54749999999996
20
6.997499999999981
10
63.047499999999992
20
6.997499999999981
10
63.047499999999985
20
4.497499999999981
10
155.54749999999996
20
4.497499999999981
0
LINE
5
565
100
AcDbEntity
8
0
100
AcDbLine
10
58.797500000000007
20
6.9975000000000058
30
0
11
37.797500000000007
21
6.9975000000000005
31
0
0
LINE
5
566
100
AcDbEntity
8
0
100
AcDbLine
10
44.795000000000009
20
13.994999999999997
30
0
11
30.800000000000011
21
13.994999999999997
31
0
0
LINE
5
567
100
AcDbEntity
8
0
100
AcDbLine
10
30.800000000000011
20
13.994999999999997
30
0
11
30.800000000000011
21
0
31
0
0
LINE
5
568
100
AcDbEntity
8
0
100
AcDbLine
10
30.800000000000011
20
0
30
0
11
44.795000000000009
21
0
31
0
0
LINE
5
569
100
AcDbEntity
8
0
100
AcDbLine
10
44.795000000000009
20
0
30
0
11
44.795000000000009
21
13.994999999999997
31
0
0
LINE
5
570
100
AcDbEntity
8
0
100
AcDbLine
10
44.795000000000009
20
13.994999999999997
30
0
11
30.800000000000011
21
0
31
0
0
LINE
5
571
100
AcDbEntity
8
0
100
AcDbLine
10
30.800000000000011
20
13.994999999999997
30
0
11
44.795000000000009
21
0
31
0
0
LINE
5
572
100
AcDbEntity
8
0
100
AcDbLine
10
158.79749999999999
20
6.9974999999999898
30
0
11
179.79749999999999
21
6.9974999999999898
31
0
0
LINE
5
573
100
AcDbEntity
8
0
100
AcDbLine
10
186.79499999999996
20
13.994999999999997
30
0
11
172.80000000000001
21
13.994999999999997
31
0
0
LINE
5
574
100
AcDbEntity
8
0
100
AcDbLine
10
172.80000000000001
20
13.994999999999997
30
0
11
172.80000000000001
21
0
31
0
0
LINE
5
575
100
AcDbEntity
8
0
100
AcDbLine
10
172.80000000000001
20
0
30
0
11
186.79499999999996
21
0
31
0
0
LINE
5
576
100
AcDbEntity
8
0
100
AcDbLine
10
186.79499999999996
20
0
30
0
11
186.79499999999996
21
13.994999999999997
31
0
0
LINE
5
577
100
AcDbEntity
8
0
100
AcDbLine
10
186.79499999999996
20
13.994999999999997
30
0
11
172.80000000000001
21
0
31
0
0
LINE
5
578
100
AcDbEntity
8
0
100
AcDbLine
10
172.80000000000001
20
13.994999999999997
30
0
11
186.79499999999996
21
0
31
0
0
LINE
5
579
100
AcDbEntity
8
0
100
AcDbLine
10
37.797500000000007
20
6.9975000000000005
30
0
11
14.047500000000015
21
6.9974999999999996
31
0
0
LINE
5
580
100
AcDbEntity
8
0
100
AcDbLine
10
21.045000000000016
20
13.994999999999999
30
0
11
7.0500000000000167
21
13.994999999999999
31
0
0
LINE
5
581
100
AcDbEntity
8
0
100
AcDbLine
10
7.0500000000000167
20
13.994999999999999
30
0
11
7.0500000000000167
21
-2.2204460492503131e-15
31
0
0
LINE
5
582
100
AcDbEntity
8
0
100
AcDbLine
10
7.0500000000000167
20
-2.2204460492503131e-15
30
0
11
21.045000000000016
21
-2.2204460492503131e-15
31
0
0
LINE
5
583
100
AcDbEntity
8
0
100
AcDbLine
10
21.045000000000016
20
-2.2204460492503131e-15
30
0
11
21.045000000000016
21
13.994999999999999
31
0
0
LINE
5
584
100
AcDbEntity
8
0
100
AcDbLine
10
21.045000000000016
20
13.994999999999999
30
0
11
7.0500000000000167
21
-2.2204460492503131e-15
31
0
0
LINE
5
585
100
AcDbEntity
8
0
100
AcDbLine
10
7.0500000000000167
20
13.994999999999999
30
0
11
21.045000000000016
21
-2.2204460492503131e-15
31
0
0
LINE
5
586
100
AcDbEntity
8
0
100
AcDbLine
10
14.047500000000015
20
6.9974999999999996
30
0
11
-9.7024999999999846
21
6.9974999999999987
31
0
0
LINE
5
587
100
AcDbEntity
8
0
100
AcDbLine
10
-2.7049999999999863
20
13.994999999999997
30
0
11
-16.699999999999985
21
13.994999999999997
31
0
0
LINE
5
588
100
AcDbEntity
8
0
100
AcDbLine
10
-16.699999999999985
20
13.994999999999997
30
0
11
-16.699999999999985
21
0
31
0
0
LINE
5
589
100
AcDbEntity
8
0
100
AcDbLine
10
-16.699999999999985
20
0
30
0
11
-2.7049999999999863
21
0
31
0
0
LINE
5
590
100
AcDbEntity
8
0
100
AcDbLine
10
-2.7049999999999863
20
0
30
0
11
-2.7049999999999863
21
13.994999999999997
31
0
0
LINE
5
591
100
AcDbEntity
8
0
100
AcDbLine
10
-2.7049999999999863
20
13.994999999999997
30
0
11
-16.699999999999985
21
0
31
0
0
LINE
5
592
100
AcDbEntity
8
0
100
AcDbLine
10
-16.699999999999985
20
13.994999999999997
30
0
11
-2.7049999999999863
21
0
31
0
0
LINE
5
593
100
AcDbEntity
8
0
100
AcDbLine
10
179.79749999999999
20
6.9974999999999898
30
0
11
203.54749999999999
21
6.9974999999999898
31
0
0
LINE
5
594
100
AcDbEntity
8
0
100
AcDbLine
10
210.54499999999996
20
13.994999999999997
30
0
11
196.55000000000001
21
13.994999999999997
31
0
0
LINE
5
595
100
AcDbEntity
8
0
100
AcDbLine
10
196.55000000000001
20
13.994999999999997
30
0
11
196.55000000000001
21
0
31
0
0
LINE
5
596
100
AcDbEntity
8
0
100
AcDbLine
10
196.55000000000001
20
0
30
0
11
210.54499999999996
21
0
31
0
0
LINE
5
597
100
AcDbEntity
8
0
100
AcDbLine
10
210.54499999999996
20
0
30
0
11
210.54499999999996
21
13.994999999999997
31
0
0
LINE
5
598
100
AcDbEntity
8
0
100
AcDbLine
10
210.54499999999996
20
13.994999999999997
30
0
11
196.55000000000001
21
0
31
0
0
LINE
5
599
100
AcDbEntity
8
0
100
AcDbLine
10
196.55000000000001
20
13.994999999999997
30
0
11
210.54499999999996
21
0
31
0
0
LINE
5
600
100
AcDbEntity
8
0
100
AcDbLine
10
203.54749999999999
20
6.9974999999999898
30
0
11
227.29749999999999
21
6.9974999999999898
31
0
0
LINE
5
601
100
AcDbEntity
8
0
100
AcDbLine
10
234.29499999999996
20
13.994999999999997
30
0
11
220.30000000000001
21
13.994999999999997
31
0
0
LINE
5
602
100
AcDbEntity
8
0
100
AcDbLine
10
220.30000000000001
20
13.994999999999997
30
0
11
220.30000000000001
21
0
31
0
0
LINE
5
603
100
AcDbEntity
8
0
100
AcDbLine
10
220.30000000000001
20
0
30
0
11
234.29499999999996
21
0
31
0
0
LINE
5
604
100
AcDbEntity
8
0
100
AcDbLine
10
234.29499999999996
20
0
30
0
11
234.29499999999996
21
13.994999999999997
31
0
0
LINE
5
605
100
AcDbEntity
8
0
100
AcDbLine
10
234.29499999999996
20
13.994999999999997
30
0
11
220.30000000000001
21
0
31
0
0
LINE
5
606
100
AcDbEntity
8
0
100
AcDbLine
10
220.30000000000001
20
13.994999999999997
30
0
11
234.29499999999996
21
0
31
0
0
LINE
5
607
100
AcDbEntity
8
0
100
AcDbLine
10
227.29749999999999
20
6.9974999999999898
30
0
11
251.04749999999999
21
6.9975000000000094
31
0
0
LINE
5
608
100
AcDbEntity
8
0
100
AcDbLine
10
258.04499999999996
20
13.994999999999999
30
0
11
244.05000000000001
21
13.994999999999999
31
0
0
LINE
5
609
100
AcDbEntity
8
0
100
AcDbLine
10
244.05000000000001
20
13.994999999999999
30
0
11
244.05000000000001
21
-2.2204460492503131e-15
31
0
0
LINE
5
610
100
AcDbEntity
8
0
100
AcDbLine
10
244.05000000000001
20
-2.2204460492503131e-15
30
0
11
258.04499999999996
21
-2.2204460492503131e-15
31
0
0
LINE
5
611
100
AcDbEntity
8
0
100
AcDbLine
10
258.04499999999996
20
-2.2204460492503131e-15
30
0
11
258.04499999999996
21
13.994999999999999
31
0
0
LINE
5
612
100
AcDbEntity
8
0
100
AcDbLine
10
258.04499999999996
20
13.994999999999999
30
0
11
244.05000000000001
21
-2.2204460492503131e-15
31
0
0
LINE
5
613
100
AcDbEntity
8
0
100
AcDbLine
10
244.05000000000001
20
13.994999999999999
30
0
11
258.04499999999996
21
-2.2204460492503131e-15
31
0
0
LINE
5
614
100
AcDbEntity
8
0
100
AcDbLine
10
235.59750000000003
20
102.2475
30
0
11
254.64750000000004
21
102.2475
31
0
0
LINE
5
615
100
AcDbEntity
8
0
100
AcDbLine
10
261.64500000000004
20
109.245
30
0
11
247.65000000000001
21
109.245
31
0
0
LINE
5
616
100
AcDbEntity
8
0
100
AcDbLine
10
247.65000000000001
20
109.245
30
0
11
247.65000000000001
21
95.25
31
0
0
LINE
5
617
100
AcDbEntity
8
0
100
AcDbLine
10
247.65000000000001
20
95.25
30
0
11
261.64500000000004
21
95.25
31
0
0
LINE
5
618
100
AcDbEntity
8
0
100
AcDbLine
10
261.64500000000004
20
95.25
30
0
11
261.64500000000004
21
109.245
31
0
0
LINE
5
619
100
AcDbEntity
8
0
100
AcDbLine
10
261.64500000000004
20
109.245
30
0
11
247.65000000000001
21
95.25
31
0
0
LINE
5
620
100
AcDbEntity
8
0
100
AcDbLine
10
247.65000000000001
20
109.245
30
0
11
261.64500000000004
21
95.25
31
0
0
LINE
5
621
100
AcDbEntity
8
0
100
AcDbLine
10
-81.300000000000011
20
26.047499999999999
30
0
11
-86.355000000000004
21
26.047499999999999
31
0
0
LINE
5
622
100
AcDbEntity
8
0
100
AcDbLine
10
-83.827500000000015
20
26.047499999999999
30
0
11
-83.827500000000015
21
6.9974999999999987
31
0
0
LINE
5
623
100
AcDbEntity
8
0
100
AcDbLine
10
-76.830000000000013
20
13.994999999999997
30
0
11
-90.825000000000017
21
13.994999999999997
31
0
0
LINE
5
624
100
AcDbEntity
8
0
100
AcDbLine
10
-90.825000000000017
20
13.994999999999997
30
0
11
-90.825000000000017
21
0
31
0
0
LINE
5
625
100
AcDbEntity
8
0
100
AcDbLine
10
-90.825000000000017
20
0
30
0
11
-76.830000000000013
21
0
31
0
0
LINE
5
626
100
AcDbEntity
8
0
100
AcDbLine
10
-76.830000000000013
20
0
30
0
11
-76.830000000000013
21
13.994999999999997
31
0
0
LINE
5
627
100
AcDbEntity
8
0
100
AcDbLine
10
-76.830000000000013
20
13.994999999999997
30
0
11
-90.825000000000017
21
0
31
0
0
LINE
5
628
100
AcDbEntity
8
0
100
AcDbLine
10
-90.825000000000017
20
13.994999999999997
30
0
11
-76.830000000000013
21
0
31
0
0
LINE
5
629
100
AcDbEntity
8
0
100
AcDbLine
10
-83.827500000000015
20
6.9974999999999987
30
0
11
-71.827500000000015
21
6.9974999999999987
31
0
0
LINE
5
630
100
AcDbEntity
8
0
100
AcDbLine
10
-83.827500000000015
20
6.9974999999999987
30
0
11
-95.827500000000015
21
6.9974999999999987
31
0
0
LINE
5
631
100
AcDbEntity
8
0
100
AcDbLine
10
-94.077500000000001
20
16.497500000000006
30
0
11
-94.077500000000001
21
12.997500000000009
31
0
0
LINE
5
632
100
AcDbEntity
8
0
100
AcDbLine
10
-99.077500000000001
20
6.9974999999999943
30
0
11
-95.827499999999986
21
6.9974999999999943
31
0
0
LINE
5
633
100
AcDbEntity
8
0
100
AcDbLine
10
-97.577500000000001
20
12.997500000000009
30
0
11
-97.577500000000001
21
16.497500000000006
31
0
0
LINE
5
634
100
AcDbEntity
8
0
100
AcDbLine
10
-99.077500000000001
20
0.99749999999999783
30
0
11
-99.077500000000001
21
4.4974999999999943
31
0
0
LINE
5
635
100
AcDbEntity
8
0
100
AcDbLine
10
-95.827499999999986
20
12.997500000000009
30
0
11
-97.577500000000001
21
12.997500000000009
31
0
0
LINE
5
636
100
AcDbEntity
8
0
100
AcDbLine
10
-97.577500000000001
20
16.497500000000006
30
0
11
-94.077500000000001
21
16.497500000000006
31
0
0
LINE
5
637
100
AcDbEntity
8
0
100
AcDbLine
10
-94.077500000000001
20
16.497500000000006
30
0
11
-94.077500000000001
21
12.997500000000009
31
0
0
LINE
5
638
100
AcDbEntity
8
0
100
AcDbLine
10
-99.077500000000001
20
7.4975000000000014
30
0
11
-92.577500000000001
21
7.4975000000000014
31
0
0
LINE
5
639
100
AcDbEntity
8
0
100
AcDbLine
10
-92.577500000000001
20
4.4974999999999943
30
0
11
-91.577500000000001
21
4.4974999999999943
31
0
0
LINE
5
640
100
AcDbEntity
8
0
100
AcDbLine
10
-97.577500000000001
20
16.497500000000006
30
0
11
-94.077500000000001
21
16.497500000000006
31
0
0
LINE
5
641
100
AcDbEntity
8
0
100
AcDbLine
10
-99.077500000000001
20
6.9974999999999943
30
0
11
-99.077500000000001
21
12.997500000000009
31
0
0
LINE
5
642
100
AcDbEntity
8
0
100
AcDbLine
10
-97.577500000000001
20
12.997500000000009
30
0
11
-97.577500000000001
21
16.497500000000006
31
0
0
LINE
5
643
100
AcDbEntity
8
0
100
AcDbLine
10
-99.077500000000001
20
7.4975000000000014
30
0
11
-100.0775
21
7.4975000000000014
31
0
0
LINE
5
644
100
AcDbEntity
8
0
100
AcDbLine
10
-91.577500000000001
20
7.4975000000000014
30
0
11
-92.577500000000001
21
7.4975000000000014
31
0
0
LINE
5
645
100
AcDbEntity
8
0
100
AcDbLine
10
-95.827499999999986
20
12.997500000000009
30
0
11
-97.577500000000001
21
12.997500000000009
31
0
0
LINE
5
646
100
AcDbEntity
8
0
100
AcDbLine
10
-99.077500000000001
20
12.997500000000009
30
0
11
-92.577500000000001
21
12.997500000000009
31
0
0
LINE
5
647
100
AcDbEntity
8
0
100
AcDbLine
10
-99.077500000000001
20
6.9974999999999943
30
0
11
-99.077500000000001
21
12.997500000000009
31
0
0
LINE
5
648
100
AcDbEntity
8
0
100
AcDbLine
10
-99.077500000000001
20
7.4975000000000014
30
0
11
-100.0775
21
7.4975000000000014
31
0
0
LINE
5
649
100
AcDbEntity
8
0
100
AcDbLine
10
-91.577500000000001
20
7.4975000000000014
30
0
11
-92.577500000000001
21
7.4975000000000014
31
0
0
LINE
5
650
100
AcDbEntity
8
0
100
AcDbLine
10
-100.0775
20
7.4975000000000014
30
0
11
-100.0775
21
4.4974999999999943
31
0
0
LINE
5
651
100
AcDbEntity
8
0
100
AcDbLine
10
-92.577500000000001
20
12.997500000000009
30
0
11
-92.577500000000001
21
0.99749999999999783
31
0
0
LINE
5
652
100
AcDbEntity
8
0
100
AcDbLine
10
-91.577500000000001
20
4.4974999999999943
30
0
11
-91.577500000000001
21
7.4975000000000014
31
0
0
LINE
5
653
100
AcDbEntity
8
0
100
AcDbLine
10
-92.577500000000001
20
12.997500000000009
30
0
11
-92.577500000000001
21
0.99749999999999783
31
0
0
LINE
5
654
100
AcDbEntity
8
0
100
AcDbLine
10
-91.577500000000001
20
4.4974999999999943
30
0
11
-91.577500000000001
21
7.4975000000000014
31
0
0
LINE
5
655
100
AcDbEntity
8
0
100
AcDbLine
10
-100.0775
20
7.4975000000000014
30
0
11
-100.0775
21
4.4974999999999943
31
0
0
LINE
5
656
100
AcDbEntity
8
0
100
AcDbLine
10
-99.077500000000001
20
4.4974999999999943
30
0
11
-100.0775
21
4.4974999999999943
31
0
0
LINE
5
657
100
AcDbEntity
8
0
100
AcDbLine
10
-99.077500000000001
20
4.4974999999999943
30
0
11
-92.577500000000001
21
4.4974999999999943
31
0
0
LINE
5
658
100
AcDbEntity
8
0
100
AcDbLine
10
-92.577500000000001
20
0.99749999999999783
30
0
11
-99.077500000000001
21
0.99749999999999783
31
0
0
LINE
5
659
100
AcDbEntity
8
0
100
AcDbLine
10
-92.577500000000001
20
4.4974999999999943
30
0
11
-91.577500000000001
21
4.4974999999999943
31
0
0
LINE
5
660
100
AcDbEntity
8
0
100
AcDbLine
10
-99.077500000000001
20
0.99749999999999783
30
0
11
-99.077500000000001
21
4.4974999999999943
31
0
0
LINE
5
661
100
AcDbEntity
8
0
100
AcDbLine
10
-99.077500000000001
20
4.4974999999999943
30
0
11
-92.577500000000001
21
4.4974999999999943
31
0
0
LINE
5
662
100
AcDbEntity
8
0
100
AcDbLine
10
-92.577500000000001
20
0.99749999999999783
30
0
11
-99.077500000000001
21
0.99749999999999783
31
0
0
LINE
5
663
100
AcDbEntity
8
0
100
AcDbLine
10
-99.077500000000001
20
4.4974999999999943
30
0
11
-100.0775
21
4.4974999999999943
31
0
0
LINE
5
664
100
AcDbEntity
8
0
100
AcDbLine
10
-99.077500000000001
20
7.4975000000000014
30
0
11
-92.577500000000001
21
7.4975000000000014
31
0
0
LINE
5
665
100
AcDbEntity
8
0
100
AcDbLine
10
-99.077500000000001
20
12.997500000000009
30
0
11
-92.577500000000001
21
12.997500000000009
31
0
0
LINE
5
666
100
AcDbEntity
8
0
100
AcDbLine
10
-68.577500000000001
20
0.99749999999999583
30
0
11
-75.077500000000001
21
0.99749999999999583
31
0
0
LINE
5
667
100
AcDbEntity
8
0
100
AcDbLine
10
-68.577500000000001
20
4.4974999999999916
30
0
11
-67.577500000000001
21
4.4974999999999916
31
0
0
LINE
5
668
100
AcDbEntity
8
0
100
AcDbLine
10
-75.077500000000001
20
7.4974999999999987
30
0
11
-68.577500000000001
21
7.4974999999999987
31
0
0
LINE
5
669
100
AcDbEntity
8
0
100
AcDbLine
10
-75.077500000000001
20
4.4974999999999916
30
0
11
-68.577500000000001
21
4.4974999999999916
31
0
0
LINE
5
670
100
AcDbEntity
8
0
100
AcDbLine
10
-73.577500000000001
20
16.497500000000002
30
0
11
-70.077500000000001
21
16.497500000000002
31
0
0
LINE
5
671
100
AcDbEntity
8
0
100
AcDbLine
10
-75.077500000000001
20
4.4974999999999916
30
0
11
-76.077500000000001
21
4.4974999999999916
31
0
0
LINE
5
672
100
AcDbEntity
8
0
100
AcDbLine
10
-68.577500000000001
20
0.99749999999999583
30
0
11
-75.077500000000001
21
0.99749999999999583
31
0
0
LINE
5
673
100
AcDbEntity
8
0
100
AcDbLine
10
-75.077500000000001
20
4.4974999999999916
30
0
11
-76.077500000000001
21
4.4974999999999916
31
0
0
LINE
5
674
100
AcDbEntity
8
0
100
AcDbLine
10
-75.077500000000001
20
4.4974999999999916
30
0
11
-68.577500000000001
21
4.4974999999999916
31
0
0
LINE
5
675
100
AcDbEntity
8
0
100
AcDbLine
10
-75.077500000000001
20
0.99749999999999583
30
0
11
-75.077500000000001
21
4.4974999999999916
31
0
0
LINE
5
676
100
AcDbEntity
8
0
100
AcDbLine
10
-75.077500000000001
20
6.9974999999999916
30
0
11
-71.827500000000001
21
6.9974999999999916
31
0
0
LINE
5
677
100
AcDbEntity
8
0
100
AcDbLine
10
-75.077500000000001
20
12.997500000000006
30
0
11
-68.577500000000001
21
12.997500000000006
31
0
0
LINE
5
678
100
AcDbEntity
8
0
100
AcDbLine
10
-70.077500000000001
20
16.497500000000002
30
0
11
-70.077500000000001
21
12.997500000000006
31
0
0
LINE
5
679
100
AcDbEntity
8
0
100
AcDbLine
10
-75.077500000000001
20
7.4974999999999987
30
0
11
-68.577500000000001
21
7.4974999999999987
31
0
0
LINE
5
680
100
AcDbEntity
8
0
100
AcDbLine
10
-76.077500000000001
20
7.4974999999999987
30
0
11
-76.077500000000001
21
4.4974999999999916
31
0
0
LINE
5
681
100
AcDbEntity
8
0
100
AcDbLine
10
-68.577500000000001
20
12.997500000000006
30
0
11
-68.577500000000001
21
0.99749999999999583
31
0
0
LINE
5
682
100
AcDbEntity
8
0
100
AcDbLine
10
-76.077500000000001
20
7.4974999999999987
30
0
11
-76.077500000000001
21
4.4974999999999916
31
0
0
LINE
5
683
100
AcDbEntity
8
0
100
AcDbLine
10
-67.577500000000001
20
4.4974999999999916
30
0
11
-67.577500000000001
21
7.4974999999999987
31
0
0
LINE
5
684
100
AcDbEntity
8
0
100
AcDbLine
10
-68.577500000000001
20
12.997500000000006
30
0
11
-68.577500000000001
21
0.99749999999999583
31
0
0
LINE
5
685
100
AcDbEntity
8
0
100
AcDbLine
10
-67.577500000000001
20
4.4974999999999916
30
0
11
-67.577500000000001
21
7.4974999999999987
31
0
0
LINE
5
686
100
AcDbEntity
8
0
100
AcDbLine
10
-71.827500000000001
20
12.997500000000006
30
0
11
-73.577500000000001
21
12.997500000000006
31
0
0
LINE
5
687
100
AcDbEntity
8
0
100
AcDbLine
10
-71.827500000000001
20
12.997500000000006
30
0
11
-73.577500000000001
21
12.997500000000006
31
0
0
LINE
5
688
100
AcDbEntity
8
0
100
AcDbLine
10
-70.077500000000001
20
16.497500000000002
30
0
11
-70.077500000000001
21
12.997500000000006
31
0
0
LINE
5
689
100
AcDbEntity
8
0
100
AcDbLine
10
-73.577500000000001
20
12.997500000000006
30
0
11
-73.577500000000001
21
16.497500000000002
31
0
0
LINE
5
690
100
AcDbEntity
8
0
100
AcDbLine
10
-68.577500000000001
20
4.4974999999999916
30
0
11
-67.577500000000001
21
4.4974999999999916
31
0
0
LINE
5
691
100
AcDbEntity
8
0
100
AcDbLine
10
-67.577500000000001
20
7.4974999999999987
30
0
11
-68.577500000000001
21
7.4974999999999987
31
0
0
LINE
5
692
100
AcDbEntity
8
0
100
AcDbLine
10
-75.077500000000001
20
12.997500000000006
30
0
11
-68.577500000000001
21
12.997500000000006
31
0
0
LINE
5
693
100
AcDbEntity
8
0
100
AcDbLine
10
-73.577500000000001
20
16.497500000000002
30
0
11
-70.077500000000001
21
16.497500000000002
31
0
0
LINE
5
694
100
AcDbEntity
8
0
100
AcDbLine
10
-75.077500000000001
20
6.9974999999999916
30
0
11
-75.077500000000001
21
12.997500000000006
31
0
0
LINE
5
695
100
AcDbEntity
8
0
100
AcDbLine
10
-67.577500000000001
20
7.4974999999999987
30
0
11
-68.577500000000001
21
7.4974999999999987
31
0
0
LINE
5
696
100
AcDbEntity
8
0
100
AcDbLine
10
-73.577500000000001
20
12.997500000000006
30
0
11
-73.577500000000001
21
16.497500000000002
31
0
0
LINE
5
697
100
AcDbEntity
8
0
100
AcDbLine
10
-75.077500000000001
20
6.9974999999999916
30
0
11
-75.077500000000001
21
12.997500000000006
31
0
0
LINE
5
698
100
AcDbEntity
8
0
100
AcDbLine
10
-75.077500000000001
20
0.99749999999999583
30
0
11
-75.077500000000001
21
4.4974999999999916
31
0
0
LINE
5
699
100
AcDbEntity
8
0
100
AcDbLine
10
-75.077500000000001
20
7.4974999999999987
30
0
11
-76.077500000000001
21
7.4974999999999987
31
0
0
LINE
5
700
100
AcDbEntity
8
0
100
AcDbLine
10
-75.077500000000001
20
7.4974999999999987
30
0
11
-76.077500000000001
21
7.4974999999999987
31
0
0
LINE
5
701
100
AcDbEntity
8
0
100
AcDbLine
10
-55.252500000000005
20
19.050000000000004
30
0
11
-55.252500000000005
21
13.994999999999997
31
0
0
LINE
5
702
100
AcDbEntity
8
0
100
AcDbLine
10
-55.252500000000005
20
16.522500000000001
30
0
11
-36.202500000000001
21
16.522500000000001
31
0
0
LINE
5
703
100
AcDbEntity
8
0
100
AcDbLine
10
-29.205000000000005
20
23.52
30
0
11
-43.200000000000003
21
23.52
31
0
0
LINE
5
704
100
AcDbEntity
8
0
100
AcDbLine
10
-43.200000000000003
20
23.52
30
0
11
-43.200000000000003
21
9.5250000000000021
31
0
0
LINE
5
705
100
AcDbEntity
8
0
100
AcDbLine
10
-43.200000000000003
20
9.5250000000000021
30
0
11
-29.205000000000005
21
9.5250000000000021
31
0
0
LINE
5
706
100
AcDbEntity
8
0
100
AcDbLine
10
-29.205000000000005
20
9.5250000000000021
30
0
11
-29.205000000000005
21
23.52
31
0
0
LINE
5
707
100
AcDbEntity
8
0
100
AcDbLine
10
-29.205000000000005
20
23.52
30
0
11
-43.200000000000003
21
9.5250000000000021
31
0
0
LINE
5
708
100
AcDbEntity
8
0
100
AcDbLine
10
-43.200000000000003
20
23.52
30
0
11
-29.205000000000005
21
9.5250000000000021
31
0
0
LINE
5
709
100
AcDbEntity
8
0
100
AcDbLine
10
-36.202500000000001
20
16.522500000000001
30
0
11
-36.202500000000001
21
28.522499999999997
31
0
0
LINE
5
710
100
AcDbEntity
8
0
100
AcDbLine
10
-36.202500000000001
20
16.522500000000001
30
0
11
-36.202500000000001
21
4.5224999999999982
31
0
0
LINE
5
711
100
AcDbEntity
8
0
100
AcDbLine
10
-36.702499999999986
20
32.772499999999987
30
0
11
-36.702499999999986
21
31.77249999999999
31
0
0
LINE
5
712
100
AcDbEntity
8
0
100
AcDbLine
10
-45.702499999999986
20
26.77249999999999
30
0
11
-45.702499999999986
21
30.272499999999987
31
0
0
LINE
5
713
100
AcDbEntity
8
0
100
AcDbLine
10
-45.702499999999986
20
26.77249999999999
30
0
11
-45.702499999999986
21
30.272499999999987
31
0
0
LINE
5
714
100
AcDbEntity
8
0
100
AcDbLine
10
-36.702499999999986
20
25.272499999999987
30
0
11
-36.702499999999986
21
31.77249999999999
31
0
0
LINE
5
715
100
AcDbEntity
8
0
100
AcDbLine
10
-42.202499999999993
20
31.77249999999999
30
0
11
-30.202499999999979
21
31.77249999999999
31
0
0
LINE
5
716
100
AcDbEntity
8
0
100
AcDbLine
10
-33.702499999999979
20
31.77249999999999
30
0
11
-33.702499999999979
21
32.772499999999987
31
0
0
LINE
5
717
100
AcDbEntity
8
0
100
AcDbLine
10
-33.702499999999979
20
25.272499999999987
30
0
11
-33.702499999999979
21
24.27249999999999
31
0
0
LINE
5
718
100
AcDbEntity
8
0
100
AcDbLine
10
-36.702499999999986
20
25.272499999999987
30
0
11
-36.702499999999986
21
24.27249999999999
31
0
0
LINE
5
719
100
AcDbEntity
8
0
100
AcDbLine
10
-42.202499999999993
20
25.272499999999969
30
0
11
-42.202499999999993
21
31.77249999999999
31
0
0
LINE
5
720
100
AcDbEntity
8
0
100
AcDbLine
10
-30.202499999999979
20
31.77249999999999
30
0
11
-30.202499999999979
21
25.272499999999987
31
0
0
LINE
5
721
100
AcDbEntity
8
0
100
AcDbLine
10
-30.202499999999979
20
25.272499999999987
30
0
11
-33.702499999999979
21
25.272499999999987
31
0
0
LINE
5
722
100
AcDbEntity
8
0
100
AcDbLine
10
-30.202499999999979
20
25.272499999999987
30
0
11
-33.702499999999979
21
25.272499999999987
31
0
0
LINE
5
723
100
AcDbEntity
8
0
100
AcDbLine
10
-36.702499999999986
20
25.272499999999987
30
0
11
-36.702499999999986
21
24.27249999999999
31
0
0
LINE
5
724
100
AcDbEntity
8
0
100
AcDbLine
10
-33.702499999999979
20
25.272499999999987
30
0
11
-33.702499999999979
21
24.27249999999999
31
0
0
LINE
5
725
100
AcDbEntity
8
0
100
AcDbLine
10
-33.702499999999979
20
25.272499999999987
30
0
11
-33.702499999999979
21
31.77249999999999
31
0
0
LINE
5
726
100
AcDbEntity
8
0
100
AcDbLine
10
-42.202499999999993
20
28.52249999999998
30
0
11
-42.202499999999993
21
26.77249999999999
31
0
0
LINE
5
727
100
AcDbEntity
8
0
100
AcDbLine
10
-36.702499999999986
20
24.27249999999999
30
0
11
-33.702499999999979
21
24.27249999999999
31
0
0
LINE
5
728
100
AcDbEntity
8
0
100
AcDbLine
10
-42.202499999999993
20
25.272499999999969
30
0
11
-42.202499999999993
21
31.77249999999999
31
0
0
LINE
5
729
100
AcDbEntity
8
0
100
AcDbLine
10
-33.702499999999979
20
25.272499999999987
30
0
11
-33.702499999999979
21
31.77249999999999
31
0
0
LINE
5
730
100
AcDbEntity
8
0
100
AcDbLine
10
-33.702499999999979
20
32.772499999999987
30
0
11
-36.702499999999986
21
32.772499999999987
31
0
0
LINE
5
731
100
AcDbEntity
8
0
100
AcDbLine
10
-42.202499999999993
20
26.77249999999999
30
0
11
-45.702499999999986
21
26.77249999999999
31
0
0
LINE
5
732
100
AcDbEntity
8
0
100
AcDbLine
10
-42.202499999999993
20
26.77249999999999
30
0
11
-45.702499999999986
21
26.77249999999999
31
0
0
LINE
5
733
100
AcDbEntity
8
0
100
AcDbLine
10
-36.702499999999986
20
25.272499999999987
30
0
11
-36.702499999999986
21
31.77249999999999
31
0
0
LINE
5
734
100
AcDbEntity
8
0
100
AcDbLine
10
-30.202499999999979
20
31.77249999999999
30
0
11
-30.202499999999979
21
25.272499999999987
31
0
0
LINE
5
735
100
AcDbEntity
8
0
100
AcDbLine
10
-36.202499999999979
20
25.272499999999987
30
0
11
-36.202499999999979
21
28.522499999999997
31
0
0
LINE
5
736
100
AcDbEntity
8
0
100
AcDbLine
10
-45.702499999999986
20
30.272499999999987
30
0
11
-42.202499999999993
21
30.272499999999987
31
0
0
LINE
5
737
100
AcDbEntity
8
0
100
AcDbLine
10
-33.702499999999979
20
31.77249999999999
30
0
11
-33.702499999999979
21
32.772499999999987
31
0
0
LINE
5
738
100
AcDbEntity
8
0
100
AcDbLine
10
-36.702499999999986
20
24.27249999999999
30
0
11
-33.702499999999979
21
24.27249999999999
31
0
0
LINE
5
739
100
AcDbEntity
8
0
100
AcDbLine
10
-45.702499999999986
20
30.272499999999987
30
0
11
-42.202499999999993
21
30.272499999999987
31
0
0
LINE
5
740
100
AcDbEntity
8
0
100
AcDbLine
10
-42.202499999999993
20
31.77249999999999
30
0
11
-30.202499999999979
21
31.77249999999999
31
0
0
LINE
5
741
100
AcDbEntity
8
0
100
AcDbLine
10
-36.202499999999979
20
25.272499999999987
30
0
11
-42.202499999999993
21
25.272499999999969
31
0
0
LINE
5
742
100
AcDbEntity
8
0
100
AcDbLine
10
-33.702499999999979
20
32.772499999999987
30
0
11
-36.702499999999986
21
32.772499999999987
31
0
0
LINE
5
743
100
AcDbEntity
8
0
100
AcDbLine
10
-36.702499999999986
20
32.772499999999987
30
0
11
-36.702499999999986
21
31.77249999999999
31
0
0
LINE
5
744
100
AcDbEntity
8
0
100
AcDbLine
10
-36.202499999999979
20
25.272499999999987
30
0
11
-42.202499999999993
21
25.272499999999969
31
0
0
LINE
5
745
100
AcDbEntity
8
0
100
AcDbLine
10
-42.202499999999993
20
28.52249999999998
30
0
11
-42.202499999999993
21
26.77249999999999
31
0
0
LINE
5
746
100
AcDbEntity
8
0
100
AcDbLine
10
-36.702499999999972
20
8.7725000000000168
30
0
11
-36.702499999999972
21
7.7725000000000213
31
0
0
LINE
5
747
100
AcDbEntity
8
0
100
AcDbLine
10
-45.702499999999979
20
2.7725000000000213
30
0
11
-45.702499999999979
21
6.2725000000000177
31
0
0
LINE
5
748
100
AcDbEntity
8
0
100
AcDbLine
10
-45.702499999999979
20
2.7725000000000213
30
0
11
-45.702499999999979
21
6.2725000000000177
31
0
0
LINE
5
749
100
AcDbEntity
8
0
100
AcDbLine
10
-36.702499999999972
20
1.2725000000000175
30
0
11
-36.702499999999972
21
7.7725000000000213
31
0
0
LINE
5
750
100
AcDbEntity
8
0
100
AcDbLine
10
-42.202499999999986
20
7.7725000000000213
30
0
11
-30.202499999999972
21
7.7725000000000213
31
0
0
LINE
5
751
100
AcDbEntity
8
0
100
AcDbLine
10
-33.702499999999972
20
7.7725000000000213
30
0
11
-33.702499999999972
21
8.7725000000000168
31
0
0
LINE
5
752
100
AcDbEntity
8
0
100
AcDbLine
10
-33.702499999999972
20
1.2725000000000175
30
0
11
-33.702499999999972
21
0.27250000000002106
31
0
0
LINE
5
753
100
AcDbEntity
8
0
100
AcDbLine
10
-36.702499999999972
20
1.2725000000000175
30
0
11
-36.702499999999972
21
0.27250000000002106
31
0
0
LINE
5
754
100
AcDbEntity
8
0
100
AcDbLine
10
-42.202499999999986
20
1.2724999999999997
30
0
11
-42.202499999999986
21
7.7725000000000213
31
0
0
LINE
5
755
100
AcDbEntity
8
0
100
AcDbLine
10
-30.202499999999972
20
7.7725000000000213
30
0
11
-30.202499999999972
21
1.2725000000000175
31
0
0
LINE
5
756
100
AcDbEntity
8
0
100
AcDbLine
10
-30.202499999999972
20
1.2725000000000175
30
0
11
-33.702499999999972
21
1.2725000000000175
31
0
0
LINE
5
757
100
AcDbEntity
8
0
100
AcDbLine
10
-30.202499999999972
20
1.2725000000000175
30
0
11
-33.702499999999972
21
1.2725000000000175
31
0
0
LINE
5
758
100
AcDbEntity
8
0
100
AcDbLine
10
-36.702499999999972
20
1.2725000000000175
30
0
11
-36.702499999999972
21
0.27250000000002106
31
0
0
LINE
5
759
100
AcDbEntity
8
0
100
AcDbLine
10
-33.702499999999972
20
1.2725000000000175
30
0
11
-33.702499999999972
21
0.27250000000002106
31
0
0
LINE
5
760
100
AcDbEntity
8
0
100
AcDbLine
10
-33.702499999999972
20
1.2725000000000175
30
0
11
-33.702499999999972
21
7.7725000000000213
31
0
0
LINE
5
761
100
AcDbEntity
8
0
100
AcDbLine
10
-42.202499999999986
20
4.5225000000000106
30
0
11
-42.202499999999986
21
2.7725000000000213
31
0
0
LINE
5
762
100
AcDbEntity
8
0
100
AcDbLine
10
-36.702499999999972
20
0.27250000000002106
30
0
11
-33.702499999999972
21
0.27250000000002106
31
0
0
LINE
5
763
100
AcDbEntity
8
0
100
AcDbLine
10
-42.202499999999986
20
1.2724999999999997
30
0
11
-42.202499999999986
21
7.7725000000000213
31
0
0
LINE
5
764
100
AcDbEntity
8
0
100
AcDbLine
10
-33.702499999999972
20
1.2725000000000175
30
0
11
-33.702499999999972
21
7.7725000000000213
31
0
0
LINE
5
765
100
AcDbEntity
8
0
100
AcDbLine
10
-33.702499999999972
20
8.7725000000000168
30
0
11
-36.702499999999972
21
8.7725000000000168
31
0
0
LINE
5
766
100
AcDbEntity
8
0
100
AcDbLine
10
-42.202499999999986
20
2.7725000000000213
30
0
11
-45.702499999999979
21
2.7725000000000213
31
0
0
LINE
5
767
100
AcDbEntity
8
0
100
AcDbLine
10
-42.202499999999986
20
2.7725000000000213
30
0
11
-45.702499999999979
21
2.7725000000000213
31
0
0
LINE
5
768
100
AcDbEntity
8
0
100
AcDbLine
10
-36.702499999999972
20
1.2725000000000175
30
0
11
-36.702499999999972
21
7.7725000000000213
31
0
0
LINE
5
769
100
AcDbEntity
8
0
100
AcDbLine
10
-30.202499999999972
20
7.7725000000000213
30
0
11
-30.202499999999972
21
1.2725000000000175
31
0
0
LINE
5
770
100
AcDbEntity
8
0
100
AcDbLine
10
-36.202499999999972
20
1.2725000000000175
30
0
11
-36.202499999999972
21
4.5225000000000284
31
0
0
LINE
5
771
100
AcDbEntity
8
0
100
AcDbLine
10
-45.702499999999979
20
6.2725000000000177
30
0
11
-42.202499999999986
21
6.2725000000000177
31
0
0
LINE
5
772
100
AcDbEntity
8
0
100
AcDbLine
10
-33.702499999999972
20
7.7725000000000213
30
0
11
-33.702499999999972
21
8.7725000000000168
31
0
0
LINE
5
773
100
AcDbEntity
8
0
100
AcDbLine
10
-36.702499999999972
20
0.27250000000002106
30
0
11
-33.702499999999972
21
0.27250000000002106
31
0
0
LINE
5
774
100
AcDbEntity
8
0
100
AcDbLine
10
-45.702499999999979
20
6.2725000000000177
30
0
11
-42.202499999999986
21
6.2725000000000177
31
0
0
LINE
5
775
100
AcDbEntity
8
0
100
AcDbLine
10
-42.202499999999986
20
7.7725000000000213
30
0
11
-30.202499999999972
21
7.7725000000000213
31
0
0
LINE
5
776
100
AcDbEntity
8
0
100
AcDbLine
10
-36.202499999999972
20
1.2725000000000175
30
0
11
-42.202499999999986
21
1.2724999999999997
31
0
0
LINE
5
777
100
AcDbEntity
8
0
100
AcDbLine
10
-33.702499999999972
20
8.7725000000000168
30
0
11
-36.702499999999972
21
8.7725000000000168
31
0
0
LINE
5
778
100
AcDbEntity
8
0
100
AcDbLine
10
-36.702499999999972
20
8.7725000000000168
30
0
11
-36.702499999999972
21
7.7725000000000213
31
0
0
LINE
5
779
100
AcDbEntity
8
0
100
AcDbLine
10
-36.202499999999972
20
1.2725000000000175
30
0
11
-42.202499999999986
21
1.2724999999999997
31
0
0
LINE
5
780
100
AcDbEntity
8
0
100
AcDbLine
10
-42.202499999999986
20
4.5225000000000106
30
0
11
-42.202499999999986
21
2.7725000000000213
31
0
0
LINE
5
781
100
AcDbEntity
8
0
100
AcDbLine
10
-31.952499999999972
20
1.2725000000000175
30
0
11
-31.952499999999972
21
25.272499999999987
31
0
0
LINE
5
782
100
AcDbEntity
8
0
100
AcDbLine
10
-36.202499999999979
20
25.272499999999987
30
0
11
-41.202499999999979
21
25.272499999999987
31
0
0
LINE
5
783
100
AcDbEntity
8
0
100
AcDbLine
10
-41.202499999999979
20
25.272499999999987
30
0
11
-41.202499999999979
21
7.7725000000000213
31
0
0
LINE
5
784
100
AcDbEntity
8
0
100
AcDbLine
10
-92.577500000000001
20
6.9975000000000032
30
0
11
-92.577500000000001
21
11.997500000000002
31
0
0
LINE
5
785
100
AcDbEntity
8
0
100
AcDbLine
10
-92.577500000000001
20
6.9975000000000032
30
0
11
-92.577500000000001
21
1.9975000000000032
31
0
0
LINE
5
786
100
AcDbEntity
8
0
100
AcDbLine
10
-92.577500000000001
20
1.9975000000000032
30
0
11
-75.077500000000001
21
1.9975000000000032
31
0
0
LINE
5
787
100
AcDbEntity
8
0
100
AcDbLine
10
-92.577500000000001
20
11.997500000000002
30
0
11
-75.077500000000001
21
11.997500000000002
31
0
0
LINE
5
788
100
AcDbEntity
8
0
100
AcDbLine
10
-55.252500000000005
20
57.15000000000002
30
0
11
-55.252500000000005
21
52.094999999999999
31
0
0
LINE
5
789
100
AcDbEntity
8
0
100
AcDbLine
10
-55.252500000000005
20
54.622500000000009
30
0
11
-36.202500000000001
21
54.622500000000009
31
0
0
LINE
5
790
100
AcDbEntity
8
0
100
AcDbLine
10
-42.202499999999986
20
45.872500000000031
30
0
11
-30.202499999999972
21
45.872500000000031
31
0
0
LINE
5
791
100
AcDbEntity
8
0
100
AcDbLine
10
-33.702499999999979
20
69.872500000000002
30
0
11
-33.702499999999979
21
70.872499999999988
31
0
0
LINE
5
792
100
AcDbEntity
8
0
100
AcDbLine
10
-36.202499999999972
20
39.372500000000024
30
0
11
-42.202499999999986
21
39.372500000000002
31
0
0
LINE
5
793
100
AcDbEntity
8
0
100
AcDbLine
10
-45.702499999999986
20
68.372499999999988
30
0
11
-42.202499999999993
21
68.372499999999988
31
0
0
LWPOLYLINE
5
794
100
AcDbEntity
8
0
100
AcDbPolyline
90
6
70
1
43
0.0
10
-29.205000000000005
20
47.625000000000014
10
-43.200000000000003
20
61.620000000000005
10
-29.205000000000005
20
61.620000000000005
10
-43.200000000000003
20
47.625000000000014
10
-29.205000000000005
20
47.625000000000014
10
-29.205000000000005
20
61.620000000000005
0
LINE
5
795
100
AcDbEntity
8
0
100
AcDbLine
10
-33.702499999999979
20
70.872499999999988
30
0
11
-36.702499999999986
21
70.872499999999988
31
0
0
LINE
5
796
100
AcDbEntity
8
0
100
AcDbLine
10
-42.202499999999986
20
45.872500000000031
30
0
11
-30.202499999999972
21
45.872500000000031
31
0
0
LINE
5
797
100
AcDbEntity
8
0
100
AcDbLine
10
-36.702499999999986
20
70.872499999999988
30
0
11
-36.702499999999986
21
69.872500000000002
31
0
0
LINE
5
798
100
AcDbEntity
8
0
100
AcDbLine
10
-36.702499999999986
20
70.872499999999988
30
0
11
-36.702499999999986
21
69.872500000000002
31
0
0
LINE
5
799
100
AcDbEntity
8
0
100
AcDbLine
10
-36.202499999999979
20
63.372499999999988
30
0
11
-42.202499999999993
21
63.372499999999974
31
0
0
LINE
5
800
100
AcDbEntity
8
0
100
AcDbLine
10
-36.202499999999979
20
63.372499999999988
30
0
11
-41.202499999999979
21
63.372499999999988
31
0
0
LINE
5
801
100
AcDbEntity
8
0
100
AcDbLine
10
-30.202499999999979
20
63.372499999999988
30
0
11
-33.702499999999972
21
63.372499999999988
31
0
0
LINE
5
802
100
AcDbEntity
8
0
100
AcDbLine
10
-30.202499999999972
20
39.372500000000024
30
0
11
-33.702499999999972
21
39.372500000000024
31
0
0
LINE
5
803
100
AcDbEntity
8
0
100
AcDbLine
10
-33.702499999999972
20
46.872500000000024
30
0
11
-36.702499999999972
21
46.872500000000024
31
0
0
LINE
5
804
100
AcDbEntity
8
0
100
AcDbLine
10
-33.702499999999972
20
39.372500000000024
30
0
11
-33.702499999999972
21
38.372500000000031
31
0
0
LINE
5
805
100
AcDbEntity
8
0
100
AcDbLine
10
-33.702499999999972
20
45.872500000000031
30
0
11
-33.702499999999972
21
46.872500000000024
31
0
0
LINE
5
806
100
AcDbEntity
8
0
100
AcDbLine
10
-33.702499999999972
20
39.372500000000024
30
0
11
-33.702499999999972
21
38.372500000000031
31
0
0
LINE
5
807
100
AcDbEntity
8
0
100
AcDbLine
10
-36.202500000000008
20
54.622500000000002
30
0
11
-36.202500000000008
21
42.622500000000002
31
0
0
LINE
5
808
100
AcDbEntity
8
0
100
AcDbLine
10
-36.702499999999972
20
39.372500000000024
30
0
11
-36.702499999999972
21
45.872500000000031
31
0
0
LINE
5
809
100
AcDbEntity
8
0
100
AcDbLine
10
-31.952499999999972
20
39.372500000000024
30
0
11
-31.952499999999972
21
63.372499999999988
31
0
0
LINE
5
810
100
AcDbEntity
8
0
100
AcDbLine
10
-36.702499999999972
20
39.372500000000024
30
0
11
-36.702499999999972
21
38.372500000000031
31
0
0
LINE
5
811
100
AcDbEntity
8
0
100
AcDbLine
10
-33.702499999999979
20
63.372499999999988
30
0
11
-33.702499999999979
21
69.872500000000002
31
0
0
LINE
5
812
100
AcDbEntity
8
0
100
AcDbLine
10
-42.202499999999993
20
63.372499999999974
30
0
11
-42.202499999999993
21
69.872500000000002
31
0
0
LINE
5
813
100
AcDbEntity
8
0
100
AcDbLine
10
-36.702499999999986
20
63.372499999999988
30
0
11
-36.702499999999986
21
69.872500000000002
31
0
0
LINE
5
814
100
AcDbEntity
8
0
100
AcDbLine
10
-45.702499999999986
20
64.872500000000002
30
0
11
-45.702499999999986
21
68.372499999999988
31
0
0
LINE
5
815
100
AcDbEntity
8
0
100
AcDbLine
10
-36.702499999999986
20
63.372499999999988
30
0
11
-36.702499999999986
21
69.872500000000002
31
0
0
LINE
5
816
100
AcDbEntity
8
0
100
AcDbLine
10
-30.202499999999979
20
69.872500000000002
30
0
11
-30.202499999999979
21
63.372499999999988
31
0
0
LINE
5
817
100
AcDbEntity
8
0
100
AcDbLine
10
-30.202499999999979
20
69.872500000000002
30
0
11
-30.202499999999979
21
63.372499999999988
31
0
0
LINE
5
818
100
AcDbEntity
8
0
100
AcDbLine
10
-36.702499999999972
20
46.872500000000024
30
0
11
-36.702499999999972
21
45.872500000000031
31
0
0
LINE
5
819
100
AcDbEntity
8
0
100
AcDbLine
10
-36.702499999999986
20
63.372499999999988
30
0
11
-36.702499999999986
21
62.372499999999995
31
0
0
LINE
5
820
100
AcDbEntity
8
0
100
AcDbLine
10
-41.202499999999979
20
63.372499999999988
30
0
11
-41.202499999999979
21
45.872500000000031
31
0
0
LINE
5
821
100
AcDbEntity
8
0
100
AcDbLine
10
-36.702499999999986
20
62.372499999999995
30
0
11
-33.702499999999972
21
62.372499999999995
31
0
0
LINE
5
822
100
AcDbEntity
8
0
100
AcDbLine
10
-36.202499999999979
20
63.372499999999988
30
0
11
-36.202499999999979
21
66.622500000000002
31
0
0
LINE
5
823
100
AcDbEntity
8
0
100
AcDbLine
10
-33.702499999999979
20
63.372499999999988
30
0
11
-33.702499999999979
21
62.372499999999995
31
0
0
LINE
5
824
100
AcDbEntity
8
0
100
AcDbLine
10
-36.202499999999972
20
39.372500000000024
30
0
11
-36.202499999999972
21
42.622500000000031
31
0
0
LINE
5
825
100
AcDbEntity
8
0
100
AcDbLine
10
-36.702499999999972
20
39.372500000000024
30
0
11
-36.702499999999972
21
45.872500000000031
31
0
0
LINE
5
826
100
AcDbEntity
8
0
100
AcDbLine
10
-42.202499999999993
20
64.872500000000002
30
0
11
-45.702499999999986
21
64.872500000000002
31
0
0
LINE
5
827
100
AcDbEntity
8
0
100
AcDbLine
10
-42.202499999999986
20
42.622500000000016
30
0
11
-42.202499999999986
21
40.872500000000031
31
0
0
LINE
5
828
100
AcDbEntity
8
0
100
AcDbLine
10
-42.202499999999993
20
66.622499999999988
30
0
11
-42.202499999999993
21
64.872500000000002
31
0
0
LINE
5
829
100
AcDbEntity
8
0
100
AcDbLine
10
-42.202499999999993
20
69.872500000000002
30
0
11
-30.202499999999979
21
69.872500000000002
31
0
0
LINE
5
830
100
AcDbEntity
8
0
100
AcDbLine
10
-33.702499999999979
20
69.872500000000002
30
0
11
-33.702499999999979
21
70.872499999999988
31
0
0
LINE
5
831
100
AcDbEntity
8
0
100
AcDbLine
10
-42.202499999999993
20
63.372499999999974
30
0
11
-42.202499999999993
21
69.872500000000002
31
0
0
LINE
5
832
100
AcDbEntity
8
0
100
AcDbLine
10
-42.202499999999986
20
40.872500000000031
30
0
11
-45.702499999999979
21
40.872500000000031
31
0
0
LINE
5
833
100
AcDbEntity
8
0
100
AcDbLine
10
-30.202499999999972
20
39.372500000000024
30
0
11
-33.702499999999972
21
39.372500000000024
31
0
0
LINE
5
834
100
AcDbEntity
8
0
100
AcDbLine
10
-33.702499999999972
20
46.872500000000024
30
0
11
-36.702499999999972
21
46.872500000000024
31
0
0
LINE
5
835
100
AcDbEntity
8
0
100
AcDbLine
10
-36.702499999999972
20
46.872500000000024
30
0
11
-36.702499999999972
21
45.872500000000031
31
0
0
LINE
5
836
100
AcDbEntity
8
0
100
AcDbLine
10
-33.702499999999972
20
45.872500000000031
30
0
11
-33.702499999999972
21
46.872500000000024
31
0
0
LINE
5
837
100
AcDbEntity
8
0
100
AcDbLine
10
-45.702499999999979
20
40.872500000000031
30
0
11
-45.702499999999979
21
44.372500000000024
31
0
0
LINE
5
838
100
AcDbEntity
8
0
100
AcDbLine
10
-30.202499999999972
20
45.872500000000031
30
0
11
-30.202499999999972
21
39.372500000000024
31
0
0
LINE
5
839
100
AcDbEntity
8
0
100
AcDbLine
10
-42.202499999999986
20
42.622500000000016
30
0
11
-42.202499999999986
21
40.872500000000031
31
0
0
LINE
5
840
100
AcDbEntity
8
0
100
AcDbLine
10
-45.702499999999979
20
44.372500000000016
30
0
11
-42.202499999999986
21
44.372500000000024
31
0
0
LINE
5
841
100
AcDbEntity
8
0
100
AcDbLine
10
-36.702499999999972
20
39.372500000000024
30
0
11
-36.702499999999972
21
38.372500000000031
31
0
0
LINE
5
842
100
AcDbEntity
8
0
100
AcDbLine
10
-36.702499999999972
20
38.372500000000031
30
0
11
-33.702499999999972
21
38.372500000000031
31
0
0
LINE
5
843
100
AcDbEntity
8
0
100
AcDbLine
10
-36.702499999999972
20
38.372500000000031
30
0
11
-33.702499999999972
21
38.372500000000031
31
0
0
LINE
5
844
100
AcDbEntity
8
0
100
AcDbLine
10
-33.702499999999972
20
39.372500000000024
30
0
11
-33.702499999999972
21
45.872500000000031
31
0
0
LINE
5
845
100
AcDbEntity
8
0
100
AcDbLine
10
-36.202500000000008
20
54.622500000000002
30
0
11
-36.202500000000008
21
66.622500000000002
31
0
0
LINE
5
846
100
AcDbEntity
8
0
100
AcDbLine
10
-33.702499999999972
20
39.372500000000024
30
0
11
-33.702499999999972
21
45.872500000000031
31
0
0
LINE
5
847
100
AcDbEntity
8
0
100
AcDbLine
10
-42.202499999999986
20
40.872500000000031
30
0
11
-45.702499999999979
21
40.872500000000031
31
0
0
LINE
5
848
100
AcDbEntity
8
0
100
AcDbLine
10
-45.702499999999979
20
44.372500000000024
30
0
11
-42.202499999999986
21
44.372500000000024
31
0
0
LINE
5
849
100
AcDbEntity
8
0
100
AcDbLine
10
-42.202499999999993
20
66.622499999999988
30
0
11
-42.202499999999993
21
64.872500000000002
31
0
0
LINE
5
850
100
AcDbEntity
8
0
100
AcDbLine
10
-30.202499999999972
20
45.872500000000031
30
0
11
-30.202499999999972
21
39.372500000000024
31
0
0
LINE
5
851
100
AcDbEntity
8
0
100
AcDbLine
10
-33.702499999999972
20
63.372499999999988
30
0
11
-33.702499999999972
21
62.372499999999995
31
0
0
LINE
5
852
100
AcDbEntity
8
0
100
AcDbLine
10
-30.202499999999979
20
63.372499999999988
30
0
11
-33.702499999999979
21
63.372499999999988
31
0
0
LINE
5
853
100
AcDbEntity
8
0
100
AcDbLine
10
-36.702499999999986
20
63.372499999999988
30
0
11
-36.702499999999986
21
62.372499999999995
31
0
0
LINE
5
854
100
AcDbEntity
8
0
100
AcDbLine
10
-45.702499999999979
20
40.872500000000031
30
0
11
-45.702499999999979
21
44.372500000000016
31
0
0
LINE
5
855
100
AcDbEntity
8
0
100
AcDbLine
10
-42.202499999999986
20
39.372500000000137
30
0
11
-42.202499999999986
21
45.872500000000031
31
0
0
LINE
5
856
100
AcDbEntity
8
0
100
AcDbLine
10
-36.702499999999986
20
62.372499999999995
30
0
11
-33.702499999999979
21
62.372499999999995
31
0
0
LINE
5
857
100
AcDbEntity
8
0
100
AcDbLine
10
-42.202499999999993
20
64.872500000000002
30
0
11
-45.702499999999986
21
64.872500000000002
31
0
0
LINE
5
858
100
AcDbEntity
8
0
100
AcDbLine
10
-42.202499999999986
20
39.372500000000002
30
0
11
-42.202499999999986
21
45.872500000000031
31
0
0
LINE
5
859
100
AcDbEntity
8
0
100
AcDbLine
10
-45.702499999999986
20
64.872500000000002
30
0
11
-45.702499999999986
21
68.372499999999988
31
0
0
LINE
5
860
100
AcDbEntity
8
0
100
AcDbLine
10
-33.702499999999979
20
70.872499999999988
30
0
11
-36.702499999999986
21
70.872499999999988
31
0
0
LINE
5
861
100
AcDbEntity
8
0
100
AcDbLine
10
-36.202499999999965
20
39.372500000000137
30
0
11
-42.202499999999986
21
39.372500000000137
31
0
0
LINE
5
862
100
AcDbEntity
8
0
100
AcDbLine
10
-36.202499999999979
20
63.372499999999988
30
0
11
-42.202499999999993
21
63.372499999999974
31
0
0
LINE
5
863
100
AcDbEntity
8
0
100
AcDbLine
10
-33.702499999999972
20
63.372499999999988
30
0
11
-33.702499999999979
21
69.872500000000002
31
0
0
LINE
5
864
100
AcDbEntity
8
0
100
AcDbLine
10
-45.702499999999986
20
68.372499999999988
30
0
11
-42.202499999999993
21
68.372499999999988
31
0
0
LINE
5
865
100
AcDbEntity
8
0
100
AcDbLine
10
-42.202499999999993
20
69.872500000000002
30
0
11
-30.202499999999979
21
69.872500000000002
31
0
0
LINE
5
866
100
AcDbEntity
8
0
100
AcDbLine
10
285.79500000000002
20
71.144999999999996
30
0
11
271.79999999999995
21
71.144999999999996
31
0
0
LINE
5
867
100
AcDbEntity
8
0
100
AcDbLine
10
271.79999999999995
20
71.144999999999996
30
0
11
271.79999999999995
21
57.149999999999999
31
0
0
LINE
5
868
100
AcDbEntity
8
0
100
AcDbLine
10
271.79999999999995
20
57.149999999999999
30
0
11
285.79500000000002
21
57.149999999999999
31
0
0
LINE
5
869
100
AcDbEntity
8
0
100
AcDbLine
10
285.79500000000002
20
57.149999999999999
30
0
11
285.79500000000002
21
71.144999999999996
31
0
0
LINE
5
870
100
AcDbEntity
8
0
100
AcDbLine
10
285.79500000000002
20
71.144999999999996
30
0
11
271.79999999999995
21
57.149999999999999
31
0
0
LINE
5
871
100
AcDbEntity
8
0
100
AcDbLine
10
271.79999999999995
20
71.144999999999996
30
0
11
285.79500000000002
21
57.149999999999999
31
0
0
LWPOLYLINE
5
872
100
AcDbEntity
8
0
100
AcDbPolyline
90
4
70
1
43
0.0
10
271.79999999999995
20
1.7763568394002505e-14
10
271.79999999999995
20
13.995000000000015
10
285.79500000000002
20
13.995000000000015
10
285.79500000000002
20
1.7763568394002505e-14
0
LWPOLYLINE
5
873
100
AcDbEntity
8
0
100
AcDbPolyline
90
4
70
1
43
0.0
10
290.84999999999997
20
1.7763568394002505e-14
10
290.84999999999997
20
13.995000000000015
10
304.84500000000003
20
13.995000000000015
10
304.84500000000003
20
1.7763568394002505e-14
0
LWPOLYLINE
5
874
100
AcDbEntity
8
0
100
AcDbPolyline
90
4
70
1
43
0.0
10
309.89999999999998
20
1.7763568394002505e-14
10
309.89999999999998
20
13.995000000000015
10
323.89499999999998
20
13.995000000000015
10
323.89499999999998
20
1.7763568394002505e-14
0
LWPOLYLINE
5
875
100
AcDbEntity
8
0
100
AcDbPolyline
90
4
70
1
43
0.0
10
290.84999999999997
20
19.050000000000011
10
290.84999999999997
20
33.045000000000009
10
304.84500000000003
20
33.045000000000009
10
304.84500000000003
20
19.050000000000011
0
LWPOLYLINE
5
876
100
AcDbEntity
8
0
100
AcDbPolyline
90
4
70
1
43
0.0
10
271.79999999999995
20
38.100000000000009
10
271.79999999999995
20
52.094999999999999
10
285.79500000000002
20
52.094999999999999
10
285.79500000000002
20
38.100000000000009
0
LWPOLYLINE
5
877
100
AcDbEntity
8
0
100
AcDbPolyline
90
4
70
1
43
0.0
10
290.84999999999997
20
38.100000000000009
10
290.84999999999997
20
52.094999999999999
10
304.84500000000003
20
52.094999999999999
10
304.84500000000003
20
38.100000000000009
0
LWPOLYLINE
5
878
100
AcDbEntity
8
0
100
AcDbPolyline
90
4
70
1
43
0.0
10
309.89999999999998
20
38.100000000000009
10
309.89999999999998
20
52.094999999999999
10
323.89499999999998
20
52.094999999999999
10
323.89499999999998
20
38.100000000000009
0
LWPOLYLINE
5
879
100
AcDbEntity
8
0
100
AcDbPolyline
90
4
70
1
43
0.0
10
290.84999999999997
20
57.149999999999999
10
290.84999999999997
20
71.144999999999996
10
304.84500000000003
20
71.144999999999996
10
304.84500000000003
20
57.149999999999999
0
LWPOLYLINE
5
880
100
AcDbEntity
8
0
100
AcDbPolyline
90
4
70
1
43
0.0
10
309.89999999999998
20
57.149999999999999
10
309.89999999999998
20
71.144999999999996
10
323.89499999999998
20
71.144999999999996
10
323.89499999999998
20
57.149999999999999
0
LWPOLYLINE
5
881
100
AcDbEntity
8
0
100
AcDbPolyline
90
4
70
1
43
0.0
10
271.79999999999995
20
76.199999999999989
10
271.79999999999995
20
90.194999999999993
10
285.79500000000002
20
90.194999999999993
10
285.79500000000002
20
76.199999999999989
0
LWPOLYLINE
5
882
100
AcDbEntity
8
0
100
AcDbPolyline
90
4
70
1
43
0.0
10
290.84999999999997
20
76.199999999999989
10
290.84999999999997
20
90.194999999999993
10
304.84500000000003
20
90.194999999999993
10
304.84500000000003
20
76.199999999999989
0
LWPOLYLINE
5
883
100
AcDbEntity
8
0
100
AcDbPolyline
90
4
70
1
43
0.0
10
309.89999999999998
20
76.199999999999989
10
309.89999999999998
20
90.194999999999993
10
323.89499999999998
20
90.194999999999993
10
323.89499999999998
20
76.199999999999989
0
LWPOLYLINE
5
884
100
AcDbEntity
8
0
100
AcDbPolyline
90
4
70
1
43
0.0
10
271.79999999999995
20
95.249999999999986
10
271.79999999999995
20
109.24499999999998
10
285.79500000000002
20
109.24499999999998
10
285.79500000000002
20
95.249999999999986
0
LWPOLYLINE
5
885
100
AcDbEntity
8
0
100
AcDbPolyline
90
4
70
1
43
0.0
10
290.84999999999997
20
95.249999999999986
10
290.84999999999997
20
109.24499999999998
10
304.84500000000003
20
109.24499999999998
10
304.84500000000003
20
95.249999999999986
0
LWPOLYLINE
5
886
100
AcDbEntity
8
0
100
AcDbPolyline
90
4
70
1
43
0.0
10
309.89999999999998
20
95.249999999999986
10
309.89999999999998
20
109.24499999999998
10
323.89499999999998
20
109.24499999999998
10
323.89499999999998
20
95.249999999999986
0
LINE
5
887
100
AcDbEntity
8
0
100
AcDbLine
10
229.44749999999999
20
26.047499999999992
30
0
11
229.44749999999999
21
31.047499999999992
31
0
0
LINE
5
888
100
AcDbEntity
8
0
100
AcDbLine
10
229.44749999999999
20
26.047499999999992
30
0
11
229.44749999999999
21
21.047499999999992
31
0
0
LINE
5
889
100
AcDbEntity
8
0
100
AcDbLine
10
229.44749999999999
20
31.047499999999992
30
0
11
246.94750000000002
21
31.047499999999992
31
0
0
LINE
5
890
100
AcDbEntity
8
0
100
AcDbLine
10
229.44749999999999
20
21.047499999999992
30
0
11
246.94750000000002
21
21.047499999999992
31
0
0
LINE
5
891
100
AcDbEntity
8
0
100
AcDbLine
10
233.64750000000001
20
45.097499999999982
30
0
11
233.64750000000001
21
50.097499999999982
31
0
0
LINE
5
892
100
AcDbEntity
8
0
100
AcDbLine
10
233.64750000000001
20
50.097499999999982
30
0
11
251.14750000000001
21
50.097499999999982
31
0
0
LINE
5
893
100
AcDbEntity
8
0
100
AcDbLine
10
233.64750000000001
20
45.097499999999982
30
0
11
233.64750000000001
21
40.097499999999982
31
0
0
LINE
5
894
100
AcDbEntity
8
0
100
AcDbLine
10
233.64750000000001
20
40.097499999999982
30
0
11
251.14750000000001
21
40.097499999999982
31
0
0
LWPOLYLINE
5
895
100
AcDbEntity
8
0
100
AcDbPolyline
90
4
70
1
43
0.0
10
386.37758414831319
20
58.898963680020771
10
91.46664942426348
20
329.13504672628483
10
-165.25762946968734
20
48.96965873843758
10
129.65330525436232
20
-221.26642430782641
0
LINE
5
896
100
AcDbEntity
8
0
100
AcDbLine
10
323.89499999999998
20
112.24499999999999
30
0
11
326.89499999999998
21
109.24499999999998
31
0
0
LINE
5
897
100
AcDbEntity
8
0
100
AcDbLine
10
-100.34999999999999
20
112.24500000000003
30
0
11
-103.35000000000001
21
109.24500000000002
31
0
0
LINE
5
898
100
AcDbEntity
8
0
100
AcDbLine
10
-103.35000000000001
20
0
30
0
11
-100.34999999999999
21
-3.0000000000000004
31
0
0
LINE
5
899
100
AcDbEntity
8
0
100
AcDbLine
10
323.89499999999998
20
-3.0000002093911244
30
0
11
326.89499999999998
21
1.7947265413874601e-14
31
0
0
LINE
5
900
100
AcDbEntity
8
0
100
AcDbLine
10
-12.052499999999998
20
83.197500000000005
30
0
11
-21.052499999999998
21
83.197500000000005
31
0
0
LINE
5
901
100
AcDbEntity
8
0
100
AcDbLine
10
-21.052499999999998
20
64.147499999999994
30
0
11
-7.3024999999999984
21
64.147499999999994
31
0
0
LINE
5
902
100
AcDbEntity
8
0
100
AcDbLine
10
-21.052499999999998
20
45.097500000000004
30
0
11
-4.9524999999999952
21
45.097500000000004
31
0
0
LINE
5
903
100
AcDbEntity
8
0
100
AcDbLine
10
-21.052499999999998
20
26.047499999999999
30
0
11
-0.20249999999999435
21
26.047499999999999
31
0
0
LINE
5
904
100
AcDbEntity
8
0
100
AcDbLine
10
-21.052499999999998
20
6.9974999999999987
30
0
11
-9.7024999999999988
21
6.9974999999999987
31
0
0
LINE
5
905
100
AcDbEntity
8
0
100
AcDbLine
10
64.147500000000008
20
102.2475
30
0
11
83.197500000000005
21
102.2475
31
0
0
LWPOLYLINE
5
906
100
AcDbEntity
8
0
100
AcDbPolyline
90
12
70
1
43
0.0
10
76.200000000000017
20
109.245
10
90.195000000000007
20
109.245
10
90.195000000000007
20
95.25
10
76.200000000000017
20
95.25
10
90.195000000000007
20
95.25
10
90.195000000000007
20
109.245
10
76.200000000000017
20
109.245
10
76.200000000000017
20
95.25
10
90.195000000000007
20
95.25
10
90.195000000000007
20
109.245
10
76.200000000000017
20
109.245
10
76.200000000000017
20
95.25
0
LINE
5
907
100
AcDbEntity
8
0
100
AcDbLine
10
83.197500000000005
20
102.2475
30
0
11
111.77250000000001
21
102.2475
31
0
0
LINE
5
908
100
AcDbEntity
8
0
100
AcDbLine
10
111.77250000000001
20
102.2475
30
0
11
130.82249999999999
21
102.2475
31
0
0
LINE
5
909
100
AcDbEntity
8
0
100
AcDbLine
10
130.82249999999999
20
102.2475
30
0
11
149.8725
21
102.2475
31
0
0
LINE
5
910
100
AcDbEntity
8
0
100
AcDbLine
10
149.8725
20
102.2475
30
0
11
168.92250000000001
21
102.2475
31
0
0
LINE
5
911
100
AcDbEntity
8
0
100
AcDbLine
10
118.77000000000001
20
109.245
30
0
11
104.77500000000001
21
109.245
31
0
0
LINE
5
912
100
AcDbEntity
8
0
100
AcDbLine
10
104.77500000000001
20
109.245
30
0
11
104.77500000000001
21
95.25
31
0
0
LINE
5
913
100
AcDbEntity
8
0
100
AcDbLine
10
104.77500000000001
20
95.25
30
0
11
118.77000000000001
21
95.25
31
0
0
LINE
5
914
100
AcDbEntity
8
0
100
AcDbLine
10
118.77000000000001
20
95.25
30
0
11
118.77000000000001
21
109.245
31
0
0
LINE
5
915
100
AcDbEntity
8
0
100
AcDbLine
10
118.77000000000001
20
109.245
30
0
11
104.77500000000001
21
95.25
31
0
0
LINE
5
916
100
AcDbEntity
8
0
100
AcDbLine
10
104.77500000000001
20
109.245
30
0
11
118.77000000000001
21
95.25
31
0
0
LINE
5
917
100
AcDbEntity
8
0
100
AcDbLine
10
137.81999999999999
20
109.245
30
0
11
123.825
21
109.245
31
0
0
LINE
5
918
100
AcDbEntity
8
0
100
AcDbLine
10
123.825
20
109.245
30
0
11
123.825
21
95.25
31
0
0
LINE
5
919
100
AcDbEntity
8
0
100
AcDbLine
10
123.825
20
95.25
30
0
11
137.81999999999999
21
95.25
31
0
0
LINE
5
920
100
AcDbEntity
8
0
100
AcDbLine
10
137.81999999999999
20
95.25
30
0
11
137.81999999999999
21
109.245
31
0
0
LINE
5
921
100
AcDbEntity
8
0
100
AcDbLine
10
137.81999999999999
20
109.245
30
0
11
123.825
21
95.25
31
0
0
LINE
5
922
100
AcDbEntity
8
0
100
AcDbLine
10
123.825
20
109.245
30
0
11
137.81999999999999
21
95.25
31
0
0
LINE
5
923
100
AcDbEntity
8
0
100
AcDbLine
10
156.87
20
109.245
30
0
11
142.875
21
109.245
31
0
0
LINE
5
924
100
AcDbEntity
8
0
100
AcDbLine
10
142.875
20
109.245
30
0
11
142.875
21
95.25
31
0
0
LINE
5
925
100
AcDbEntity
8
0
100
AcDbLine
10
142.875
20
95.25
30
0
11
156.87
21
95.25
31
0
0
LINE
5
926
100
AcDbEntity
8
0
100
AcDbLine
10
156.87
20
95.25
30
0
11
156.87
21
109.245
31
0
0
LINE
5
927
100
AcDbEntity
8
0
100
AcDbLine
10
156.87
20
109.245
30
0
11
142.875
21
95.25
31
0
0
LINE
5
928
100
AcDbEntity
8
0
100
AcDbLine
10
142.875
20
109.245
30
0
11
156.87
21
95.25
31
0
0
LINE
5
929
100
AcDbEntity
8
0
100
AcDbLine
10
175.91999999999999
20
109.245
30
0
11
161.92500000000001
21
109.245
31
0
0
LINE
5
930
100
AcDbEntity
8
0
100
AcDbLine
10
161.92500000000001
20
109.245
30
0
11
161.92500000000001
21
95.25
31
0
0
LINE
5
931
100
AcDbEntity
8
0
100
AcDbLine
10
161.92500000000001
20
95.25
30
0
11
175.91999999999999
21
95.25
31
0
0
LINE
5
932
100
AcDbEntity
8
0
100
AcDbLine
10
175.91999999999999
20
95.25
30
0
11
175.91999999999999
21
109.245
31
0
0
LINE
5
933
100
AcDbEntity
8
0
100
AcDbLine
10
175.91999999999999
20
109.245
30
0
11
161.92500000000001
21
95.25
31
0
0
LINE
5
934
100
AcDbEntity
8
0
100
AcDbLine
10
161.92500000000001
20
109.245
30
0
11
175.91999999999999
21
95.25
31
0
0
LINE
5
935
100
AcDbEntity
8
0
100
AcDbLine
10
254.64750000000004
20
102.2475
30
0
11
263.64750000000004
21
102.2475
31
0
0
LINE
5
936
100
AcDbEntity
8
0
100
AcDbLine
10
280.80250000000001
20
102.24749999999999
30
0
11
271.80250000000001
21
102.24749999999999
31
0
0
LINE
5
937
100
AcDbEntity
8
0
100
AcDbLine
10
-36.202500000000001
20
83.197500000000005
30
0
11
-27.202500000000004
21
83.197500000000005
31
0
0
LINE
5
938
100
AcDbEntity
8
0
100
AcDbLine
10
263.64750000000004
20
102.2475
30
0
11
269.79750000000001
21
102.2475
31
0
0
LINE
5
939
100
AcDbEntity
8
0
100
AcDbLine
10
-103.35000000000001
20
54.622500000000009
30
0
11
-113.35000000000001
21
54.622500000000009
31
0
0
LINE
5
940
100
AcDbEntity
8
0
100
AcDbLine
10
-113.35000000000001
20
54.622500000000009
30
0
11
-113.35000000000001
21
111.35476284705564
31
0
0
LINE
5
941
100
AcDbEntity
8
0
100
AcDbLine
10
-113.35000000000001
20
54.622500000000009
30
0
11
-113.35000000000001
21
-8.5464908494314784
31
0
0
LINE
5
942
100
AcDbEntity
8
0
100
AcDbLine
10
-103.35000000000001
20
0
30
0
11
-113.35000000000001
21
10
31
0
0
LINE
5
943
100
AcDbEntity
8
0
100
AcDbLine
10
-103.35000000000001
20
109.24500000000002
30
0
11
-113.35000000000001
21
99.245000000000019
31
0
0
LINE
5
944
100
AcDbEntity
8
0
100
AcDbLine
10
-103.35000000000001
20
109.24500000000002
30
0
11
-89.207864376269043
21
109.24500000000002
31
0
0
LINE
5
945
100
AcDbEntity
8
0
100
AcDbLine
10
-113.35000000000001
20
99.245000000000019
30
0
11
-113.35000000000001
21
10
31
0
0
LINE
5
946
100
AcDbEntity
8
0
100
AcDbLine
10
326.89508203927545
20
54.622518385270105
30
0
11
336.89508203925863
21
54.622500000075426
31
0
0
LINE
5
947
100
AcDbEntity
8
0
100
AcDbLine
10
336.89508203925863
20
54.622500000075426
30
0
11
336.8951898472842
21
113.26100096894331
31
0
0
LINE
5
948
100
AcDbEntity
8
0
100
AcDbLine
10
336.89508203925863
20
54.622500000075426
30
0
11
336.89497585063236
21
-3.1351839008876721
31
0
0
LINE
5
949
100
AcDbEntity
8
0
100
AcDbLine
10
326.89499999999998
20
1.7947265413874601e-14
30
0
11
336.89499999999998
21
10.000041502783636
31
0
0
LINE
5
950
100
AcDbEntity
8
0
100
AcDbLine
10
326.89499999999998
20
1.7947265413874601e-14
30
0
11
341.03716497066108
21
1.7947265413874601e-14
31
0
0
LINE
5
951
100
AcDbEntity
8
0
100
AcDbLine
10
326.89499999999998
20
109.24499999999998
30
0
11
336.89516407866989
21
99.245041503292327
31
0
0
LINE
5
952
100
AcDbEntity
8
0
100
AcDbLine
10
336.89499999999998
20
10.000041502783636
30
0
11
336.89516407866989
21
99.245041503292327
31
0
0
LINE
5
953
100
AcDbEntity
8
0
100
AcDbLine
10
323.89499999999998
20
-3.0000002093911244
30
0
11
-100.34999999999999
21
-3.0000000000000004
31
0
0
LINE
5
954
100
AcDbEntity
8
0
100
AcDbLine
10
143.95906589319802
20
-13.000000120581621
30
0
11
-101.31223969660157
21
-13.000000120581676
31
0
0
LINE
5
955
100
AcDbEntity
8
0
100
AcDbLine
10
143.95906589319802
20
-13.000000120581621
30
0
11
333.55528985478571
21
-13.000000120581621
31
0
0
LINE
5
956
100
AcDbEntity
8
0
100
AcDbLine
10
323.89499999999998
20
-3.0000002093911244
30
0
11
313.89525163245571
21
-13.000000120581621
31
0
0
LINE
5
957
100
AcDbEntity
8
0
100
AcDbLine
10
323.89499999999998
20
-3.0000002093911244
30
0
11
338.03695763103582
21
-3.0000002093911244
31
0
0
LINE
5
958
100
AcDbEntity
8
0
100
AcDbLine
10
-100.34999999999999
20
-3.0000000000000004
30
0
11
-90.349748329439322
21
-13.000000120581674
31
0
0
LINE
5
959
100
AcDbEntity
8
0
100
AcDbLine
10
-90.349748329439322
20
-13.000000120581674
30
0
11
313.89525163245571
21
-13.000000120581621
31
0
0
LINE
5
960
100
AcDbEntity
8
0
100
AcDbLine
10
112.1419798603207
20
122.24500000000113
30
0
11
-106.8813395028929
21
122.24500000000113
31
0
0
LINE
5
961
100
AcDbEntity
8
0
100
AcDbLine
10
112.1419798603207
20
122.24500000000113
30
0
11
324.56643217555484
21
122.24500000000113
31
0
0
LINE
5
962
100
AcDbEntity
8
0
100
AcDbLine
10
323.89499999999998
20
112.24499999999999
30
0
11
313.89499999999884
21
122.24500000000113
31
0
0
LINE
5
963
100
AcDbEntity
8
0
100
AcDbLine
10
323.89499999999998
20
112.24499999999999
30
0
11
338.03713562373252
21
112.24499999999999
31
0
0
LINE
5
964
100
AcDbEntity
8
0
100
AcDbLine
10
-100.34999999999999
20
112.24500000000003
30
0
11
-90.349999999998914
21
122.24500000000113
31
0
0
LINE
5
965
100
AcDbEntity
8
0
100
AcDbLine
10
-100.34999999999999
20
112.24500000000003
30
0
11
-86.207864376267509
21
112.24500000000003
31
0
0
LINE
5
966
100
AcDbEntity
8
0
100
AcDbLine
10
-90.349999999998914
20
122.24500000000113
30
0
11
313.89499999999884
21
122.24500000000113
31
0
0
LINE
5
967
100
AcDbEntity
8
0
100
AcDbLine
10
-113.35000000000001
20
10
30
0
11
-103.35000000000001
21
10
31
0
0
LINE
5
968
100
AcDbEntity
8
0
100
AcDbLine
10
-113.35000000000001
20
99.245000000000019
30
0
11
-103.35000000000001
21
99.245000000000019
31
0
0
LINE
5
969
100
AcDbEntity
8
0
100
AcDbLine
10
-90.349999999998914
20
122.24500000000113
30
0
11
-90.349999999998914
21
112.24500000000113
31
0
0
LINE
5
970
100
AcDbEntity
8
0
100
AcDbLine
10
336.89499999999998
20
10.000041502783636
30
0
11
326.89500000001686
21
10.000059887978319
31
0
0
LINE
5
971
100
AcDbEntity
8
0
100
AcDbLine
10
336.89516407866989
20
99.245041503292327
30
0
11
326.89516407868678
21
99.245059888487006
31
0
0
LINE
5
972
100
AcDbEntity
8
0
100
AcDbLine
10
313.89499999999884
20
122.24500000000113
30
0
11
313.89499999999884
21
112.24500000000113
31
0
0
LINE
5
973
100
AcDbEntity
8
0
100
AcDbLine
10
111.77249999999995
20
122.24500000000113
30
0
11
111.77249999999995
21
112.24500000000113
31
0
0
LINE
5
974
100
AcDbEntity
8
0
100
AcDbLine
10
111.77275165150819
20
-13.000000120581648
30
0
11
111.77275165150819
21
-3.0000001205816473
31
0
0
LINE
5
975
100
AcDbEntity
8
0
100
AcDbLine
10
331.89516407867836
20
99.245050695889674
30
0
11
331.89500000000839
21
10.000050695380978
31
0
0
LINE
5
976
100
AcDbEntity
8
0
100
AcDbLine
10
313.89525163245571
20
-13.000000120581621
30
0
11
313.89525163245571
21
-3.0000001205985205
31
0
0
LINE
5
977
100
AcDbEntity
8
0
100
AcDbLine
10
-90.349748329439322
20
-13.000000120581674
30
0
11
-90.349748329439322
21
-3.000000120581674
31
0
0
LINE
5
978
100
AcDbEntity
8
0
100
AcDbLine
10
-108.35000000000001
20
10
30
0
11
-108.35000000000001
21
99.245000000000019
31
0
0
LINE
5
979
100
AcDbEntity
8
0
100
AcDbLine
10
-90.349999999998914
20
117.24500000000113
30
0
11
111.77249999999995
21
117.24500000000113
31
0
0
LINE
5
980
100
AcDbEntity
8
0
100
AcDbLine
10
111.77249999999995
20
117.24500000000113
30
0
11
313.89499999999884
21
117.24500000000113
31
0
0
LINE
5
981
100
AcDbEntity
8
0
100
AcDbLine
10
313.89525163245571
20
-8.0000001205900713
30
0
11
111.77275165150819
21
-8.0000001205816478
31
0
0
LINE
5
982
100
AcDbEntity
8
0
100
AcDbLine
10
111.77275165150819
20
-8.0000001205816478
30
0
11
-90.349748329439322
21
-8.0000001205816744
31
0
0
LINE
5
983
100
AcDbEntity
8
0
100
AcDbLine
10
10.711501661034433
20
-8.0000001205816602
30
0
11
10.711501661034434
21
-13.000890063588875
31
0
0
LINE
5
984
100
AcDbEntity
8
0
100
AcDbLine
10
212.83400164198196
20
-8.0000001205858595
30
0
11
212.83400164198196
21
-13.005420373984096
31
0
0
LINE
5
985
100
AcDbEntity
8
0
100
AcDbLine
10
212.83374999999944
20
117.24500000000113
30
0
11
212.83374999999944
21
122.24500000000113
31
0
0
LINE
5
986
100
AcDbEntity
8
0
100
AcDbLine
10
10.711250000000518
20
117.24500000000113
30
0
11
10.71125000000052
21
122.24500000000113
31
0
0
CIRCLE
5
987
100
AcDbEntity
8
0
100
AcDbCircle
10
-90.349999999998914
20
117.24500000000113
30
0
40
1.6499999999999915
210
0
220
0
230
1
0
CIRCLE
5
988
100
AcDbEntity
8
0
100
AcDbCircle
10
-108.35000000000001
20
99.245000000000019
30
0
40
1.6499999999999915
210
0
220
0
230
1
0
CIRCLE
5
989
100
AcDbEntity
8
0
100
AcDbCircle
10
-108.35000000000001
20
54.622500000000009
30
0
40
1.6499999999999915
210
0
220
0
230
1
0
CIRCLE
5
990
100
AcDbEntity
8
0
100
AcDbCircle
10
-108.35000000000001
20
10
30
0
40
1.6499999999999915
210
0
220
0
230
1
0
CIRCLE
5
991
100
AcDbEntity
8
0
100
AcDbCircle
10
-90.349748329439322
20
-8.0000001205816744
30
0
40
1.6499999999999915
210
0
220
0
230
1
0
CIRCLE
5
992
100
AcDbEntity
8
0
100
AcDbCircle
10
10.711501661034433
20
-8.0000001205816602
30
0
40
1.6500000000000004
210
0
220
0
230
1
0
CIRCLE
5
993
100
AcDbEntity
8
0
100
AcDbCircle
10
111.77275165150819
20
-8.0000001205816478
30
0
40
1.6499999999999915
210
0
220
0
230
1
0
CIRCLE
5
994
100
AcDbEntity
8
0
100
AcDbCircle
10
212.83400164198196
20
-8.0000001205858595
30
0
40
1.6499999999999915
210
0
220
0
230
1
0
CIRCLE
5
995
100
AcDbEntity
8
0
100
AcDbCircle
10
313.89525163245571
20
-8.0000001205900713
30
0
40
1.6499999999999915
210
0
220
0
230
1
0
CIRCLE
5
996
100
AcDbEntity
8
0
100
AcDbCircle
10
331.89500000000839
20
10.000050695380978
30
0
40
1.650000000000009
210
0
220
0
230
1
0
CIRCLE
5
997
100
AcDbEntity
8
0
100
AcDbCircle
10
331.89508203926709
20
54.622509192672766
30
0
40
1.6500000000000072
210
0
220
0
230
1
0
CIRCLE
5
998
100
AcDbEntity
8
0
100
AcDbCircle
10
331.89516407867836
20
99.245050695889674
30
0
40
1.650000000000009
210
0
220
0
230
1
0
CIRCLE
5
999
100
AcDbEntity
8
0
100
AcDbCircle
10
313.89499999999884
20
117.24500000000113
30
0
40
1.6499999999999915
210
0
220
0
230
1
0
CIRCLE
5
1000
100
AcDbEntity
8
0
100
AcDbCircle
10
212.83374999999944
20
117.24500000000113
30
0
40
1.6499999999999915
210
0
220
0
230
1
0
CIRCLE
5
1001
100
AcDbEntity
8
0
100
AcDbCircle
10
111.77249999999995
20
117.24500000000113
30
0
40
1.6499999999999915
210
0
220
0
230
1
0
CIRCLE
5
1002
100
AcDbEntity
8
0
100
AcDbCircle
10
10.711250000000518
20
117.24500000000113
30
0
40
1.6500000000000004
210
0
220
0
230
1
0
CIRCLE
5
1003
100
AcDbEntity
8
0
100
AcDbCircle
10
278.79749999999996
20
26.04750000000001
30
0
40
1.6499999999999915
210
0
220
0
230
1
0
LINE
5
1004
100
AcDbEntity
8
0
100
AcDbLine
10
-5.0550000000000006
20
102.2475
30
0
11
19.050000000000008
21
102.2475
31
0
0
CIRCLE
5
1005
100
AcDbEntity
8
0
100
AcDbCircle
10
6.9975000000000032
20
102.2475
30
0
40
2.5
210
0
220
0
230
1
0
LINE
5
1006
100
AcDbEntity
8
0
100
AcDbLine
10
175.91999999999999
20
109.245
30
0
11
190.5
21
109.245
31
0
0
LINE
5
1007
100
AcDbEntity
8
0
100
AcDbLine
10
175.91999999999999
20
95.25
30
0
11
190.5
21
95.25
31
0
0
LINE
5
1008
100
AcDbEntity
8
0
100
AcDbLine
10
183.20999999999998
20
109.245
30
0
11
183.20999999999998
21
95.25
31
0
0
LINE
5
1009
100
AcDbEntity
8
0
100
AcDbLine
10
183.20999999999998
20
109.245
30
0
11
180.10999999999999
21
109.245
31
0
0
LINE
5
1010
100
AcDbEntity
8
0
100
AcDbLine
10
183.20999999999998
20
95.25
30
0
11
186.30999999999997
21
95.25
31
0
0
LINE
5
1011
100
AcDbEntity
8
0
100
AcDbLine
10
180.10999999999999
20
109.245
30
0
11
186.30999999999997
21
109.245
31
0
0
LINE
5
1012
100
AcDbEntity
8
0
100
AcDbLine
10
186.30999999999997
20
109.245
30
0
11
186.30999999999997
21
95.25
31
0
0
LINE
5
1013
100
AcDbEntity
8
0
100
AcDbLine
10
186.30999999999997
20
95.25
30
0
11
180.10999999999999
21
95.25
31
0
0
LINE
5
1014
100
AcDbEntity
8
0
100
AcDbLine
10
180.10999999999999
20
95.25
30
0
11
180.10999999999999
21
109.245
31
0
0
LINE
5
1015
100
AcDbEntity
8
0
100
AcDbLine
10
297.84749999999997
20
109.24499999999998
30
0
11
297.84749999999997
21
117.24500000000113
31
0
0
LINE
5
1016
100
AcDbEntity
8
0
100
AcDbLine
10
297.84749999999997
20
113.24500000000056
30
0
11
272.84749999999997
21
113.24500000000056
31
0
0
LINE
5
1017
100
AcDbEntity
8
0
100
AcDbLine
10
272.84749999999997
20
113.24500000000056
30
0
11
272.84749999999997
21
117.24500000000113
31
0
0
LINE
5
1018
100
AcDbEntity
8
0
100
AcDbLine
10
272.84749999999997
20
113.24500000000056
30
0
11
247.8475
21
113.24500000000056
31
0
0
LINE
5
1019
100
AcDbEntity
8
0
100
AcDbLine
10
247.8475
20
113.24500000000056
30
0
11
247.8475
21
117.24500000000113
31
0
0
CIRCLE
5
1020
100
AcDbEntity
8
0
100
AcDbCircle
10
297.84749999999997
20
117.24500000000113
30
0
40
1.0000000000000142
210
0
220
0
230
1
0
CIRCLE
5
1021
100
AcDbEntity
8
0
100
AcDbCircle
10
272.84749999999997
20
117.24500000000113
30
0
40
1.0000000000000142
210
0
220
0
230
1
0
CIRCLE
5
1022
100
AcDbEntity
8
0
100
AcDbCircle
10
247.8475
20
117.24500000000113
30
0
40
1.0000000000000142
210
0
220
0
230
1
0
ENDSEC
0
SECTION
2
OBJECTS
0
DICTIONARY
5
C
100
AcDbDictionary
3
ACAD_GROUP
350
D
3
ACAD_MLINESTYLE
350
17
0
DICTIONARY
5
D
100
AcDbDictionary
0
DICTIONARY
5
1A
330
C
100
AcDbDictionary
0
DICTIONARY
5
17
100
AcDbDictionary
0
ENDSEC
0
EOF
