M48
; DRILL file {KiCad (5.1.5)-3} date 4/26/2020 4:35:40 PM
; FORMAT={-:-/ absolute / inch / decimal}
; #@! TF.CreationDate,2020-04-26T16:35:40-07:00
; #@! TF.GenerationSoftware,Kicad,Pcbnew,(5.1.5)-3
FMAT,2
INCH
T1C0.0236
T2C0.0394
T3C0.0433
T4C0.0591
T5C0.0669
T6C0.0709
T7C0.1260
T8C0.1575
%
G90
G05
T1
X-2.02Y-1.66
X-2.015Y-3.845
X-2.005Y-4.59
X-2.0Y-3.09
X-1.995Y-5.34
X-1.67Y-1.37
X-1.57Y-1.4
X-1.52Y-1.37
X-1.47Y-1.43
X-1.385Y-1.6
X-1.26Y-4.59
X-1.255Y-3.845
X-1.25Y-5.34
X-1.24Y-2.35
X-1.24Y-3.1
X-0.955Y-1.66
X-0.885Y-1.595
X-0.855Y-6.07
X-0.855Y-6.185
X-0.83Y-1.725
X-0.5Y-4.6
X-0.495Y-3.84
X-0.495Y-5.34
X-0.49Y-3.1
X-0.21Y-1.34
X-0.2Y-1.66
X-0.055Y-1.4
X-0.005Y-1.37
X0.045Y-1.43
X0.395Y-1.34
X0.45Y-5.32
X0.62Y-3.85
X0.825Y-1.4
X0.85Y-4.595
X0.875Y-1.37
X0.875Y-1.66
X0.925Y-1.43
X0.935Y-3.095
X0.98Y-6.075
X1.095Y-2.41
X1.165Y-5.35
X1.21Y-1.59
X1.21Y-1.725
X1.28Y-1.34
X1.44Y-1.4
X1.49Y-1.37
X1.53Y-1.66
X1.54Y-1.43
X1.55Y-3.825
X1.88Y-1.34
X2.04Y-4.565
X2.165Y-3.095
X2.215Y-1.595
X2.215Y-1.715
X2.245Y-5.375
X2.31Y-3.845
X2.525Y-2.345
X2.71Y-4.6
X2.725Y-5.355
X2.76Y-1.66
X2.85Y-1.435
X2.865Y-1.59
X2.865Y-1.73
X2.915Y-3.09
X3.0Y-1.405
X3.05Y-1.375
X3.065Y-3.85
X3.2625Y-2.3475
X3.455Y-1.345
X3.465Y-4.59
X3.6Y-1.435
X3.66Y-3.095
X3.685Y-1.66
X3.735Y-1.705
X3.7981Y-1.5669
X3.7981Y-1.7381
X3.815Y-3.855
X3.84Y-5.395
X3.935Y-6.03
X3.935Y-6.085
X3.935Y-6.14
X4.03Y-2.345
X4.13Y-6.16
X4.185Y-1.405
X4.225Y-4.595
X4.235Y-1.375
X4.285Y-1.43
X4.42Y-3.095
X4.56Y-3.865
X4.605Y-5.35
X4.645Y-1.345
X4.765Y-1.6
X4.765Y-1.72
X4.77Y-2.335
X4.805Y-1.405
X4.855Y-1.375
X4.905Y-1.42
X4.975Y-4.59
X5.17Y-3.09
X5.2393Y-1.3443
X5.28Y-3.865
X5.335Y-1.6
X5.355Y-5.345
X5.395Y-1.405
X5.425Y-1.715
X5.445Y-1.375
X5.495Y-1.42
X5.52Y-2.335
X5.6993Y-1.3443
X5.71Y-4.585
X5.89Y-1.605
X5.925Y-3.075
X5.935Y-1.715
X6.015Y-3.89
X6.085Y-5.34
X6.09Y-6.06
X6.1167Y-6.1233
X6.26Y-2.335
X6.465Y-4.595
X6.5Y-1.66
X6.655Y-3.085
X6.725Y-1.595
X6.725Y-1.725
X6.775Y-6.065
X6.775Y-6.18
X6.815Y-3.835
X7.02Y-2.34
X7.215Y-4.585
X7.215Y-5.345
X7.425Y-3.095
X7.535Y-1.595
X7.535Y-1.73
X7.565Y-3.84
X7.655Y-1.405
X7.705Y-1.375
X7.755Y-1.43
X7.77Y-2.335
X7.95Y-5.34
X7.97Y-4.59
X8.115Y-1.34
X8.17Y-3.09
X8.175Y-1.6
X8.195Y-1.745
X8.275Y-1.405
X8.32Y-3.835
X8.325Y-1.375
X8.375Y-1.42
X8.53Y-2.34
X8.72Y-4.58
X8.72Y-5.345
X8.73Y-1.34
X8.925Y-3.105
X9.06Y-3.84
X9.265Y-2.34
X9.3Y-1.66
X9.445Y-5.345
X9.45Y-4.61
X9.49Y-1.575
X9.49Y-1.74
X9.64Y-3.1
X9.79Y-3.85
X10.07Y-5.975
X10.205Y-6.135
X10.23Y-4.59
X10.235Y-1.66
X10.375Y-1.405
X10.425Y-1.375
X10.475Y-1.43
X10.485Y-2.405
X10.59Y-1.725
X10.65Y-3.105
X10.7Y-1.605
X10.775Y-3.86
X10.825Y-1.34
X10.97Y-4.595
X10.975Y-5.35
X11.16Y-1.66
X11.41Y-1.405
X11.46Y-1.375
X11.51Y-1.425
X11.66Y-1.6
X11.66Y-1.73
X11.87Y-1.34
X11.9Y-1.97
X11.91Y-3.46
X11.915Y-5.365
X11.92Y-4.585
X12.25Y-1.59
X12.25Y-1.725
X12.65Y-1.405
X12.65Y-3.095
X12.66Y-2.345
X12.665Y-3.845
X12.665Y-4.595
X12.67Y-5.345
X12.7Y-1.375
X12.75Y-1.42
X12.935Y-1.66
X13.11Y-1.34
X13.235Y-1.6
X13.235Y-1.725
X13.265Y-1.405
X13.315Y-1.375
X13.365Y-1.4
X13.405Y-3.845
X13.41Y-3.095
X13.41Y-5.345
X13.415Y-2.34
X13.415Y-4.6
X13.715Y-1.375
X13.765Y-1.615
X14.16Y-2.35
X14.16Y-3.85
X14.165Y-4.595
X14.17Y-3.09
X14.175Y-5.345
T2
X10.0671Y-5.83
X10.1656Y-5.6331
X10.264Y-5.83
X3.27Y-6.33
X3.37Y-6.33
X3.47Y-6.33
X3.57Y-6.33
X3.1775Y-5.5375
X3.1775Y-5.6375
X3.1775Y-5.7375
X3.1775Y-5.8375
X3.1775Y-5.9375
X3.2775Y-5.5375
X3.2775Y-5.6375
X3.2775Y-5.7375
X3.2775Y-5.8375
X3.2775Y-5.9375
T3
X6.5128Y-5.605
X6.5128Y-5.8609
X6.69Y-5.605
X6.69Y-5.8609
T4
X8.1137Y-4.1345
X8.3637Y-4.0345
X8.8637Y-4.1345
X9.1137Y-4.0345
X3.2121Y-1.8845
X3.4621Y-1.7845
X9.2653Y-5.6345
X9.5153Y-5.5345
X-0.6855Y-4.8845
X-0.4355Y-4.7845
X11.7161Y-3.7595
X11.9661Y-3.6595
X-1.4355Y-5.6345
X-1.1855Y-5.5345
X12.4661Y-4.1345
X12.7161Y-4.0345
X12.4661Y-2.6345
X12.7161Y-2.5345
X12.4661Y-5.6345
X12.7161Y-5.5345
X5.7082Y-3.3845
X5.9582Y-3.2845
X2.5153Y-4.8845
X2.7653Y-4.7845
X2.8637Y-4.1345
X3.1137Y-4.0345
X6.2653Y-4.8845
X6.5153Y-4.7845
X5.1403Y-5.6345
X5.3903Y-5.5345
X4.7653Y-4.8845
X5.0153Y-4.7845
X10.2988Y-2.6345
X10.5488Y-2.5345
X10.4858Y-3.3845
X10.7358Y-3.2845
X1.3421Y-1.8845
X1.5921Y-1.7845
X10.7653Y-4.8845
X11.0153Y-4.7845
X-1.4355Y-4.1345
X-1.1855Y-4.0345
X12.4661Y-4.8845
X12.7161Y-4.7845
X-2.1855Y-4.8845
X-1.9355Y-4.7845
X13.9661Y-3.3845
X14.2161Y-3.2845
X13.2161Y-4.8845
X13.4661Y-4.7845
X4.2082Y-3.3845
X4.4582Y-3.2845
X13.9661Y-5.6345
X14.2161Y-5.5345
X0.6629Y-4.8845
X0.9129Y-4.7845
X0.7476Y-3.3845
X0.9976Y-3.2845
X5.5153Y-4.8845
X5.7653Y-4.7845
X5.8903Y-5.6345
X6.1403Y-5.5345
X4.0153Y-4.8845
X4.2653Y-4.7845
X8.5153Y-5.6345
X8.7653Y-5.5345
X8.7082Y-3.3845
X8.9582Y-3.2845
X0.9129Y-2.6345
X1.1629Y-2.5345
X9.6155Y-4.1355
X9.8655Y-4.0355
X-0.6855Y-1.8845
X-0.4355Y-1.7845
X11.7161Y-4.8845
X11.9661Y-4.7845
X-0.6855Y-3.3845
X-0.4355Y-3.2845
X13.9661Y-2.6345
X14.2161Y-2.5345
X13.5911Y-1.8845
X13.8411Y-1.7845
X11.7161Y-5.6345
X11.9661Y-5.5345
X1.0153Y-5.6345
X1.2653Y-5.5345
X7.5704Y-2.6345
X7.8204Y-2.5345
X2.1137Y-4.1345
X2.3637Y-4.0345
X1.3637Y-4.1345
X1.6137Y-4.0345
X3.6403Y-5.6345
X3.8903Y-5.5345
X7.7653Y-5.6345
X8.0153Y-5.5345
X9.4582Y-3.3845
X9.7082Y-3.2845
X2.2771Y-1.8845
X2.5271Y-1.7845
X10.6728Y-1.8845
X10.9228Y-1.7845
X-1.4355Y-1.8845
X-1.1855Y-1.7845
X-1.4355Y-2.6345
X-1.1855Y-2.5345
X13.9661Y-4.1345
X14.2161Y-4.0345
X-2.1855Y-4.1345
X-1.9355Y-4.0345
X10.7653Y-5.6345
X11.0153Y-5.5345
X13.2161Y-5.6345
X13.4661Y-5.5345
X13.9661Y-4.8845
X14.2161Y-4.7845
X4.3637Y-4.1345
X4.6137Y-4.0345
X0.4188Y-4.1345
X0.6688Y-4.0345
X7.9582Y-3.3845
X8.2082Y-3.2845
X3.4582Y-3.3845
X3.7082Y-3.2845
X3.6137Y-4.1345
X3.8637Y-4.0345
X7.0153Y-5.6345
X7.2653Y-5.5345
X5.8637Y-4.1345
X6.1137Y-4.0345
X10.0153Y-4.8845
X10.2653Y-4.7845
X0.407Y-1.8845
X0.657Y-1.7845
X8.3204Y-2.6345
X8.5704Y-2.5345
X9.7377Y-1.8845
X9.9877Y-1.7845
X-2.1855Y-3.3845
X-1.9355Y-3.2845
X-0.6855Y-4.1345
X-0.4355Y-4.0345
X13.2161Y-4.1345
X13.4661Y-4.0345
X-2.1855Y-1.8845
X-1.9355Y-1.7845
X13.2161Y-3.3845
X13.4661Y-3.2845
X4.5704Y-2.6345
X4.8204Y-2.5345
X7.2082Y-3.3845
X7.4582Y-3.2845
X2.7082Y-3.3845
X2.9582Y-3.2845
X6.8204Y-2.6345
X7.0704Y-2.5345
X1.9582Y-3.3845
X2.2082Y-3.2845
X1.7653Y-5.6345
X2.0153Y-5.5345
X7.3637Y-4.1345
X7.6137Y-4.0345
X4.3903Y-5.6345
X4.6403Y-5.5345
X9.2653Y-4.8845
X9.5153Y-4.7845
X8.5153Y-4.8845
X8.7653Y-4.7845
X8.8027Y-1.8845
X9.0527Y-1.7845
X2.5153Y-5.6345
X2.7653Y-5.5345
X13.2161Y-2.6345
X13.4661Y-2.5345
X-1.4355Y-4.8845
X-1.1855Y-4.7845
X11.7161Y-2.2595
X11.9661Y-2.1595
X3.8204Y-2.6345
X4.0704Y-2.5345
X6.4582Y-3.3845
X6.7082Y-3.2845
X0.2653Y-5.6345
X0.5153Y-5.5345
X6.0704Y-2.6345
X6.3204Y-2.5345
X3.0704Y-2.6345
X3.3204Y-2.5345
X1.7653Y-4.8845
X2.0153Y-4.7845
X5.1137Y-4.1345
X5.3637Y-4.0345
X7.7653Y-4.8845
X8.0153Y-4.7845
X10.5783Y-4.1345
X10.8283Y-4.0345
X9.0704Y-2.6345
X9.3204Y-2.5345
X-2.1855Y-5.6345
X-1.9355Y-5.5345
X-0.6855Y-5.6345
X-0.4355Y-5.5345
X12.4661Y-1.8845
X12.7161Y-1.7845
X-1.4355Y-3.3845
X-1.1855Y-3.2845
X12.4661Y-3.3845
X12.7161Y-3.2845
X6.0074Y-1.8845
X6.2574Y-1.7845
X4.9582Y-3.3845
X5.2082Y-3.2845
X3.2653Y-4.8845
X3.5153Y-4.7845
X5.3204Y-2.6345
X5.5704Y-2.5345
X2.3204Y-2.6345
X2.5704Y-2.5345
X7.0153Y-4.8845
X7.2653Y-4.7845
X6.6137Y-4.1345
X6.8637Y-4.0345
T5
X-1.4855Y-2.7345
X-1.0855Y-2.7345
X13.9161Y-4.2345
X14.3161Y-4.2345
X-2.2355Y-4.2345
X-1.8355Y-4.2345
X10.7153Y-5.7345
X11.1153Y-5.7345
X13.1661Y-5.7345
X13.5661Y-5.7345
X13.9161Y-4.9845
X14.3161Y-4.9845
X4.3137Y-4.2345
X4.7137Y-4.2345
X0.3688Y-4.2345
X0.7688Y-4.2345
X7.9082Y-3.4845
X8.3082Y-3.4845
X3.4082Y-3.4845
X3.8082Y-3.4845
X3.5637Y-4.2345
X3.9637Y-4.2345
X6.9653Y-5.7345
X7.3653Y-5.7345
X5.8137Y-4.2345
X6.2137Y-4.2345
X9.9653Y-4.9845
X10.3653Y-4.9845
X0.357Y-1.9845
X0.757Y-1.9845
X8.2704Y-2.7345
X8.6704Y-2.7345
X9.6877Y-1.9845
X10.0877Y-1.9845
X-2.2355Y-3.4845
X-1.8355Y-3.4845
X-0.7355Y-4.2345
X-0.3355Y-4.2345
X13.1661Y-4.2345
X13.5661Y-4.2345
X-2.2355Y-1.9845
X-1.8355Y-1.9845
X13.1661Y-3.4845
X13.5661Y-3.4845
X4.5204Y-2.7345
X4.9204Y-2.7345
X7.1582Y-3.4845
X7.5582Y-3.4845
X2.6582Y-3.4845
X3.0582Y-3.4845
X6.7704Y-2.7345
X7.1704Y-2.7345
X1.9082Y-3.4845
X2.3082Y-3.4845
X1.7153Y-5.7345
X2.1153Y-5.7345
X7.3137Y-4.2345
X7.7137Y-4.2345
X4.3403Y-5.7345
X4.7403Y-5.7345
X9.2153Y-4.9845
X9.6153Y-4.9845
X8.4653Y-4.9845
X8.8653Y-4.9845
X8.7527Y-1.9845
X9.1527Y-1.9845
X2.4653Y-5.7345
X2.8653Y-5.7345
X13.1661Y-2.7345
X13.5661Y-2.7345
X-1.4855Y-4.9845
X-1.0855Y-4.9845
X11.6661Y-2.3595
X12.0661Y-2.3595
X3.7704Y-2.7345
X4.1704Y-2.7345
X6.4082Y-3.4845
X6.8082Y-3.4845
X0.2153Y-5.7345
X0.6153Y-5.7345
X6.0204Y-2.7345
X6.4204Y-2.7345
X3.0204Y-2.7345
X3.4204Y-2.7345
X1.7153Y-4.9845
X2.1153Y-4.9845
X5.0637Y-4.2345
X5.4637Y-4.2345
X7.7153Y-4.9845
X8.1153Y-4.9845
X10.5283Y-4.2345
X10.9283Y-4.2345
X9.0204Y-2.7345
X9.4204Y-2.7345
X-2.2355Y-5.7345
X-1.8355Y-5.7345
X-0.7355Y-5.7345
X-0.3355Y-5.7345
X12.4161Y-1.9845
X12.8161Y-1.9845
X-1.4855Y-3.4845
X-1.0855Y-3.4845
X12.4161Y-3.4845
X12.8161Y-3.4845
X5.9574Y-1.9845
X6.3574Y-1.9845
X4.9082Y-3.4845
X5.3082Y-3.4845
X3.2153Y-4.9845
X3.6153Y-4.9845
X5.2704Y-2.7345
X5.6704Y-2.7345
X2.2704Y-2.7345
X2.6704Y-2.7345
X6.9653Y-4.9845
X7.3653Y-4.9845
X6.5637Y-4.2345
X6.9637Y-4.2345
X8.0637Y-4.2345
X8.4637Y-4.2345
X8.8137Y-4.2345
X9.2137Y-4.2345
X3.1621Y-1.9845
X3.5621Y-1.9845
X9.2153Y-5.7345
X9.6153Y-5.7345
X-0.7355Y-4.9845
X-0.3355Y-4.9845
X11.6661Y-3.8595
X12.0661Y-3.8595
X-1.4855Y-5.7345
X-1.0855Y-5.7345
X12.4161Y-4.2345
X12.8161Y-4.2345
X12.4161Y-2.7345
X12.8161Y-2.7345
X12.4161Y-5.7345
X12.8161Y-5.7345
X5.6582Y-3.4845
X6.0582Y-3.4845
X2.4653Y-4.9845
X2.8653Y-4.9845
X2.8137Y-4.2345
X3.2137Y-4.2345
X6.2153Y-4.9845
X6.6153Y-4.9845
X5.0903Y-5.7345
X5.4903Y-5.7345
X4.7153Y-4.9845
X5.1153Y-4.9845
X10.2488Y-2.7345
X10.6488Y-2.7345
X10.4358Y-3.4845
X10.8358Y-3.4845
X1.2921Y-1.9845
X1.6921Y-1.9845
X10.7153Y-4.9845
X11.1153Y-4.9845
X-1.4855Y-4.2345
X-1.0855Y-4.2345
X12.4161Y-4.9845
X12.8161Y-4.9845
X-2.2355Y-4.9845
X-1.8355Y-4.9845
X13.9161Y-3.4845
X14.3161Y-3.4845
X13.1661Y-4.9845
X13.5661Y-4.9845
X4.1582Y-3.4845
X4.5582Y-3.4845
X13.9161Y-5.7345
X14.3161Y-5.7345
X0.6129Y-4.9845
X1.0129Y-4.9845
X0.6976Y-3.4845
X1.0976Y-3.4845
X5.4653Y-4.9845
X5.8653Y-4.9845
X5.8403Y-5.7345
X6.2403Y-5.7345
X3.9653Y-4.9845
X4.3653Y-4.9845
X8.4653Y-5.7345
X8.8653Y-5.7345
X8.6582Y-3.4845
X9.0582Y-3.4845
X0.8629Y-2.7345
X1.2629Y-2.7345
X9.5655Y-4.2355
X9.9655Y-4.2355
X-0.7355Y-1.9845
X-0.3355Y-1.9845
X11.6661Y-4.9845
X12.0661Y-4.9845
X-0.7355Y-3.4845
X-0.3355Y-3.4845
X13.9161Y-2.7345
X14.3161Y-2.7345
X13.5411Y-1.9845
X13.9411Y-1.9845
X11.6661Y-5.7345
X12.0661Y-5.7345
X0.9653Y-5.7345
X1.3653Y-5.7345
X7.5204Y-2.7345
X7.9204Y-2.7345
X2.0637Y-4.2345
X2.4637Y-4.2345
X1.3137Y-4.2345
X1.7137Y-4.2345
X3.5903Y-5.7345
X3.9903Y-5.7345
X7.7153Y-5.7345
X8.1153Y-5.7345
X9.4082Y-3.4845
X9.8082Y-3.4845
X2.2271Y-1.9845
X2.6271Y-1.9845
X10.6228Y-1.9845
X11.0228Y-1.9845
X-1.4855Y-1.9845
X-1.0855Y-1.9845
T7
X14.7065Y-5.6163
X14.7065Y-3.8595
X-2.6259Y-3.8595
X13.9979Y-6.325
X13.9979Y-1.3941
X-1.9173Y-6.325
X14.7065Y-2.1027
X-2.626Y-5.6163
X2.0615Y-6.325
X6.0403Y-1.3941
X6.0403Y-6.325
X-1.9173Y-1.3941
X2.0615Y-1.3941
X10.0191Y-6.325
X-2.6259Y-2.1027
X10.0191Y-1.3941
T8
X10.7283Y-4.2345
X9.2204Y-2.7345
X-2.0355Y-5.7345
X-0.5355Y-5.7345
X12.6161Y-1.9845
X-1.2855Y-3.4845
X12.6161Y-3.4845
X6.1574Y-1.9845
X5.1082Y-3.4845
X3.4153Y-4.9845
X5.4704Y-2.7345
X2.4704Y-2.7345
X7.1653Y-4.9845
X6.7637Y-4.2345
X8.2637Y-4.2345
X9.0137Y-4.2345
X3.3621Y-1.9845
X9.4153Y-5.7345
X-0.5355Y-4.9845
X11.8661Y-3.8595
X-1.2855Y-5.7345
X12.6161Y-4.2345
X12.6161Y-2.7345
X12.6161Y-5.7345
X5.8582Y-3.4845
X2.6653Y-4.9845
X3.0137Y-4.2345
X6.4153Y-4.9845
X5.2903Y-5.7345
X4.9153Y-4.9845
X10.4488Y-2.7345
X10.6358Y-3.4845
X1.4921Y-1.9845
X10.9153Y-4.9845
X-1.2855Y-4.2345
X12.6161Y-4.9845
X-2.0355Y-4.9845
X14.1161Y-3.4845
X13.3661Y-4.9845
X4.3582Y-3.4845
X14.1161Y-5.7345
X0.8129Y-4.9845
X0.8976Y-3.4845
X5.6653Y-4.9845
X6.0403Y-5.7345
X4.1653Y-4.9845
X8.6653Y-5.7345
X8.8582Y-3.4845
X1.0629Y-2.7345
X9.7655Y-4.2355
X-0.5355Y-1.9845
X11.8661Y-4.9845
X-0.5355Y-3.4845
X14.1161Y-2.7345
X13.7411Y-1.9845
X11.8661Y-5.7345
X1.1653Y-5.7345
X7.7204Y-2.7345
X2.2637Y-4.2345
X1.5137Y-4.2345
X3.7903Y-5.7345
X7.9153Y-5.7345
X9.6082Y-3.4845
X2.4271Y-1.9845
X10.8228Y-1.9845
X-1.2855Y-1.9845
X-1.2855Y-2.7345
X14.1161Y-4.2345
X-2.0355Y-4.2345
X10.9153Y-5.7345
X13.3661Y-5.7345
X14.1161Y-4.9845
X4.5137Y-4.2345
X0.5688Y-4.2345
X8.1082Y-3.4845
X3.6082Y-3.4845
X3.7637Y-4.2345
X7.1653Y-5.7345
X6.0137Y-4.2345
X10.1653Y-4.9845
X0.557Y-1.9845
X8.4704Y-2.7345
X9.8877Y-1.9845
X-2.0355Y-3.4845
X-0.5355Y-4.2345
X13.3661Y-4.2345
X-2.0355Y-1.9845
X13.3661Y-3.4845
X4.7204Y-2.7345
X7.3582Y-3.4845
X2.8582Y-3.4845
X6.9704Y-2.7345
X2.1082Y-3.4845
X1.9153Y-5.7345
X7.5137Y-4.2345
X4.5403Y-5.7345
X9.4153Y-4.9845
X8.6653Y-4.9845
X8.9527Y-1.9845
X2.6653Y-5.7345
X13.3661Y-2.7345
X-1.2855Y-4.9845
X11.8661Y-2.3595
X3.9704Y-2.7345
X6.6082Y-3.4845
X0.4153Y-5.7345
X6.2204Y-2.7345
X3.2204Y-2.7345
X1.9153Y-4.9845
X5.2637Y-4.2345
X7.9153Y-4.9845
T6
G00X10.4488Y-2.9195
M15
G01X10.4488Y-2.9432
M16
G05
G00X3.6082Y-3.6695
M15
G01X3.6082Y-3.6932
M16
G05
G00X2.1082Y-3.6695
M15
G01X2.1082Y-3.6932
M16
G05
G00X4.3582Y-3.6695
M15
G01X4.3582Y-3.6932
M16
G05
G00X6.1574Y-2.1695
M15
G01X6.1574Y-2.1932
M16
G05
G00X11.8661Y-2.5445
M15
G01X11.8661Y-2.5682
M16
G05
G00X13.3661Y-2.9195
M15
G01X13.3661Y-2.9432
M16
G05
G00X7.1653Y-5.1695
M15
G01X7.1653Y-5.1932
M16
G05
G00X12.6161Y-2.1695
M15
G01X12.6161Y-2.1932
M16
G05
G00X7.5137Y-4.4195
M15
G01X7.5137Y-4.4432
M16
G05
G00X9.2204Y-2.9195
M15
G01X9.2204Y-2.9432
M16
G05
G00X4.5137Y-4.4195
M15
G01X4.5137Y-4.4432
M16
G05
G00X9.8877Y-2.1695
M15
G01X9.8877Y-2.1932
M16
G05
G00X8.8582Y-3.6695
M15
G01X8.8582Y-3.6932
M16
G05
G00X7.9153Y-5.9195
M15
G01X7.9153Y-5.9432
M16
G05
G00X8.9527Y-2.1695
M15
G01X8.9527Y-2.1932
M16
G05
G00X3.0137Y-4.4195
M15
G01X3.0137Y-4.4432
M16
G05
G00X1.9153Y-5.1695
M15
G01X1.9153Y-5.1932
M16
G05
G00X0.8976Y-3.6695
M15
G01X0.8976Y-3.6932
M16
G05
G00X6.6082Y-3.6695
M15
G01X6.6082Y-3.6932
M16
G05
G00X5.2903Y-5.9195
M15
G01X5.2903Y-5.9432
M16
G05
G00X14.1161Y-5.9195
M15
G01X14.1161Y-5.9432
M16
G05
G00X11.8661Y-5.9195
M15
G01X11.8661Y-5.9432
M16
G05
G00X4.9153Y-5.1695
M15
G01X4.9153Y-5.1932
M16
G05
G00X12.6161Y-4.4195
M15
G01X12.6161Y-4.4432
M16
G05
G00X4.1653Y-5.1695
M15
G01X4.1653Y-5.1932
M16
G05
G00X10.9153Y-5.1695
M15
G01X10.9153Y-5.1932
M16
G05
G00X-2.0355Y-5.1695
M15
G01X-2.0355Y-5.1932
M16
G05
G00X7.9153Y-5.1695
M15
G01X7.9153Y-5.1932
M16
G05
G00X9.0137Y-4.4195
M15
G01X9.0137Y-4.4432
M16
G05
G00X-1.2855Y-2.9195
M15
G01X-1.2855Y-2.9432
M16
G05
G00X-2.0355Y-2.1695
M15
G01X-2.0355Y-2.1932
M16
G05
G00X8.6653Y-5.9195
M15
G01X8.6653Y-5.9432
M16
G05
G00X1.5137Y-4.4195
M15
G01X1.5137Y-4.4432
M16
G05
G00X0.8129Y-5.1695
M15
G01X0.8129Y-5.1932
M16
G05
G00X2.4704Y-2.9195
M15
G01X2.4704Y-2.9432
M16
G05
G00X5.8582Y-3.6695
M15
G01X5.8582Y-3.6932
M16
G05
G00X6.4153Y-5.1695
M15
G01X6.4153Y-5.1932
M16
G05
G00X12.6161Y-5.1695
M15
G01X12.6161Y-5.1932
M16
G05
G00X13.3661Y-5.9195
M15
G01X13.3661Y-5.9432
M16
G05
G00X11.8661Y-4.0445
M15
G01X11.8661Y-4.0682
M16
G05
G00X3.7903Y-5.9432
M15
G01X3.7903Y-5.9195
M16
G05
G00X9.4153Y-5.1695
M15
G01X9.4153Y-5.1932
M16
G05
G00X6.7637Y-4.4195
M15
G01X6.7637Y-4.4432
M16
G05
G00X-0.5355Y-2.1695
M15
G01X-0.5355Y-2.1932
M16
G05
G00X9.7655Y-4.4205
M15
G01X9.7655Y-4.4442
M16
G05
G00X-0.5355Y-5.1695
M15
G01X-0.5355Y-5.1932
M16
G05
G00X-1.2855Y-2.1695
M15
G01X-1.2855Y-2.1932
M16
G05
G00X10.1653Y-5.1695
M15
G01X10.1653Y-5.1932
M16
G05
G00X2.6653Y-5.1695
M15
G01X2.6653Y-5.1932
M16
G05
G00X2.8582Y-3.6695
M15
G01X2.8582Y-3.6932
M16
G05
G00X6.2204Y-2.9195
M15
G01X6.2204Y-2.9432
M16
G05
G00X7.3582Y-3.6695
M15
G01X7.3582Y-3.6932
M16
G05
G00X12.6161Y-5.9195
M15
G01X12.6161Y-5.9432
M16
G05
G00X7.1653Y-5.9195
M15
G01X7.1653Y-5.9432
M16
G05
G00X14.1161Y-5.1695
M15
G01X14.1161Y-5.1932
M16
G05
G00X8.1082Y-3.6695
M15
G01X8.1082Y-3.6932
M16
G05
G00X13.3661Y-3.6695
M15
G01X13.3661Y-3.6932
M16
G05
G00X4.5403Y-5.9195
M15
G01X4.5403Y-5.9432
M16
G05
G00X8.6653Y-5.1695
M15
G01X8.6653Y-5.1932
M16
G05
G00X2.6653Y-5.9195
M15
G01X2.6653Y-5.9432
M16
G05
G00X-1.2855Y-5.1695
M15
G01X-1.2855Y-5.1932
M16
G05
G00X-2.0355Y-3.6695
M15
G01X-2.0355Y-3.6932
M16
G05
G00X-1.2855Y-5.9195
M15
G01X-1.2855Y-5.9432
M16
G05
G00X0.6839Y-6.3407
M15
G01X0.6839Y-6.3171
M16
G05
G00X-1.2855Y-3.6695
M15
G01X-1.2855Y-3.6932
M16
G05
G00X3.7637Y-4.4195
M15
G01X3.7637Y-4.4432
M16
G05
G00X3.2204Y-2.9195
M15
G01X3.2204Y-2.9432
M16
G05
G00X1.0629Y-2.9195
M15
G01X1.0629Y-2.9432
M16
G05
G00X6.9704Y-2.9195
M15
G01X6.9704Y-2.9432
M16
G05
G00X4.7204Y-2.9195
M15
G01X4.7204Y-2.9432
M16
G05
G00X6.0403Y-5.9195
M15
G01X6.0403Y-5.9432
M16
G05
G00X14.1161Y-4.4195
M15
G01X14.1161Y-4.4432
M16
G05
G00X13.3661Y-5.1695
M15
G01X13.3661Y-5.1932
M16
G05
G00X13.7411Y-2.1695
M15
G01X13.7411Y-2.1932
M16
G05
G00X5.6653Y-5.1695
M15
G01X5.6653Y-5.1932
M16
G05
G00X9.6082Y-3.6695
M15
G01X9.6082Y-3.6932
M16
G05
G00X1.9153Y-5.9195
M15
G01X1.9153Y-5.9432
M16
G05
G00X-0.5355Y-3.6695
M15
G01X-0.5355Y-3.6932
M16
G05
G00X1.1653Y-5.9195
M15
G01X1.1653Y-5.9432
M16
G05
G00X10.9153Y-5.9195
M15
G01X10.9153Y-5.9432
M16
G05
G00X3.4153Y-5.1695
M15
G01X3.4153Y-5.1932
M16
G05
G00X2.2637Y-4.4195
M15
G01X2.2637Y-4.4432
M16
G05
G00X2.4271Y-2.1695
M15
G01X2.4271Y-2.1932
M16
G05
G00X1.4921Y-2.1695
M15
G01X1.4921Y-2.1932
M16
G05
G00X5.4704Y-2.9195
M15
G01X5.4704Y-2.9432
M16
G05
G00X7.7204Y-2.9195
M15
G01X7.7204Y-2.9432
M16
G05
G00X12.6161Y-3.6695
M15
G01X12.6161Y-3.6932
M16
G05
G00X11.8661Y-5.1695
M15
G01X11.8661Y-5.1932
M16
G05
G00X14.1161Y-2.9195
M15
G01X14.1161Y-2.9432
M16
G05
G00X8.2637Y-4.4195
M15
G01X8.2637Y-4.4432
M16
G05
G00X10.7283Y-4.4195
M15
G01X10.7283Y-4.4432
M16
G05
G00X-1.2855Y-4.4195
M15
G01X-1.2855Y-4.4432
M16
G05
G00X-0.5355Y-5.9195
M15
G01X-0.5355Y-5.9432
M16
G05
G00X9.4153Y-5.9195
M15
G01X9.4153Y-5.9432
M16
G05
G00X10.6358Y-3.6695
M15
G01X10.6358Y-3.6932
M16
G05
G00X-0.3004Y-6.3407
M15
G01X-0.3004Y-6.3171
M16
G05
G00X0.4153Y-5.9195
M15
G01X0.4153Y-5.9432
M16
G05
G00X0.5688Y-4.4195
M15
G01X0.5688Y-4.4432
M16
G05
G00X0.557Y-2.1695
M15
G01X0.557Y-2.1932
M16
G05
G00X3.3621Y-2.1695
M15
G01X3.3621Y-2.1932
M16
G05
G00X5.1082Y-3.6695
M15
G01X5.1082Y-3.6932
M16
G05
G00X3.9704Y-2.9195
M15
G01X3.9704Y-2.9432
M16
G05
G00X14.1161Y-3.6695
M15
G01X14.1161Y-3.6932
M16
G05
G00X13.3661Y-4.4195
M15
G01X13.3661Y-4.4432
M16
G05
G00X5.2637Y-4.4195
M15
G01X5.2637Y-4.4432
M16
G05
G00X12.6161Y-2.9195
M15
G01X12.6161Y-2.9432
M16
G05
G00X8.4704Y-2.9195
M15
G01X8.4704Y-2.9432
M16
G05
G00X6.0137Y-4.4195
M15
G01X6.0137Y-4.4432
M16
G05
G00X-2.0355Y-4.4195
M15
G01X-2.0355Y-4.4432
M16
G05
G00X-2.0355Y-5.9195
M15
G01X-2.0355Y-5.9432
M16
G05
G00X10.8228Y-2.1695
M15
G01X10.8228Y-2.1932
M16
G05
G00X-1.2846Y-6.3407
M15
G01X-1.2846Y-6.3171
M16
G05
G00X-0.5355Y-4.4195
M15
G01X-0.5355Y-4.4432
M16
G05
T0
M30
